<svg width="84" height="84" xmlns="http://www.w3.org/2000/svg" xmlns:xlink="http://www.w3.org/1999/xlink"><defs><path id="a" d="M0 0h83.71v83.71H0z"/></defs><g fill="none" fill-rule="evenodd"><mask id="b" fill="#fff"><use xlink:href="#a"/></mask><path d="M.86 39.62c.1.48.24.96.4 1.44a30.1 30.1 0 0 0-.36 2.48c-.07-.56-.1-1.12-.1-1.68 0-.76.02-1.5.06-2.24ZM74.14 67c.29-.59.54-1.2.78-1.81.66-.57 1.29-1.16 1.87-1.77A19.43 19.43 0 0 1 74.15 67Zm-52.4 10.64 1.15.47.21.24-.96-.48-.4-.23Zm-8.06-6.19.4.62c-.43-.4-.86-.8-1.28-1.23l.88.61ZM4.7 57.7c.15.78.33 1.55.55 2.31-.53-.8-.97-1.63-1.33-2.47-.26-.62-.5-1.24-.72-1.87.45.69.95 1.37 1.5 2.03Zm-.48-5.28c0 1.21.08 2.41.22 3.58a16.58 16.58 0 0 1-2.4-4.49c-.18-.98-.32-1.97-.4-2.95a19.6 19.6 0 0 0 2.58 3.86ZM3.17 36.84c.67 1.6 1.62 3.11 2.82 4.54a39.5 39.5 0 0 0-1.16 4.57A17.04 17.04 0 0 1 2.07 41c.27-1.4.64-2.78 1.1-4.15Zm1.44-12-.45.73.5-1.1-.05.37Zm9.21-12.74-.84.6c.39-.4.78-.77 1.19-1.14l-.35.54Zm61.34 5.95-.13-.36.66.92a30.7 30.7 0 0 0-.53-.56Zm7.14 16.79c-.21-.67-.44-1.32-.7-1.98.04-.34.07-.68.08-1.02.18.72.34 1.44.48 2.17.06.28.1.55.14.83Zm-.14 14.86c-.18.93-.46 1.84-.82 2.74.09-.92.13-1.84.13-2.78.4-.67.75-1.36 1.04-2.06-.1.7-.21 1.4-.35 2.1ZM76.2 60.46a24.3 24.3 0 0 0 3.53-3.7c-.26.94-.57 1.87-.94 2.77-.88 1.47-2 2.85-3.35 4.14.31-1.03.57-2.1.76-3.2Zm-7.82 8.18c.3-1.1.54-2.28.72-3.52a36.66 36.66 0 0 0 6.13-3.87 24.33 24.33 0 0 1-1 3.5 32.61 32.61 0 0 1-5.85 3.9Zm-11.55 10.8c1.62-.47 3.19-1 4.68-1.61l-.64.4a34.23 34.23 0 0 1-4.58 1.86c.19-.2.36-.43.54-.66Zm-32.17-.68a48.6 48.6 0 0 0 6.03 1.6c.16.28.32.54.5.77-1.93-.43-3.78-1-5.54-1.67a9.05 9.05 0 0 1-1-.7h.01Zm-2.65-3.2a52.02 52.02 0 0 0 7.51 2.1c.22.65.45 1.26.7 1.8a47.68 47.68 0 0 1-6.91-2.04c-.47-.56-.9-1.18-1.3-1.86Zm-9.1-7.36c1.98 1.21 4.2 2.3 6.62 3.24.27.95.58 1.84.93 2.68a37.02 37.02 0 0 1-6.2-3.24c-.52-.84-.97-1.74-1.36-2.68Zm-1.1-.7c.29.82.62 1.61 1 2.37a23.4 23.4 0 0 1-3.84-3.55c-.43-.65-.82-1.32-1.18-2a28.92 28.92 0 0 0 4.01 3.18Zm-1.19-4.63c.19 1.15.44 2.25.75 3.3a25.72 25.72 0 0 1-4.63-4.16c-.4-1.02-.73-2.07-.99-3.14a29.2 29.2 0 0 0 4.87 4Zm-.42-5.22c0 1.4.09 2.75.25 4.05a27.1 27.1 0 0 1-5.04-4.47 28.08 28.08 0 0 1-.4-3.9c1.46 1.55 3.2 3 5.19 4.32Zm.35-5.52c-.2 1.57-.32 3.1-.35 4.6A27.4 27.4 0 0 1 5 52.16c0-1.45.12-2.92.33-4.42a28.88 28.88 0 0 0 5.22 4.4Zm1.1-5.77a49.9 49.9 0 0 0-.98 4.92 27.04 27.04 0 0 1-5.19-4.53c.27-1.55.64-3.11 1.11-4.68a27.51 27.51 0 0 0 5.07 4.3Zm-2.9-9.91a25.59 25.59 0 0 0 4.75 4.04c-.64 1.7-1.18 3.4-1.63 5.08a25.97 25.97 0 0 1-5-4.36 43.44 43.44 0 0 1 1.89-4.76Zm-3.22-5a16.02 16.02 0 0 0 2.66 4.35 44.5 44.5 0 0 0-1.91 4.7 17.04 17.04 0 0 1-2.7-4.8c.55-1.44 1.2-2.86 1.95-4.25Zm2.39-9.75v.2c0 1.21.2 2.42.57 3.61a40.27 40.27 0 0 0-2.77 4.01c-.39-1.46-.5-2.95-.33-4.43.76-1.18 1.6-2.31 2.53-3.4Zm.1-1.3c-.8.87-1.55 1.78-2.24 2.72.32-1.12.81-2.24 1.46-3.33.44-.65.9-1.28 1.38-1.88-.3.82-.5 1.65-.6 2.49Zm9.9-9.73a9.2 9.2 0 0 0-.75 2.51c-1.4.8-2.74 1.66-4 2.6.23-1.07.66-2.12 1.25-3.13 1.1-.73 2.28-1.4 3.5-1.98Zm7.18-4.55c-.5.52-.94 1.07-1.3 1.64a33.9 33.9 0 0 0-3.92 1.22c.56-.73 1.23-1.42 2-2.08 1.04-.33 2.11-.6 3.22-.78Zm2.84-2.24c-.66.4-1.27.84-1.83 1.3-.86.1-1.7.25-2.52.44.76-.51 1.6-1 2.48-1.43.6-.15 1.23-.25 1.87-.3ZM31.3 2.2l.23-.04c-.71.27-1.39.56-2.03.88h-.77c.82-.3 1.68-.59 2.57-.84Zm6.89-.8c.18.16.37.37.57.63-.87.12-1.7.3-2.5.51a11.3 11.3 0 0 0-1.24-.6c1.01-.23 2.07-.4 3.17-.53Zm4.27.42a22.89 22.89 0 0 0-2.85.1 7.45 7.45 0 0 0-.47-.6 32.5 32.5 0 0 1 3.49-.11c-.06.17-.12.38-.17.61Zm4.32-.25a8.8 8.8 0 0 0-.85.62c-.86-.17-1.76-.28-2.7-.34.07-.24.13-.45.2-.62 1.14.06 2.27.17 3.35.34Zm5.65.68-.57-.21.73.2-.16.01Zm3.7 1.85c-.61-.4-1.27-.76-1.97-1.1.43.03.86.1 1.27.19.87.33 1.68.7 2.46 1.09-.58-.09-1.17-.15-1.76-.18Zm6.2 3.21a29.05 29.05 0 0 0-3.38-.83c-.45-.52-.97-1-1.55-1.47.93.12 1.83.3 2.7.56a17.4 17.4 0 0 1 2.23 1.74Zm1.65.58c-.4-.46-.83-.9-1.31-1.33.39.18.77.39 1.14.6.74.5 1.43 1.01 2.07 1.55-.62-.3-1.25-.57-1.9-.82ZM75 22.28a39.5 39.5 0 0 0-3.48-3.43 10.34 10.34 0 0 0-.19-3.19 30.1 30.1 0 0 1 3.13 2.8c.4 1.25.6 2.53.54 3.82Zm3.4 4.4c-.8-1.22-1.69-2.41-2.67-3.56.13-1.15.09-2.29-.13-3.4.78.9 1.5 1.85 2.16 2.85.46 1.35.67 2.73.64 4.1Zm.82 11.1-.17-.45a41.04 41.04 0 0 0-1.81-3.98 13.73 13.73 0 0 0 1.69-4.3 31.44 31.44 0 0 1 1.86 3.9c-.2 1.64-.73 3.26-1.57 4.84Zm1.54 5.27a36.2 36.2 0 0 0-1.19-4.28l.06-.1c.8-1.37 1.37-2.8 1.7-4.22.41 1.22.74 2.45.98 3.7-.2 1.66-.72 3.3-1.55 4.9Zm-4.15 11.24a37.4 37.4 0 0 0-.38-4.46 24.31 24.31 0 0 0 4.13-4.55c.2 1.41.31 2.81.32 4.2a21.8 21.8 0 0 1-4.07 4.81Zm.02 1.01a24.13 24.13 0 0 0 4.02-4.37 26.9 26.9 0 0 1-.43 3.72 21.22 21.22 0 0 1-3.85 4.63c.17-1.28.25-2.61.26-3.98Zm-7.2 5.77.02-1.05a36.91 36.91 0 0 0 6.37-4.05c-.03 1.42-.15 2.8-.37 4.12a34.3 34.3 0 0 1-6.24 4.11c.12-1 .2-2.05.22-3.13Zm-9.18 6.67.04-.46c.08-1.21.13-2.47.14-3.76 2.95-.85 5.71-1.9 8.22-3.1l-.01.63a36.51 36.51 0 0 1-.28 3.58 50.12 50.12 0 0 1-8.1 3.11Zm-.58 4.37c.21-1.1.38-2.28.5-3.54a51.7 51.7 0 0 0 8.06-3.02 27 27 0 0 1-.82 3.58 48.21 48.21 0 0 1-7.74 2.98Zm-.96 3.6c.3-.84.55-1.75.78-2.74 2.7-.77 5.25-1.72 7.59-2.82-.36 1-.78 1.94-1.25 2.8-2.19 1.09-4.58 2-7.12 2.76Zm-9.9 4.52c.17-.54.31-1.15.44-1.81a59 59 0 0 0 8.15-1.53 12 12 0 0 1-1.05 1.87 52.2 52.2 0 0 1-7.53 1.47Zm-8.71 2.03-.15-.85a58.49 58.49 0 0 0 7.75-.27c-.14.34-.28.63-.43.86-2.37.25-4.78.34-7.17.26Zm-1.2-3.47c.06.7.11 1.3.17 1.8-2.65-.12-5.3-.43-7.88-.93-.28-.54-.54-1.15-.78-1.84 2.81.53 5.66.84 8.5.97Zm-9.4-4.55a65.29 65.29 0 0 0 9.22 1.05c.04 1.02.08 1.92.13 2.7a61.06 61.06 0 0 1-8.71-1.03c-.24-.82-.45-1.73-.63-2.72Zm-.83-.17c.17.99.37 1.89.6 2.72l-.5-.11c-2.6-.57-5.05-1.3-7.32-2.17-.4-.84-.76-1.76-1.06-2.75 2.57.95 5.34 1.72 8.28 2.31Zm-9.25-6.8c2.7 1 5.63 1.83 8.73 2.45.1 1.25.23 2.42.39 3.5-3-.62-5.82-1.45-8.43-2.45-.29-1.1-.52-2.26-.69-3.5Zm-.78-.3c.15 1.22.36 2.37.63 3.46a40.2 40.2 0 0 1-6.86-3.55c-.38-1.1-.68-2.24-.9-3.43a43.07 43.07 0 0 0 7.13 3.52Zm-.33-5.14c.01 1.45.08 2.84.22 4.17a42.01 42.01 0 0 1-7.22-3.72c-.2-1.33-.3-2.7-.33-4.12a43.97 43.97 0 0 0 7.33 3.67Zm1.06-11.49a69.82 69.82 0 0 0-.73 5.12 41.9 41.9 0 0 1-7.26-3.7c.23-1.62.55-3.27.97-4.95a41.68 41.68 0 0 0 7.02 3.53Zm1.36-6.11a80.1 80.1 0 0 0-1.22 5.34 40.27 40.27 0 0 1-6.96-3.54c.45-1.68.99-3.39 1.62-5.1a38.8 38.8 0 0 0 6.56 3.3Zm-4.03-9.14a34.87 34.87 0 0 0 5.9 2.98 87.47 87.47 0 0 0-1.67 5.4 37.53 37.53 0 0 1-6.47-3.28c.65-1.7 1.4-3.4 2.24-5.1Zm-4.94-4.1a24.48 24.48 0 0 0 4.27 3.67c-.84 1.69-1.59 3.39-2.25 5.08a24.37 24.37 0 0 1-4.65-4.07 48.17 48.17 0 0 1 2.63-4.69Zm-.54-.63a49.1 49.1 0 0 0-2.64 4.65 14.77 14.77 0 0 1-2.54-4.47A39.02 39.02 0 0 1 8.8 26.4c.56 1.37 1.36 2.7 2.4 3.97Zm1.7-8.6c.47 1.2 1.16 2.36 2.06 3.46a52.85 52.85 0 0 0-3.3 4.44 14.13 14.13 0 0 1-2.3-4 42.79 42.79 0 0 1 3.53-3.9Zm4.55-4.86a46.88 46.88 0 0 0-4.2 3.44A9.56 9.56 0 0 1 13 16.9c1.28-1 2.66-1.92 4.1-2.76-.03.93.1 1.85.38 2.76Zm5.17-5.45v.15c0 .63.09 1.25.27 1.86-1.67.9-3.25 1.89-4.76 2.95a7.7 7.7 0 0 1-.23-2.74 41.5 41.5 0 0 1 4.72-2.22Zm6.42-3.8c-.16.34-.27.7-.33 1.07-1.77.41-3.49.93-5.14 1.53.14-.62.38-1.22.7-1.8 1.55-.37 3.14-.64 4.77-.8Zm9.2-2.86c-.24.08-.45.17-.66.27-1-.46-2-.84-2.98-1.15.51-.2 1.05-.39 1.61-.55.67.4 1.34.87 2.02 1.43Zm1.78-.45c-.34.05-.67.12-.99.2a18.68 18.68 0 0 0-1.86-1.42c.66-.15 1.34-.27 2.04-.36.27.45.54.97.81 1.58Zm1.93-.14h-.11c-.34 0-.67.01-1 .04-.26-.58-.53-1.1-.8-1.56.6-.05 1.19-.07 1.8-.07h.4c-.1.45-.19.97-.29 1.59Zm1.84.16c-.34-.06-.69-.1-1.05-.13l.29-1.6c.73.05 1.43.12 2.12.23a17 17 0 0 0-1.36 1.5Zm4.14-.86c-.81.36-1.63.8-2.46 1.3-.26-.1-.53-.18-.81-.25.49-.6.97-1.1 1.45-1.52.63.13 1.24.29 1.82.47Zm5.58 2.44a8.7 8.7 0 0 0-1.01-.95c1.16-.12 2.3-.16 3.4-.1.65.43 1.24.9 1.76 1.38-1.35-.2-2.73-.3-4.15-.33Zm6.14 3c-1.6-.47-3.25-.84-4.95-1.13a5.67 5.67 0 0 0-.56-1.06 32 32 0 0 1 4.4.47c.46.55.83 1.12 1.11 1.72Zm6.44 2.52a9.89 9.89 0 0 0-1.17-2.3c1.05.46 2.05 1 3 1.6.77.9 1.4 1.85 1.85 2.82a35.05 35.05 0 0 0-3.68-2.12Zm3.4 11.2a51.3 51.3 0 0 0-4.1-3.83l.29-.55a9.4 9.4 0 0 0 .76-2.27c1.48.97 2.9 2.03 4.22 3.16a10.36 10.36 0 0 1-1.17 3.48Zm5.23 1.6a12.44 12.44 0 0 1-1.2 3.16 47.91 47.91 0 0 0-3.46-4.16 11.36 11.36 0 0 0 1.3-3.47 40.15 40.15 0 0 1 3.52 3.57c-.04.3-.1.6-.16.9Zm-.69 3.87a13.34 13.34 0 0 0 1.46-3.7l.06-.27A35.07 35.07 0 0 1 78.3 28a12.6 12.6 0 0 1-1.5 4.51 44.28 44.28 0 0 0-2.75-4.38Zm-1.4 9.5a55.2 55.2 0 0 0-2.46-4.88c1.38-1.21 2.52-2.51 3.41-3.88 1 1.44 1.92 2.92 2.73 4.45a19.69 19.69 0 0 1-3.69 4.3Zm2.11 5.68c-.5-1.64-1.1-3.29-1.79-4.92a21 21 0 0 0 3.78-4.26 40.08 40.08 0 0 1 1.95 4.55 21.2 21.2 0 0 1-3.94 4.63Zm.25.84c1.6-1.4 2.95-2.9 4.02-4.5.48 1.5.86 2.98 1.13 4.46-.34.57-.73 1.13-1.15 1.68a23.26 23.26 0 0 1-2.93 3.12 44.2 44.2 0 0 0-1.07-4.76Zm-5.96 9.5c-.2-1.64-.5-3.3-.86-4.99a34.16 34.16 0 0 0 6.15-3.95c.44 1.6.79 3.21 1.04 4.8a34.62 34.62 0 0 1-6.33 4.13Zm-18.88 11.1c0-1.54-.04-3.15-.1-4.8 3.27-.38 6.42-1 9.38-1.8.12 1.64.18 3.24.19 4.78a64 64 0 0 1-9.47 1.83Zm-.33 9.35c.1-1.1.17-2.28.22-3.52 3.24-.38 6.36-.98 9.3-1.78a36.6 36.6 0 0 1-.55 3.56 61.3 61.3 0 0 1-8.97 1.74Zm-.08.8c3.07-.36 6.05-.93 8.86-1.69-.24 1-.52 1.93-.84 2.77a57.63 57.63 0 0 1-8.38 1.64c.14-.84.26-1.75.36-2.72ZM39.4 71.01a72.09 72.09 0 0 0 9.83-.34A81.04 81.04 0 0 1 49 74.2c-3.09.33-6.28.44-9.5.33l-.1-3.52Zm-2.12-.1 1.32.07v.1l.08 3.42a67.12 67.12 0 0 1-9.32-1.1c-.17-1.09-.3-2.26-.41-3.53 2.66.5 5.45.85 8.33 1.04Zm-8.54-6.1c3.13.6 6.42 1 9.82 1.15 0 1.47 0 2.88.03 4.22a66.39 66.39 0 0 1-9.7-1.15 72.53 72.53 0 0 1-.15-4.21Zm-.79-.15c0 1.46.05 2.87.13 4.21a56.67 56.67 0 0 1-8.79-2.56 42.55 42.55 0 0 1-.24-4.19 58.43 58.43 0 0 0 8.9 2.54Zm.14-5.6a98.64 98.64 0 0 0-.14 4.8 57.42 57.42 0 0 1-8.9-2.56c0-1.53.09-3.12.24-4.76a58.02 58.02 0 0 0 8.8 2.52Zm.48-6.01c-.18 1.78-.33 3.53-.43 5.22a57.03 57.03 0 0 1-8.77-2.52c.17-1.66.41-3.37.73-5.12 2.64.99 5.49 1.8 8.47 2.42Zm.8-6.28c-.28 1.86-.52 3.7-.71 5.5a55.15 55.15 0 0 1-8.42-2.41 80 80 0 0 1 1.22-5.35c2.48.93 5.13 1.69 7.91 2.26Zm1.1-6.4c-.37 1.9-.7 3.78-.98 5.63a51.75 51.75 0 0 1-7.83-2.24 87.7 87.7 0 0 1 1.67-5.4c2.24.83 4.64 1.5 7.14 2.02Zm-5.96-5.22c.37-.97.76-1.92 1.16-2.86 1.94.73 4.01 1.31 6.15 1.75-.43 1.81-.83 3.67-1.2 5.58a46.79 46.79 0 0 1-7.03-2c.3-.83.6-1.65.92-2.47Zm-4.67-5.72.88.53c1.31.77 2.72 1.45 4.2 2.04a90.83 90.83 0 0 0-2.07 5.33 33.9 33.9 0 0 1-5.8-2.95 66.04 66.04 0 0 1 2.8-4.95Zm-.66-.44a66.56 66.56 0 0 0-2.8 4.95 23.79 23.79 0 0 1-4.19-3.65c1-1.52 2.1-3 3.3-4.46a20.41 20.41 0 0 0 3.7 3.16Zm.73-7.9c.83.91 1.83 1.77 2.97 2.56a68.45 68.45 0 0 0-3.28 4.67c-1.4-.97-2.6-2-3.59-3.1 1.21-1.43 2.51-2.8 3.9-4.14Zm-1.77-2.52c.35.66.77 1.3 1.26 1.9-1.4 1.33-2.7 2.71-3.9 4.13a12.19 12.19 0 0 1-1.97-3.43 45.97 45.97 0 0 1 4.2-3.5c.12.3.26.6.41.9Zm6.23-2.32a57.85 57.85 0 0 0-4.4 3.68 11.1 11.1 0 0 1-1.57-2.73c1.5-1.07 3.1-2.07 4.76-2.98.3.7.7 1.38 1.21 2.03Zm4.68-4.78c.17.4.4.8.7 1.18-1.63.95-3.22 2-4.76 3.14a7.74 7.74 0 0 1-1.13-1.95 50.6 50.6 0 0 1 5.19-2.37Zm5.92-2.98.03.24a52.25 52.25 0 0 0-5.47 1.7c-.06-.28-.1-.57-.1-.87l.01-.2c1.8-.39 3.64-.68 5.53-.87Zm.13-1.01-.06.2c-1.86.18-3.7.47-5.47.85.09-.33.22-.66.39-.97 1.68-.13 3.4-.16 5.14-.08Zm1.23-1.66c-1.37-.3-2.74-.53-4.08-.67.38-.26.8-.5 1.25-.73 1.05.27 2.13.65 3.22 1.12l-.39.28Zm2.13.54-1.07-.29.23-.12.84.41Zm1.28-.2c-.39-.23-.78-.43-1.17-.63l.38-.13.8.75Zm1.08.08c-.35-.37-.7-.71-1.05-1.04.2-.04.4-.08.6-.1.15.35.3.74.45 1.14Zm.84-.05c-.15-.41-.3-.8-.47-1.18l.64-.02-.17 1.2Zm.8-.02.17-1.15.6.06a28 28 0 0 0-.76 1.09Zm.97 0 .68-.93.49.12c-.39.26-.78.53-1.17.82Zm2.32-.38-1.07.4.8-.52.27.12Zm1.05-.36c-.15-.1-.31-.18-.48-.27.9-.52 1.79-.95 2.66-1.29.5.2.96.41 1.4.64-1.18.22-2.37.53-3.58.92Zm3.37.6c-.78.05-1.55.13-2.33.23a4.44 4.44 0 0 0-.25-.24c1.3-.4 2.58-.69 3.83-.88.37.25.71.52 1.02.8-.75 0-1.5.03-2.27.09ZM48.5 7.22a3.15 3.15 0 0 0-.11-.23 39.77 39.77 0 0 1 4.8-.26c.24.3.45.62.61.94-1.73-.25-3.5-.4-5.3-.45Zm5.77 2.31c-1.8-.53-3.65-.96-5.53-1.29l-.02-.22c1.84.06 3.65.22 5.41.5a4 4 0 0 1 .14 1.01Zm6.01 2.07v.14a48.54 48.54 0 0 0-5.22-1.97v-.21c0-.3-.03-.6-.09-.9 1.74.3 3.42.7 5.06 1.21.16.56.25 1.14.25 1.73Zm1.82 10.05a60.47 60.47 0 0 0-4.06-4.03 10.8 10.8 0 0 0 1.73-1.96A53.05 53.05 0 0 1 64.38 19c-.6.94-1.37 1.82-2.28 2.64Zm4.13 5.02a62.34 62.34 0 0 0-3.61-4.44c.94-.84 1.74-1.75 2.38-2.71a50.25 50.25 0 0 1 4.1 3.84 15.44 15.44 0 0 1-2.87 3.3Zm.47.64a16.45 16.45 0 0 0 2.96-3.35 46.88 46.88 0 0 1 3.45 4.21 17.67 17.67 0 0 1-3.33 3.87 59.52 59.52 0 0 0-3.08-4.73Zm-2.64 8.56a78.41 78.41 0 0 0-2.43-5.17l.95-.5a25.1 25.1 0 0 0 3.51-2.38 58.7 58.7 0 0 1 3.08 4.75 28.12 28.12 0 0 1-5.1 3.3Zm2.27 6a74.07 74.07 0 0 0-1.96-5.27c1.96-1 3.7-2.11 5.2-3.33a54.3 54.3 0 0 1 2.44 4.9 31.03 31.03 0 0 1-5.68 3.7Zm.25.76c2.16-1.1 4.1-2.35 5.76-3.71.68 1.65 1.27 3.3 1.76 4.96a32.78 32.78 0 0 1-6.08 3.99c-.4-1.74-.88-3.49-1.44-5.24Zm-7.1 8.56c-.27-1.78-.59-3.6-.96-5.43 2.65-.76 5.11-1.7 7.34-2.78a66 66 0 0 1 1.43 5.25 47.83 47.83 0 0 1-7.81 2.96Zm.11.8c2.84-.81 5.47-1.8 7.87-2.97a57 57 0 0 1 .84 5 50.38 50.38 0 0 1-8.13 3.1 90.2 90.2 0 0 0-.58-5.14Zm-9.8 1.92a63.01 63.01 0 0 0 9.03-1.71c.25 1.75.44 3.47.57 5.15a63.45 63.45 0 0 1-9.34 1.8c-.06-1.7-.15-3.46-.25-5.24Zm-3.42 5.58a71.1 71.1 0 0 1-6.97.1c.02-1.68.05-3.44.1-5.26A67.87 67.87 0 0 0 49 54c.1 1.82.19 3.56.25 5.24-.96.1-1.92.19-2.89.25Zm2.99 6.15c0 1.5-.04 2.91-.09 4.23-3.2.34-6.5.47-9.87.35l-.04-4.23a73.5 73.5 0 0 0 10-.35ZM38.7 54.3l-.1 5.26a67.48 67.48 0 0 1-9.67-1.13c.1-1.7.25-3.44.43-5.23 3 .58 6.13.95 9.34 1.1Zm.17-6.35-.15 5.56c-3.19-.14-6.3-.51-9.27-1.09.2-1.8.43-3.63.71-5.5 2.8.54 5.73.89 8.7 1.03Zm.23-6.5v.3c-.08 1.82-.15 3.63-.2 5.41a61.39 61.39 0 0 1-8.62-1c.28-1.86.6-3.74.97-5.63a57 57 0 0 0 7.85.92Zm.3-6.47c-.1 1.87-.18 3.77-.26 5.7a55.98 55.98 0 0 1-7.74-.91c.38-1.9.78-3.75 1.21-5.57 2.21.41 4.49.67 6.78.78Zm-5.19-6.92a39.37 39.37 0 0 0 5.52.64l-.3 5.5c-2.24-.1-4.47-.36-6.63-.77.44-1.84.92-3.63 1.41-5.37Zm-5.8-1.6c1.55.59 3.23 1.07 5 1.44-.49 1.73-.96 3.53-1.4 5.38-2.1-.43-4.11-1-6.02-1.72a87.23 87.23 0 0 1 2.42-5.1Zm-.74-.28a87.2 87.2 0 0 0-2.42 5.1 30.95 30.95 0 0 1-4.97-2.53 66.98 66.98 0 0 1 3.27-4.66c1.23.78 2.61 1.48 4.12 2.1Zm.05-7.01c.91.58 1.93 1.1 3.04 1.56a79.48 79.48 0 0 0-2.72 4.75 24.6 24.6 0 0 1-4-2.02 63.84 63.84 0 0 1 3.68-4.29Zm-.67-.45a64.72 64.72 0 0 0-3.68 4.3c-1.1-.76-2.07-1.59-2.87-2.48a56.25 56.25 0 0 1 4.4-3.68c.6.66 1.33 1.29 2.15 1.86Zm4.5-4.33a59.16 59.16 0 0 0-3.97 3.77 12.46 12.46 0 0 1-2.07-1.77 54.9 54.9 0 0 1 4.76-3.12c.37.4.8.77 1.28 1.12Zm4.36-3.98c.1.11.23.22.35.33-1.4.96-2.77 2-4.12 3.14a8.43 8.43 0 0 1-1.19-1 51.37 51.37 0 0 1 4.96-2.47Zm-.51-.65a52.26 52.26 0 0 0-4.98 2.5c-.26-.34-.47-.7-.63-1.07a52.2 52.2 0 0 1 5.46-1.7c.04.1.1.18.15.27Zm1.7-.7-.95.39-.1-.15 1.04-.24Zm-.46-.7c-.29.05-.57.12-.85.18l-.02-.12.87-.07Zm-.13-.8-.6.05.04-.09.56.04Zm9.52-1.02.65-.23.13.1-.78.13Zm.85.66.63-.1.07.1h-.7Zm.3.79h.74l.01.11-.76-.11Zm.61 1.05-.93-.3.99.15-.06.15Zm10.8 4.94a54 54 0 0 0-4.08-2.2c.2-.4.35-.8.44-1.21 1.8.57 3.56 1.24 5.25 2a6.54 6.54 0 0 1-.68 1.99c-.3-.2-.62-.39-.93-.58Zm-4.26 5.26a62.93 62.93 0 0 0-3.43-4.05c.58-.32 1.1-.66 1.58-1.04a56.33 56.33 0 0 1 4.38 3.48c-.74.58-1.6 1.13-2.53 1.61ZM58 24.42a71.08 71.08 0 0 0-3.18-4.56 16.7 16.7 0 0 0 2.63-1.72c1.39 1.25 2.74 2.6 4.05 4.02-1.02.83-2.2 1.59-3.5 2.26Zm.42.65a21.4 21.4 0 0 0 3.6-2.33 61.38 61.38 0 0 1 3.62 4.44A24.24 24.24 0 0 1 61.26 30c-.9-1.7-1.86-3.34-2.85-4.93Zm-3.44 7.4c-.6-1.81-1.25-3.58-1.91-5.28 1.65-.49 3.2-1.08 4.63-1.76 1 1.58 1.96 3.23 2.86 4.93a35.68 35.68 0 0 1-5.58 2.11Zm2.07 7a40.78 40.78 0 0 0 6.62-2.5 73.24 73.24 0 0 1 1.96 5.25c-2.2 1.08-4.64 2-7.27 2.76-.38-1.82-.82-3.67-1.3-5.52Zm-2.09 6.37c-1.88.42-3.78.73-5.69.96-.17-1.9-.36-3.8-.57-5.67a52.5 52.5 0 0 0 7.59-1.46c.49 1.86.92 3.7 1.3 5.53-.85.23-1.73.45-2.63.64Zm-5.62 1.75a59.7 59.7 0 0 0 8.42-1.62c.37 1.84.7 3.65.96 5.44a61.71 61.71 0 0 1-8.96 1.71 251.6 251.6 0 0 0-.42-5.53Zm-7.4.43c2.2 0 4.4-.11 6.62-.34.16 1.9.3 3.74.41 5.53-3.18.34-6.35.44-9.45.33l.15-5.56c.75.03 1.5.04 2.27.04Zm-.07-12.98c1.76 0 3.51-.09 5.25-.27.25 1.83.49 3.72.7 5.66-2.61.27-5.26.36-7.88.27l.26-5.69c.55.02 1.11.03 1.67.03Zm-.04-6.29c1.47 0 2.93-.07 4.35-.22.3 1.76.57 3.58.83 5.47-2.24.22-4.51.3-6.77.23l.3-5.5c.43.02.86.03 1.3.02Zm-.9-5.97a33.81 33.81 0 0 0 4.2-.15c.32 1.63.63 3.34.93 5.13-1.79.18-3.62.24-5.47.18.1-1.79.22-3.51.33-5.16Zm-4.9-.52c1.3.24 2.68.4 4.1.48-.12 1.67-.23 3.4-.34 5.17a40.98 40.98 0 0 1-5.35-.62c.51-1.74 1.04-3.42 1.58-5.03Zm-.83-.16c-.54 1.6-1.06 3.29-1.56 5.03a34.04 34.04 0 0 1-4.85-1.37 79.23 79.23 0 0 1 2.71-4.74c1.16.43 2.4.8 3.7 1.08Zm-.36-5.99c.72.27 1.49.5 2.3.68-.58 1.44-1.14 2.96-1.69 4.56-1.24-.27-2.42-.6-3.52-1a68.3 68.3 0 0 1 2.91-4.24Zm-.74-.3a69 69 0 0 0-2.91 4.26 19.24 19.24 0 0 1-2.92-1.47 58.18 58.18 0 0 1 3.97-3.75c.57.36 1.19.68 1.86.97Zm3.5-4.25a56.52 56.52 0 0 0-3.02 3.62 13.1 13.1 0 0 1-1.73-.85 51.34 51.34 0 0 1 4.11-3.1c.2.12.41.23.63.33Zm-.62-1.3a4.2 4.2 0 0 1-.25-.2l1.43-.55c-.4.24-.79.5-1.18.76Zm2.39-.55-1.2 1.22-.45-.2c.55-.36 1.1-.7 1.65-1.02Zm7.8.2-1.18-.6c.46.13.91.27 1.36.42l-.18.19Zm-.35 1.29c.17-.1.32-.21.47-.33 1.53.85 3.05 1.78 4.55 2.82-.44.33-.93.64-1.47.92a53.6 53.6 0 0 0-3.55-3.41Zm.83 4.5a63.04 63.04 0 0 0-2.35-3.8l.77-.3a52.4 52.4 0 0 1 3.55 3.38c-.61.28-1.27.52-1.97.73Zm2.67 5.13a80.63 80.63 0 0 0-2.28-4.43c.76-.23 1.48-.51 2.14-.83a61.92 61.92 0 0 1 3.44 4.03c-1.02.48-2.12.89-3.3 1.23Zm.34.72a23.6 23.6 0 0 0 3.44-1.33 70.01 70.01 0 0 1 3.19 4.55c-1.39.66-2.9 1.23-4.5 1.7-.69-1.7-1.4-3.35-2.13-4.92Zm-5.86-4.44c.87-.12 1.7-.28 2.5-.5.77 1.4 1.53 2.88 2.27 4.43-1.2.32-2.47.56-3.8.72-.31-1.6-.64-3.16-.97-4.65Zm-3.46.18a21.93 21.93 0 0 0 2.65-.09c.34 1.47.67 3.02 1 4.65a32.48 32.48 0 0 1-4.01.13l.36-4.69Zm-.8-.03-.36 4.7a31.06 31.06 0 0 1-3.9-.45c.55-1.6 1.11-3.11 1.69-4.55.82.15 1.69.25 2.57.3ZM40 12.28c.32.05.64.1.98.12v.06c-.13 1.27-.25 2.61-.37 4.01-.8-.04-1.59-.13-2.34-.26.57-1.39 1.15-2.7 1.73-3.93Zm-.84-.17a74.95 74.95 0 0 0-1.73 3.94c-.74-.16-1.44-.36-2.1-.59.99-1.28 1.99-2.49 3-3.6.27.1.54.18.83.25Zm1.14-2.28-.78 1.54-.58-.16c.45-.48.9-.94 1.36-1.38Zm4.75-.11c.48.23.96.47 1.44.73l-.32.19c-.37-.32-.75-.62-1.12-.92Zm-1.28.02c.54.4 1.08.83 1.6 1.27l-.54.2c-.35-.51-.7-1-1.06-1.47Zm-.37 1.78c-.17-.6-.34-1.2-.52-1.77.4.52.8 1.07 1.2 1.65-.22.05-.45.09-.68.12Zm.21.78c.33-.05.65-.11.96-.19a61.63 61.63 0 0 1 2.33 3.8c-.72.18-1.49.32-2.28.42a118.7 118.7 0 0 0-1-4.03Zm-1.74.13c.31 0 .62-.01.92-.04.35 1.26.69 2.6 1.02 4.03-.63.06-1.28.09-1.94.09h-.46c.12-1.45.24-2.81.37-4.08h.09Zm-.81-.83c-.24-.01-.47-.04-.69-.07.29-.59.58-1.15.87-1.7l-.18 1.77Zm.99-1.8.53 1.81c-.24.02-.47.03-.71.03h-.02l.2-1.84Zm4.8 17.87c-.3-1.75-.6-3.47-.93-5.13 1.4-.18 2.73-.44 3.99-.78A96.79 96.79 0 0 1 52 26.68c-1.64.44-3.38.77-5.18.99Zm.95 6.24c-.26-1.84-.54-3.67-.83-5.47a38.7 38.7 0 0 0 5.34-1.04c.66 1.7 1.3 3.47 1.9 5.29-2.06.55-4.22.96-6.41 1.22Zm.82 6.43c-.22-1.88-.46-3.77-.72-5.65 2.25-.27 4.45-.69 6.56-1.25a116.12 116.12 0 0 1 1.62 5.47 51.83 51.83 0 0 1-7.46 1.43Zm3.85-27.17c-1.5-1.05-3.03-2-4.56-2.85l.26-.32c1.75.6 3.5 1.3 5.24 2.12-.27.36-.58.72-.94 1.05ZM39.9 41.48a59.17 59.17 0 0 0 8-.27c.22 1.94.41 3.83.58 5.68-2.94.3-5.89.4-8.8.3l.2-5.41.02-.3Zm21.54-9.39a77.87 77.87 0 0 1 1.91 4.14 40.1 40.1 0 0 1-6.51 2.46 119.8 119.8 0 0 0-1.63-5.47c2-.58 3.93-1.3 5.7-2.16l.53 1.03Zm-3.97-14.98a57.23 57.23 0 0 0-4.38-3.49c.4-.37.73-.76 1.01-1.17a53.29 53.29 0 0 1 5.01 2.79 9.94 9.94 0 0 1-1.64 1.87Zm-3.28-6.77c-.08.37-.2.74-.38 1.1a52.26 52.26 0 0 0-5.26-2.15l.09-.26c1.89.33 3.74.77 5.55 1.3Zm-17.6-3.66.64.15-.74-.06.1-.1Zm-7.84 57.34c0-1.55.05-3.15.14-4.8 3.1.6 6.36.98 9.7 1.13l-.02 4.81a68.5 68.5 0 0 1-9.82-1.14Zm20.61.83a71.51 71.51 0 0 1-10 .35l.03-4.81a71.34 71.34 0 0 0 9.9-.35c.04 1.68.07 3.28.07 4.8ZM64.8 18.32a53.9 53.9 0 0 0-4.61-3.34c.36-.67.62-1.36.76-2.07 1.67.79 3.27 1.66 4.8 2.63a8.46 8.46 0 0 1-.95 2.78Zm1.03-3.66a45.9 45.9 0 0 0-4.76-2.57 6.72 6.72 0 0 0-.14-1.93c1.57.53 3.09 1.15 4.54 1.86.28.87.4 1.75.36 2.64Zm-34.47-8.8c1.42.1 2.86.3 4.33.61l-.18.24a42.47 42.47 0 0 0-4.98.02c.24-.3.52-.6.83-.87Zm-7.92 5.74c0-.16 0-.31.02-.46a44.68 44.68 0 0 1 5.2-1.59c0 .4.05.8.15 1.17a51.4 51.4 0 0 0-5.18 2.36 6 6 0 0 1-.19-1.48Zm25 66.91c-.14.69-.3 1.3-.45 1.82-2.66.29-5.4.39-8.13.3l-.15-1.8a64.1 64.1 0 0 0 8.72-.32Zm-8.78-.48c-.05-.81-.1-1.72-.13-2.7a68.2 68.2 0 0 0 9.4-.34c-.1 1-.22 1.9-.35 2.72-2.92.31-5.91.42-8.92.32Zm19.79-10.06a63.37 63.37 0 0 1-9.34 1.81 123 123 0 0 0 .07-4.23c3.31-.38 6.48-1 9.46-1.8a55.7 55.7 0 0 1-.2 4.22Zm.99-5.26a73.1 73.1 0 0 0-.2-4.78 51.6 51.6 0 0 0 8.16-3.08c.17 1.6.26 3.18.27 4.7a50.7 50.7 0 0 1-8.23 3.16Zm15.19-11.38c.13 1.25.2 2.46.21 3.64a35 35 0 0 1-6.38 4.19 48.62 48.62 0 0 0-.3-4.68 36.2 36.2 0 0 0 6.36-4.05c.04.3.08.6.1.9Zm-4.85-33.41v.29a43.13 43.13 0 0 0-4.18-3.07c.08-.88.02-1.76-.18-2.64 1.37.72 2.67 1.52 3.9 2.4.31.98.47 2 .46 3.02Zm-7.26-9.36a11.25 11.25 0 0 1 1.54 2.39 38.79 38.79 0 0 0-4.4-1.7 8.16 8.16 0 0 0-.95-1.81c1.32.29 2.6.66 3.8 1.12Zm-8.95-4.49c-.98.02-1.97.1-3 .24-.45-.29-.95-.56-1.48-.8.76-.24 1.5-.4 2.23-.47.8.3 1.55.65 2.25 1.03Zm-3.73-1.55c-.59.14-1.19.32-1.8.54a17.8 17.8 0 0 0-2.12-.66c.38-.26.74-.46 1.1-.6.98.2 1.92.43 2.82.72Zm-17.19-.23a8.4 8.4 0 0 1 1.62.56c-.64.22-1.24.46-1.8.74-.8-.2-1.58-.35-2.34-.44.8-.32 1.64-.61 2.52-.86Zm-4.03 1.54c.9.03 1.84.14 2.79.33-.47.28-.9.58-1.3.9-1.2-.07-2.4-.08-3.56 0 .63-.44 1.32-.85 2.07-1.23Zm-3.2 2.11c1.26-.14 2.57-.19 3.9-.14-.3.32-.57.66-.8 1-1.56.15-3.1.38-4.59.7.42-.55.92-1.07 1.48-1.56Zm-7.32 4.21a32.3 32.3 0 0 1 4.2-1.45 7.1 7.1 0 0 0-.57 1.87 42.58 42.58 0 0 0-4.65 2.12 8.65 8.65 0 0 1 1.02-2.54ZM8.7 21.9c0-.38.02-.77.07-1.15a34.19 34.19 0 0 1 3.37-3.17v.27c0 1.06.16 2.1.47 3.1a43.8 43.8 0 0 0-3.52 3.81c-.25-.94-.39-1.9-.39-2.86Zm2.56 30.71a43.44 43.44 0 0 0 7.29 3.66A57.5 57.5 0 0 0 18.3 61a42.34 42.34 0 0 1-7.34-3.75c0-1.51.11-3.06.3-4.65ZM32.5 81.4c-.26-.23-.5-.5-.74-.83 2.44.43 4.93.7 7.42.81l.14.84a48.5 48.5 0 0 1-6.82-.82Zm22.06-.78a45 45 0 0 1-6.36 1.27c.13-.25.25-.53.36-.84a54 54 0 0 0 6.96-1.27c-.3.32-.62.6-.96.84Zm2.93-2.2c.32-.54.61-1.14.88-1.8 2.39-.68 4.65-1.5 6.74-2.46-.45.67-.93 1.29-1.46 1.85-1.9.94-3.97 1.75-6.16 2.42ZM81.43 48.1c-.06-1.26-.2-2.54-.43-3.83a16.31 16.31 0 0 0 1.66-3.82c.1 1 .16 2 .16 3-.19 1.6-.66 3.16-1.39 4.65Zm-.54-16.93a32.9 32.9 0 0 0-1.76-3.34c.1-1 .1-1.99-.03-2.98.4.77.77 1.55 1.1 2.36.44 1.3.67 2.63.69 3.96Zm-7.22-14.57a31.7 31.7 0 0 0-2.69-2.18c-.26-.76-.61-1.52-1.05-2.25.63.5 1.23 1.03 1.8 1.59.79.92 1.43 1.87 1.94 2.84Zm-55.9-7.81c.71-.44 1.46-.83 2.23-1.16-.57.61-1.06 1.25-1.47 1.91-1.03.45-2.02.95-2.98 1.5.63-.78 1.37-1.53 2.21-2.25Zm-4.75 4.86c-.4.93-.66 1.88-.79 2.85-1.13.9-2.2 1.85-3.21 2.85.29-1.18.77-2.34 1.45-3.47.8-.8 1.65-1.54 2.55-2.23Zm-10.1 16.2c.46-1.13 1-2.23 1.6-3.29 0 1.31.22 2.62.65 3.92a36.46 36.46 0 0 0-1.96 4 12.83 12.83 0 0 1-.29-4.62ZM15.35 72.5c1.7.99 3.58 1.89 5.6 2.67.3.6.63 1.17.98 1.7a33.14 33.14 0 0 1-5.16-2.75c-.5-.5-.98-1.05-1.42-1.62Zm54.05-.21c-1.18 1-2.5 1.92-3.94 2.75.34-.47.66-.97.96-1.5 1.44-.73 2.8-1.52 4.04-2.37-.34.38-.7.76-1.06 1.12Zm2.8-3.42a30.03 30.03 0 0 1-5.17 3.47c.4-.83.75-1.72 1.05-2.67a35.65 35.65 0 0 0 5.54-3.42c-.42.91-.9 1.79-1.43 2.62ZM1.54 39.07a13.17 13.17 0 0 1-.14-4.16c.18-.9.4-1.78.66-2.64.08 1.15.3 2.29.67 3.42a32.95 32.95 0 0 0-1.13 3.67l-.06-.29Zm.27 3.45c.7 1.55 1.65 3.04 2.83 4.44a34.35 34.35 0 0 0-.42 4.25 17.1 17.1 0 0 1-2.68-4.87c0-1.28.1-2.55.27-3.82Zm78.8 15.13c1.99-4.88 3.1-10.21 3.1-15.8 0-5.51-1.08-10.78-3.03-15.61l-.07-.17a41.8 41.8 0 0 0-3.92-7.41h-.02a42.14 42.14 0 0 0-2.95-3.9l.01-.02a42.62 42.62 0 0 0-2.73-2.92l-.02.02a42.15 42.15 0 0 0-6.09-4.9v-.02a16.9 16.9 0 0 0-.64-.4l-.11-.07c-.38-.25-.76-.49-1.16-.72h-.01a41.7 41.7 0 0 0-6.02-2.9v-.01l-.03-.01A41.59 41.59 0 0 0 43.53.04h-.1a42.36 42.36 0 0 0-6.2.22h-.01a41.52 41.52 0 0 0-13.76 4l-.28.14c-.83.42-1.65.86-2.45 1.33a42.1 42.1 0 0 0-5.99 4.24l.01.02c-.7.6-1.37 1.2-2.03 1.85l-.02-.02c-.32.32-.63.64-.92.96a42.17 42.17 0 0 0-4.75 5.89L7 18.66l-.42.67-.03.06c-.2.3-.4.6-.59.92a41.75 41.75 0 0 0-2.88 5.76l-.03.08A41.63 41.63 0 0 0 0 41.85c0 5.59 1.1 10.92 3.1 15.8l.07.17a41.78 41.78 0 0 0 3.86 7.22l-.02.01a42.19 42.19 0 0 0 2.95 3.92l.03-.01a42.24 42.24 0 0 0 2.73 2.91l-.02.02c.3.3.62.58.95.87a42.15 42.15 0 0 0 5.15 4.03l.01-.01c.63.42 1.27.82 1.92 1.2l.4.24.62.34c1.6.88 3.27 1.66 4.99 2.32l.01.01a41.58 41.58 0 0 0 13.34 2.78h.09a42.23 42.23 0 0 0 6.31-.22h.01c5-.55 9.72-1.99 14.03-4.14l.27-.13a41.99 41.99 0 0 0 2.19-1.2h-.01a42.07 42.07 0 0 0 5.98-4.25l.01.01c.3-.25.6-.52.87-.79l.24-.21c.32-.28.63-.56.93-.85l-.02-.02a42.2 42.2 0 0 0 5.7-6.82c.36-.55.7-1.1 1.04-1.66h.01c.17-.28.34-.56.5-.86a41.74 41.74 0 0 0 2.3-4.7l.08-.18Z" fill="#5CDEB3" mask="url(#b)"/></g></svg>