<svg width="1458" height="1400" viewBox="0 0 1458 1400" xmlns="http://www.w3.org/2000/svg" xmlns:xlink="http://www.w3.org/1999/xlink"><defs><radialGradient cx="30.52%" cy="56.65%" fx="30.52%" fy="56.65%" r="79.11%" gradientTransform="matrix(.79524 -.57138 .6063 .74945 -.28 .32)" id="a"><stop stop-color="#FFF" offset="0%"/><stop stop-color="#FFF" stop-opacity=".93" offset="47.5%"/><stop stop-color="#FFF" stop-opacity=".29" offset="100%"/></radialGradient><path d="M133.4 214.15c239.33-302.2 945.87-302.2 1185.2 0 107.73 136.04 101.3 842.78 0 970.7-239.33 302.2-945.87 302.2-1185.2 0-107.73-136.04-101.3-842.78 0-970.7Z" id="b"/></defs><g fill="none" fill-rule="evenodd"><g transform="rotate(80 726 699.5)"><use fill="url(#a)" xlink:href="#b"/><use fill-opacity=".65" fill="#FFF" xlink:href="#b"/></g><path d="M501.52 186.72a427.22 427.22 0 0 1 98.14 124.45v-.01c133.49-20.82 281.21-16.94 409.4 11.64-.81-2.53-1.67-5.06-2.58-7.57a80.6 80.6 0 1 1 151.72-54.48 387.24 387.24 0 0 1 22.75 122.64l.02-.02c35.73 18.83 66.88 40.78 91.95 65.84 90.8 90.76 85.38 562.24 0 647.58-201.7 201.61-797.14 201.61-998.84 0-90.8-90.76-85.38-562.24 0-647.58 33.54-33.53 77.97-61.48 129.66-83.85l.02.01a234.17 234.17 0 0 0-30.26-31.83c-40.55-35.35-44.75-96.88-9.4-137.42 35.36-40.55 96.88-44.75 137.42-9.4ZM773.5 489.6c-83.84 0-165.41 10.64-233.5 30.3-51.59 14.88-91.6 33.83-116.91 53.1l-.86.66-.5 1.61-.4 1.3-.19.67-.4 1.36-.4 1.39-.4 1.43-.39 1.47-.4 1.5-.4 1.54-.4 1.57-.4 1.6-.4 1.65-.4 1.67-.4 1.71-.4 1.74-.4 1.78-.39 1.8-.59 2.77-.39 1.89-.39 1.91-.38 1.95-.37 1.9-.51 2.66a624.36 624.36 0 0 0-4.8 29.9l-.4 3c-.08.51-.14 1.01-.2 1.52l-.4 3.05-.2 1.53-.37 3.08-.19 1.55-.36 3.12-.36 3.14-.34 3.17-.34 3.18-.32 3.21-.16 1.61-.32 3.24-.3 3.26-.3 3.28-.27 3.3-.28 3.32-.26 3.33-.25 3.35-.24 3.37-.24 3.39-.1 1.7-.23 3.4-.2 3.43-.2 3.43-.18 3.46-.1 1.73-.16 3.47-.16 3.48-.15 3.5-.14 3.5-.07 1.76-.12 3.52-.06 1.77-.1 3.53-.05 1.78-.09 3.55-.08 3.56-.07 3.56-.05 3.58-.05 3.58-.03 3.58-.03 3.6v10.81l.02 3.6.04 3.58.04 3.57.06 3.57.03 1.78.07 3.55.09 3.54.1 3.53.1 3.51.12 3.5.12 3.5.07 1.74.15 3.47.15 3.46.17 3.44.08 1.72.19 3.42.19 3.4.1 1.7.2 3.38.22 3.36.23 3.35.24 3.33.25 3.3.26 3.3.13 1.63.28 3.26.14 1.62.3 3.22.14 1.61.3 3.2.16 1.58.32 3.16.17 1.58.33 3.12.52 4.65.36 3.06.37 3.04.38 3.02.4 2.98.39 2.96.4 2.94.42 2.9.43 2.88.22 1.43.44 2.83.22 1.41.46 2.79.23 1.38.47 2.75c.4 2.27.8 4.5 1.21 6.71l.37 1.96.37 1.92.38 1.9.38 1.86.38 1.84.2.9.37 1.8.39 1.75.39 1.72.39 1.7.38 1.66.4 1.62.2.8.38 1.58.4 1.54.39 1.51.39 1.48.39 1.44.4 1.4.38 1.37.4 1.33.19.65.39 1.28.38 1.24.4 1.26.25.19c24.92 19.47 64.89 38.72 116.7 53.85l1.87.54c68.09 19.65 149.66 30.29 233.5 30.29s165.41-10.64 233.5-30.3c51.59-14.88 91.6-33.83 116.91-53.1l.86-.66.5-1.61.4-1.3.19-.67.4-1.36.4-1.39.4-1.43.39-1.47.4-1.5.4-1.54.4-1.57.4-1.6.4-1.65.4-1.67.4-1.71.4-1.74.4-1.78.39-1.8.59-2.77.39-1.89.39-1.91.38-1.95.37-1.9.51-2.66c.91-4.88 1.78-9.92 2.6-15.1A210.78 210.78 0 0 0 1196 771.5a210.79 210.79 0 0 0-58.79-146.33l-.39-2.35-.23-1.38-.47-2.75c-.4-2.27-.8-4.5-1.21-6.71l-.37-1.96-.37-1.92-.38-1.9-.38-1.86-.38-1.84-.2-.9-.37-1.8-.39-1.75-.39-1.72-.39-1.7-.38-1.66-.4-1.62-.2-.8-.38-1.58-.4-1.54-.39-1.51-.39-1.48-.39-1.44-.4-1.4-.38-1.37-.4-1.33-.19-.65-.39-1.28-.38-1.24-.4-1.26-.25-.19c-24.92-19.47-64.89-38.72-116.7-53.85l-1.87-.54c-68.09-19.65-149.66-30.29-233.5-30.29Z" fill="#5A65F4" fill-rule="nonzero"/><circle fill="#5A65F4" cx="1087.5" cy="771.5" r="111"/><circle fill="#5A65F4" cx="659" cy="772" r="163"/></g></svg>