<svg width="444" height="438" viewBox="0 0 444 438" xmlns="http://www.w3.org/2000/svg" xmlns:xlink="http://www.w3.org/1999/xlink"><defs><path id="a" d="M0 0h444v438H0z"/></defs><g transform="matrix(-1 0 0 1 444 0)" fill="none" fill-rule="evenodd"><mask id="b" fill="#fff"><use xlink:href="#a"/></mask><path d="M94 310.6c-.5.1-.7.5-.7 1 0 .4.3.6.7.5.4 0 .6-.4.6-.8s-.1-.6-.6-.7ZM251.3 79.4c-.7.1-1.5.3-1.5 1.4 0 .8.6 1.2 1.3 1.1.9-.1 1.7-.4 1.7-1.4 0-.9-.7-1-1.5-1Zm23-25c-.1-.7-.1-1.9-1.4-2-.8 0-1 .8-1 1.5 0 1 .5 2 1.7 2 .6 0 .7-.7.8-1.4ZM71.9 314.7l-.3.5c-.7 1.5 1 5 2.6 5.4.4.1.7.2 1-.1.5-.4.4-.9.1-1.3l-2.2-4c-.1-.3-.4-.5-1.2-.5ZM90 352.9c.1 1.4 2.4 3 3.8 2.8.6 0 1.2-.2 1.4-.8.3-.8-.2-1.3-.8-1.6-1-.5-2-1-3-1.2-.8-.3-1.4 0-1.4.8Zm182.6 41.6c.4 0 1 0 1.4-.2.7-.2 2 0 1.8-1.2-.1-.8-1-1.6-2-1.5l-1.5.1c-1 .3-2.6.4-2.4 1.8.2 1.4 1.8.6 2.7 1Zm70.3-120.1c-1.4 0-2 0-1.1 1.2.5.7.9 1.7 1.3 2.5.6 1 1.5 1 2.4.5 1-.6.8-1.5.2-2.4-.8-1.1-1.7-2-2.8-1.8ZM89.6 309.8c0-1-1-1.4-2.7-1.3-1 .1-2 .2-2 1.5 0 1.2 1.1 2.3 2.4 2.3 1.1-.1 2.3-1.4 2.3-2.5Zm207.3 77.8c1.7 0 3-.4 4.2-1 .7-.3.6-.8 0-1.2-1.4-.9-2.8-.6-4.1-.2-1.2.3-3.1.3-3 1.4 0 1 2 .9 2.9 1ZM267 78.2c1.2 0 2.5.2 2.5-1.5 0-1.4-1-2-2.3-1.9-1.2 0-2.6.2-2.8 1.7 0 1.8 1.5 1.6 2.6 1.7ZM353.7 323a4.1 4.1 0 0 0-1.5-2.9c-1.2-.8-1.3-3.5-2.7-2.8-1.2.6.4 2.6.7 4 .3 1.2.7 2.2 2 2.7.8.3 1.4.2 1.5-1Zm1.9 23.9c0-1.3-1.2-2.4-2.7-2.3-1 0-2 .3-1.9 1.6 0 1 1.7 3.2 2.4 3.2 1 .1 2.2-1.4 2.2-2.5ZM111.9 264c0-1.6-1-3-2.6-3.5-1.2-.4-1.9.1-1.6 1.4.3 1.3.8 2.7 1.6 3.8.9 1.2 1.7 1 2.2-.3.3-.5.3-1 .4-1.4Zm-4.6 101.8c-.7 0-1.5 0-1.7.7-.3 1 .5 1.4 1.2 1.7 1.4.6 3 1.3 4.6 1.3.5 0 1-.2 1.2-.9.2-.5-.2-.8-.6-1.1a9 9 0 0 0-4.7-1.7Zm75.7 28.3v.2h2c.6-.1.8-.7.4-1-1-1.3-2-2.6-3.7-3-1.1-.3-2.1 0-2.4 1.3-.3 1.2.3 2 1.5 2.3.7.2 1.5.2 2.2.2Zm128.7-12.5c-1.4-.5-3.1.1-4.8.8-.5.2-1.2.3-1 1 0 .7.6 1 1.1 1.1a4 4 0 0 0 2.5-.1l3-1.2c.8-.4 2.4-.4 2.2-1.6-.1-.7-1.6 0-3 0Zm-134-319.8c0-.5-.4-.8-.7-1-1-.5-1.9-1-2.9-.3a8 8 0 0 0-3.3 3.6c-.2.6.4.8.9.7 2-.3 4-1 5.5-2.5l.5-.5Zm198.6 258c0-.3.1-.8-.4-.8-.4 0-.6.4-.8.7-2.2 4-2.7 8.4-4.2 12.6v.5c.3.1.5-.1.7-.3 2.4-4 3.4-8.4 4.7-12.7Zm-228.1 5.2v.6c0 .3-.3.9.2 1 .5 0 .4-.5.5-.9l3.2-11.4c.2-.7.2-1.4.2-2.2 0-.3 0-.8-.5-.9-.4 0-.6.4-.7.7-2 4.2-2 8.8-3 13.1Zm163.9-155c-.5-3.7-2-7.7-3.6-11.6-.2-.2-.4-.5-.7-.4a53.8 53.8 0 0 0 3 13c.1.4.4 1 1 .8.4-.2.3-.8.3-1.8Zm-165.4-42.6c0 .6-.3 1.3.3 1.5.7.2.8-.6 1-1 1-3.9 2.2-7.7 3.3-11.5.1-.5.3-1.2-.4-1.5-1-.3-1 .5-1.3 1a34 34 0 0 0-2.9 11.5ZM36.8 175.7c-.4-5.1-1.3-10-3.7-14.3-.1-.2-.3-.6-.5-.4-.2 0-.3.5-.2.7l.8 4.8c.5 3.2.8 6.4 2.3 9.3.2.4.4 1 1 .9.6-.2.3-.8.3-1Zm124.7-93.1c0-.6 0-1.3-.6-1.5-.8-.4-1.2.4-1.4 1-1 2.8-1.8 5.7-2.6 8.6l-1 4.1c0 .4 0 .8.5.9l.7-.4c.3-.2.5-.6.6-1 1-3.6 2.1-7.3 3.6-11l.2-.7Zm-80.8 251c.9 0 2-.5 2.6-1 1-.8 1-1.9-.2-2.4-1.6-.7-3-1.5-4.3-2.6-.9-.7-2-.6-2.3.6-.5 1.8 2.4 5.3 4.2 5.3Zm277.1-15.8c.4 0 .8.2 1-.2.3-.3.1-.7-.1-1-2.2-2.4-4-5-5.6-7.7-.2-.4-.6-.8-1.2-.6-.7.3-.5 1-.3 1.4.3 1.2.8 2.4 1 3.5 1 4 1.3 4.3 5.2 4.6Zm32-30.4.1-.8c0-.5.2-1.1-.2-1.3-.8-.2-1 .6-1.1 1-2 3.9-2.8 8-3.7 12.2 0 .5-.3 1.4.6 1.6.6.2.8-.6 1-1 1.9-3.7 2.6-7.7 3.3-11.7Zm-28.7 50c0-1-.2-1.8-.9-2.4-1-1-2-1.9-3.2-2.8-.4-.4-.8-.8-1.5-.5-.7.4-.6 1.1-.4 1.7.8 2 1.5 4 2.4 5.8.3.7.8 1.4 1.6 1.4 1 0 1.4-.9 1.7-1.7l.3-1.4ZM292.1 96c-.6-4.2-2.8-8-5-11.6-.3-.5-.5-1.2-1.2-.8-.6.3-.4 1-.2 1.5 1.4 4 3 7.9 4.8 11.7.2.5.5 1.2 1.2 1 .6-.3.4-1 .4-1.8Zm77 218c-1.8.3-3.5.5-5 1-.9.4-1.3.8-1.1 1.8.4 1.7 2.8 3.4 4.5 3 1.3-.2 3.3-3.3 3-4.6 0-.9-.6-1.3-1.4-1.2Zm-165 83.7h1.6c1-.1 2.1.2 2.6-.8.4-1.2-.7-1.9-1.4-2.6-3.4-3.4-3.8-3.3-6.3 1-.6 1.2-1.3 2.2 1 2 1 0 2 .3 2.5.4ZM93.4 320.3c0-.7 0-1-.5-1.2-.4-.1-.8 0-1 .4-1.4 2.2-3.7 3.8-5.4 5.8-.8 1-1 1.9 0 2.7 1 1 2.3 1.3 3.3.2 2-2.4 2.8-5.3 3.6-7.9Zm5.6 38.3c-2.8 0-3.6.5-3.3 1.9.7 3 5.6 4.7 8 2.7 1-.9 1.1-1.8-.1-2.7a9.3 9.3 0 0 0-4.6-2ZM361.3 312c1.7 0 2.8 0 3.9-.5.6-.3.8-.7.1-1.3-1.8-1.5-3.6-3-5.8-3.8-1.2-.5-2.7-1.7-3.6-.8-.8.8.8 2.1 1.2 3.2 1 2 2.2 3.6 4.2 3.2ZM266.1 70.3c2-1 4.5-2.2 6.8-3.5.5-.3.6-1 .4-1.5-.4-2-3.6-3.2-5-1.8a19.3 19.3 0 0 0-3.6 5.1c-.5 1-.2 1.7 1.4 1.7ZM38 207.9c.6 5.4 2 10.6 3.2 15.8.3 1.3 1.1 2.4 1.8 3.5.3.5.7 1.1 1.3.9.7-.3.4-1 .2-1.5-.9-1.9-1.4-3.9-1.9-5.9-1.1-4.3-1.8-8.7-3.5-12.8-.1-.4-.2-1-.7-1-.7 0-.2.7-.3 1Zm319.5 145.5c-.1 1.7-.1 1.8.1 1.8.7 0 .9-.6 1.3-1 3.7-4 4.8-9 6.1-14 .1-.3.2-.8 0-.9-.4-.2-.6.2-.8.5-2 2.7-3.9 5.3-5.3 8.4-.8 1.7-1.3 3.5-1.4 5.2Zm-12.5-69.6v.5c.4 2.2 2 3.4 4.5 3.3 1.2 0 4.1-2.4 4.2-3.5a2 2 0 0 0-.3-1c-1-1.7-4.6-2.8-6.3-2-1.2.4-2 1.2-2 2.7ZM88.7 299.4l.6 1.8c1 2.3 2.3 2.6 4.3 1 1.2-.9 2.3-1.9 3.2-3.2 1-1.7.7-2.5-1.2-3-2.2-.3-4.1.3-6 1.2-.8.4-1 1-1 2.2Zm90.6-234-3.9 1.3c-.5.2-1 .4-1.2 1.1 0 .8.4 1.3 1 1.6 2.8 1 5.3 2.4 7.8 4 .3.3.9.4 1.3 0s.2-.9 0-1.3l-2-5c-.6-1-1.6-1.6-3-1.6ZM83.8 317h-3.6c-.8 0-1.4.5-1.6 1.3-.2 1.3 1.4 4.8 2.5 5.5 1.2.7 2.3.8 3.1-.6l1.5-2.1c.7-1.3 3-2 2.2-3.5-.7-1.2-2.8-.3-4-.6Zm210.4-204.5v.9c0 6.4 2.8 12.2 4.6 18.3.3 1 .7 2 1.5 2.6.8-1 0-2 0-3l-.2-1c-.2-5.5-2.3-10.6-4.3-15.7l-.9-1.5-.7-.6Zm33.6 128.3c-.7.1-.6.6-.6 1 .2 3 1.6 5.7 2 8.6.4 4.3 1.5 8.3 3.2 12.3.7 1.7 1 3.6 2.1 5.2.3.3.7 1 1 .7.6-.3.1-.8 0-1.3-1.3-4.7-3-9.3-4-14.1-.8-3.9-1.7-7.7-3.2-11.4l-.5-1Zm40 86.3c0-.8-.2-1.4-.9-1.7-2.3-1.2-4.9-2-7.4-2.6-1.3-.3-2 .6-1.4 2 .6 1.8 1.5 3.4 2.7 4.9 1 1 2 2 3.7 1.3 1.6-.5 3.2-2.5 3.3-4ZM342.9 363c0-1-.5-1.8-1.6-2.4-2-1-4-1.5-6.1-2.2-1.2-.4-1.6.2-1.4 1.3.3 2 1.2 3.9 2.2 5.7.9 1.6 2.2 2 3.9 1.6 1.7-.5 3-2 3-4ZM195 80c-.6-3.9-.2-8.4-4.7-10.8-.9-.4-1.6-1.3-2.6-.6-.9.6-.8 1.7-.4 2.6l5.6 10.4c0 .2.3.5.5.6.8.4 1.3.3 1.5-.6V80ZM92 332.9c-2.4.4-4.7 1.6-7.2 2.7-2.4 1-2.6 2-1.3 4.1 1.5 2.3 3.3 2.8 5 1.3 1.8-1.8 3.4-3.7 5-5.7.5-.5.9-1 .5-1.8-.4-.7-1-.6-2-.6Zm-13.2-18.6c1-.3 2.5.3 3-1.2.5-1.1-.3-2.1-1-3a449 449 0 0 0-7-7c-.5-.4-1.1-.9-1.8-.5-.7.5-.5 1.2-.2 1.8l3.1 7.9c.7 1.5 2 2 4 2Zm296.6-8.7v.6c.4.7 0 1.9.9 2.1.7.1 1.2-.9 1.5-1.5 1.1-2.7 2.7-5.2 3-8.2.4-3.3 1.5-6.4 2.3-9.6l1.3-3.4c.1-.4 0-.8-.3-1-.4-.4-.7 0-1 .3-.8.7-1.2 1.8-1.6 2.9-.6 1.7-.7 3.7-1.7 5.3-2.2 3.6-2.6 7.9-4.3 11.7l-.1.8ZM281 80.8c-.1-1.2-.4-2.3-.9-3.3l-2.3-5.5c-1-2.5-2-2.8-4.3-1.5-2.2 1.4-2.4 3.2-.3 5.4l4.9 5.9c.5.7 1 1.4 2 1 .9-.5.8-1.3.9-2ZM121.7 252l-.2-1.6c-.8.2-.8 1-1.2 1.7-.6 1.1-1.4 2.3-1.4 3.6-.2 4.3-1.5 8.4-2.6 12.5-.6 2.3-.8 4.6-1.7 6.8-.3.8-.2 1.6.6 2 .8.3 1.3-.4 1.6-1 .6-1.2 1.4-2.5 1.7-3.8 1.3-6.6 2.6-13.2 3.2-20.2Zm41-163.1c0 .6-.3 1.3.5 1.5.6.2 1-.4 1.3-.8l.3-.5c2-5.1 4.7-9.9 7.6-14.5.7-1 1-2.1-.3-3-1.3-.7-2.6-.6-3.6.6a9 9 0 0 0-1.4 2.8l-4 12.3-.5 1.6ZM359 286.4c-3.5 0-6 2.2-8.5 4-1.4 1-1.4 3 0 4.8 1.2 1.6 2.7 2 4 .6 2.1-2 4-4.4 6.1-6.3.6-.5.9-1.2.5-2-.4-.9-1.2-1.2-2.1-1Zm-229 84.4c-1.4.2-2.8.7-3.4 2.1-.5 1.2.2 2.1 1.1 3l3.3 3a128 128 0 0 0 5.8 5c.7.5 1.8 1 2.6.3.7-.7-.3-1.5-.7-2.2-2.2-3.6-5.2-6.7-7.2-10.4-.3-.6-.8-.8-1.5-.8Zm-32.5-79c.4 0 4-1 4.4-1.4 1.7-1.1 2.7-3.9-.2-5-2.6-1-5-2.5-7.7-3.5-1.5-.6-2.1-.2-1.7 1.2.8 2.4 1.4 4.8 2.6 7.1.5 1 1.2 1.6 2.6 1.6Zm-.9 37.1c3 0 4.6-1.5 4.2-4.5v-2.9c.4-3.3 1.2-6.7 1.7-10 .1-.6.6-1.5-.2-1.8-.5-.2-.8.7-1 1.1l-2.3 4.6c-1.5 3.5-3.3 6.8-4.4 10.5-.6 2.1 0 3 2 3Zm88.3-275c-2.2.5-4.2 1.5-6.2 2.7-1.2.7-1 2 .4 2.9 3.4 2.3 6.9 4.3 10.5 6 .4.3.9.7 1.3.2.2-.4 0-.8-.2-1.1-1.4-3-2.7-6.2-3.9-9.4-.3-.8-.8-1.5-1.9-1.3ZM83.6 305.7c3.2 0 4-1.1 2.6-3.8-.4-.7-.8-1.5-1-2.3-1.2-4.3-4.9-6.4-7.7-9.2-.6-.7-1.3-.3-1.4.5 0 .6 0 1.2.2 1.7 1.4 3.5 2.2 7.2 3.7 10.7.7 1.8 2.1 2.2 3.6 2.4Zm175.2 73c-.2 1 .3 1.9 1.2 2.4l7.3 4.3c.4.2.9.7 1.3.4.6-.3.4-1 .2-1.5l-3.4-12c0-.3-.2-.5-.4-.8-.5-.7-1.3-1-1.9-.3-2 2.2-3.7 4.5-4.3 7.5Zm111-70.2c1.6 0 2.2-1.2 2.5-2.4.8-4 2.4-7.5 3.6-11.3l1.4-4.6c.1-.7.2-1.6-.7-2-.7-.2-1.2.5-1.5 1a179.3 179.3 0 0 0-8 14.6c-1.1 2.3.5 4.8 2.8 4.7Zm-310.3-38c0-.9-.2-2-.5-3-1.7-8-4.9-15.3-7-23 0-.4-.3-.8-.5-1.1-.2-.4-.5-1-1-.8-.6.2-.6.8-.5 1.2l1 6.4a103 103 0 0 0 5.8 19.8c.4 1 .7 1.8 1.5 2.4l.7.4c.5 0 .5-.5.5-.9v-1.4Zm100.2-169.7c0-.4.4-1.2-.4-1.3-.7-.1-.9.7-1 1.2-.5 3.7-2.2 7-3.1 10.6-1.5 5.8-2.4 11.7-4.4 17.3-1 2.8-1.6 5.7-2.3 8.5-.1.7-.4 1.6.2 1.9.8.4 1.3-.5 1.8-1 .9-1 1.2-2.4 1.5-3.7l6.6-27.9c.4-1.8 1-3.6 1.1-5.6Zm-56.5 232.5c0-1.3-.7-1.6-1.7-1.4-1 .3-1.7 1.1-2.5 1.9-2.8 2.9-4.9 6.4-7.9 9.2-.9.9-1.1 2-.5 3.1.8 1.4 2.2 2 3.8 2.3 1.3.2 1.7-.8 2.2-1.8l5.9-11.6.7-1.7Zm8.4-3c0-.9-.4-1.2-1-1.3-1.3-.1-2.2.5-2.9 1.6-1 1.6-1.4 3.4-2.2 5.2-2 4.6-4.2 9-6.5 13.5-.8 1.6-.2 2.8 1.5 3.6 1.6.8 2-.5 2.5-1.4l.6-1 7.6-19 .4-1.2Zm55.5 62.3c1 0 2 0 2.5-.8.6-1-.3-1.6-.7-2.3-2-3-4.4-5.8-6.1-9.1-.3-.7-1-1.2-1.6-1.6-.8-.3-1.6-.4-2.1.3-1.2 1.5-2.5 3-3.1 5-.5 1.4 0 2.5 1.4 3.3 1.6 1 3 2.1 4.7 3.1 1.5 1 3.2 1.9 5 2.1Zm201.3-104.5c-.4.1-1 .2-1.5.5-4.1 2-7 5.6-9.6 9.3-.8 1.1-.4 2.6 1 3.4 1.5 1 2.9 2.5 5 1.5.3 0 .5-.3.7-.5 2.4-3.8 4.3-7.7 6.4-11.6.8-1.6 0-2.6-2-2.6Zm-45.6-59.6c0-2.3-1-4.5-1-6.7-.6-8.9-4-17.1-6.1-25.6l-.6-1.6c-.2-.3-.3-.8-.7-.8-.7 0-.6.7-.5 1 .2 3.6.3 7 .9 10.5 1.2 6.5 3.3 12.8 4.6 19.3.3 1.9 1 3.6 1.8 5.3.2.4.4.8.8.8.6 0 .7-.6.7-1v-1.2Zm-260 46.3c.8 4.4 2.4 8.7 3 13.2.5 4.6 3.5 7.3 6.7 10 .5.5 1 1 1.8.5.9-.5.5-1.3.2-2-1.7-4.6-3.2-9.4-5.4-13.9l-4.3-8.9c-.3-.6-.4-1.4-1.3-1.2-.7.2-.7 1-.7 1.7v.6Zm186 90.3c-1.2-5.2-1.4-10.9-2-16.5-.1-1.6-.1-3.2-.7-4.8-.2-.6-.5-1.3-1.3-1.3-.6 0-1 .5-1.2 1-1 1.8-1.8 3.8-2.9 5.5-1 1.7-.9 3.2-.1 4.9 1.9 4.2 4.4 8 6.7 12 .3.5.6 1.3 1.2 1 .7-.2.3-1 .4-1.8Zm-5.3-319.2-4.5.4c-2.4.2-2.8.7-2.6 3 .3 3.2 2 6 3.2 8.8.5 1 1.4 1 2.3.3a38 38 0 0 0 7.3-9.7c1-1.6.2-2.7-1.7-2.8h-4ZM266 59c0-1-.5-2-2-2.7-1-.4-2 .3-2.3 1-2 4.2-5.8 7.3-6.9 12-.2 1.1-1 2-1.5 3s-2.1 1.8-.7 3.2c.9.8 3.5.8 4.5 0 .5-.5 1-1 1.2-1.6 1.9-4.1 4.8-7.7 6.9-11.7.4-.9.9-1.7.8-3.2Zm-30.4 25.1c0 1.2.3 2 1.6 1.8 2.1-.3 4.3-.7 6.3-1.4 3.6-1.3 4.3-3.4 3-7-1-2.5-3-4.5-4.3-6.8-.4-.7-1-1.3-1.8-1.2-1 .2-1.4 1-1.4 2-.2 2.8-1.5 5.4-2.4 8-.5 1.6-.6 3.2-1 4.6Zm106.9 235.1c.8 3.5 1.4 7.3 2 11.1.4 2.1 1 4.2 1.8 6.3 1.1 3 3.4 4.1 6.2 4.6 1.8.2 2.3-.4 1.6-2.2-.4-1.1-1.1-2.2-1.4-3.3a60.5 60.5 0 0 0-8.3-17.3c-.3-.5-.5-1.4-1.4-1-.6.3-.5 1-.5 1.8ZM88.4 294.1l1-.1c3.4-.5 3.6-.9 2.4-4-.9-2-2-4-2.5-6a22.1 22.1 0 0 0-7.5-10.4c-.5-.4-.9-.9-1.5-.5-.8.4-.6 1.1-.4 1.7a3542.9 3542.9 0 0 0 5.7 17.8c.5 1.1 1.5 1.7 2.8 1.5Zm83-202.6c1.8-.2 3-1.2 4.2-2.6 2-2.5 3.6-5.3 5.9-7.6 2.3-2.4 2.1-3.6-.8-5.2a12 12 0 0 0-1.7-.9c-2-.7-3-.5-4 1.5a67.7 67.7 0 0 1-4.1 7c-.8 1.3-1.6 2.7-2.2 4-.9 2.2.3 3.8 2.8 3.8Zm28.7-17.7c-2 0-2.7.3-2.8 2-.2 5.3.2 10.5 5.1 14.1.8.6 1.4 1 2.5.3 2.5-1.5 2.9-2 2.2-5-.6-2.4-1.5-4.8-1.8-7.2-.4-2.9-1-4-5.2-4.2Zm145.3 237.5a84 84 0 0 0-4.2-17.4 311.5 311.5 0 0 0-5.8-14.7l-.5-.6c-.5.1-.3.6-.3.9.5 3.8 1.3 7.6 1.4 11.5a43.8 43.8 0 0 0 7.7 21.2c.4.3.8.6 1.3.3.4-.2.4-.6.4-1.2ZM30.8 144.6c-.3-3.5-.2-6.6-.8-9.7-.5-2.5-1.3-5-1.6-7.5a50.2 50.2 0 0 0-5.7-18.6c-.5-1-.8-2-1.1-3-.3-.8 0-2.3-1.4-2.3-.4 0-.3 1.7 0 2.6 1.8 8.8 3 17.8 6.2 26.2 1.1 3 1.8 6 2 9.1.2 1.3.6 2.6 1 3.9 0 .3.2.8.7.6.2 0 .4-.4.5-.6.2-.3.2-.7.2-.7Zm316 212.7 2-.4c2.6-.6 2.7-.8 2-3.3a36.9 36.9 0 0 0-6-11.8c-1.2-1.6-2.7-3-4.1-4.6-.4-.3-.9-.5-1.3-.2-.4.2-.4.6-.3 1 0 .6.2 1.1.3 1.7l3 14c.5 2.6 1.7 3.6 4.5 3.6Zm-170.5-264c-.1 2 2.8 5.7 4.5 6 1 .3 1.8-.1 2.4-1 2.4-4.1 4.9-8 7-12.3.7-1.6.1-2.8-1.2-3.7-1.4-.9-3.2-.8-4 .4-1.7 2.2-3.8 4-5.7 6-1.3 1.5-2.6 3-3 4.6ZM256.4 399c5.3 0 9-3 10.2-8.2.2-1 0-2-.9-2.5-2-1.1-3.7-2.6-5.8-3.4-2.3-1-3.1-.6-3.7 1.8-.7 2.9-1.7 5.6-2.6 8.4-1 3.2-.5 3.9 2.8 3.9ZM220.1 43.7h-3.5c-2.1.2-2.7 1-2 3l3.6 9c1.1 2.4 2 2.5 3.7.6l6-6.8c2.2-2.3 1.9-4-1.1-5-2.2-.8-4.5-.7-6.7-.8ZM115 287c-.2-.8.2-1.8-.8-2-.8 0-1.1.7-1.5 1.2-.6 1-1 2.2-1.3 3.4-2.6 9-4 18-6.6 27-.7 2.5-.7 5.2-1.2 7.8-.2 1-.1 2 1.1 2.2 1.3.2 2.3-.4 2.5-1.7v-1.4c0-1.5.3-2.9.6-4.2 1.6-7.3 3.4-14.6 4.8-21.9.7-3.5 1.7-7 2.4-10.4Zm195.9-89c-1.3-8.2-1.6-16.4-3.6-24.4-1.3-5-2.4-10.1-3.8-15.1-.2-.6-.3-1.7-1-1.5-1 .2-.4 1.2-.3 1.8.4 4.8 1 9.6 1.2 14.4a71 71 0 0 0 6 25.2c.2.5.4 1.3 1 1 .7-.1.4-1 .5-1.3ZM43.6 177.8c.2-2.6-.8-5-.8-7.6-.1-6.8-2-13-4.1-19.4-1.2-3.3-2.3-6.6-4-9.7-.2-.4-.3-1-.8-1-.6.1-.3.8-.3 1.2l1.5 11c1.5 8.7 4.5 17.1 6.5 25.8.3 1.1.5 2.7 1.8 2.8.5 0 0-2 .2-3.1Zm24.3 78.6v.6c.3 6.2 2.1 12.3 3 18.4.3 2.2 1.3 4.4 2.1 6.4a12 12 0 0 0 4.9 5.1c1.2.8 1.7.4 1.7-1l-.2-1c-1.7-7.1-2.8-14.3-6.7-20.7-1.5-2.5-2.5-5.3-3.7-8-.1-.3-.2-1-.7-1-.6.1-.3.8-.4 1.2Zm156.5 143.5c2.7 0 5-1 7-2.7 1.8-1.5 2-2.9.6-4.7a75.5 75.5 0 0 0-6-6.4c-1.2-1.2-2.5-1-3.3.4-1.8 3.2-3.4 6.4-5 9.6-.6 1.3 0 2.3 1.2 2.7 1.8.5 3.7 1.1 5.5 1.1ZM279 89.3v.7c1.1 6 2.3 12 4.4 17.8A31 31 0 0 0 290 118c.2.2.6.5 1 .3.4-.1.4-.5.4-1 0-.4 0-.9-.2-1.3-2-7-3-14.2-5.5-21-1-2.7-2.5-5.1-4.8-6.9-.5-.3-1-.7-1.6-.3-.4.3-.3.8-.3 1.5ZM55.3 231.1c.8 8.3 1.4 16.6 4 24.5 1.2 4 2.8 8 5 11.7.4.5.7 1.4 1.4 1.1 1-.3.8-1.2.6-2-.9-2.1-1-4.5-1.5-6.8-1-4-1-8-2.2-12-1.8-5.5-4.5-10.8-5.1-16.7-.2-1.1-.5-3-1.7-2.8-1 .1-.3 2-.5 3ZM196 48.1c-1.3.7-2.7 1.3-4.2 1.8-1.8.6-2.3 2-2 3.8 0 1 .3 1.8.7 2.7l3.7 8.6c1.4 3.5 3.5 5.9 7.7 6 1.6 0 1.5-.4 1.1-1.5-2.4-6.6-4.5-13.3-6-20.1-.1-.6-.2-1.2-1-1.2ZM60.4 213.4h-.1l.3 4.5c.4 6.5 2 12.9 2.7 19.4.5 4.2 2.8 8 4.8 11.7.1.3.4.5.6.5.5 0 .5-.5.5-.9.2-1.9-.4-3.7-.5-5.6-.8-8.8-2.4-17.4-4-26-.5-2.9-2-5.4-3.3-7.8-.2-.3-.3-.5-.6-.5-.4 0-.4.4-.4.7v4Zm85.9 173c2.7-.1 3.7-1.5 2.6-3.9-2.8-6-5.4-12.2-7.8-18.5-.8-2.4-1.9-2.5-3.5-.7l-1.7 1.9c-1.7 1.7-2 3.7-.7 5.7 3 4.5 5.7 9.1 8.3 13.8.6 1 1.5 1.7 2.8 1.6Zm114.5-285.4 1.5-.5 1.6-.4c2.8-.2 3-.2 2-3-1.3-4.3-2.8-8.6-4.3-12.9-.6-1.7-1.5-2-3.3-1.5-1.6.6-3 1.5-4.7 2-2.2.7-2.7 1.5-1.6 3.6 1.7 3.3 3.3 6.7 4.8 10.2.7 1.6 2.1 2.3 4 2.5ZM341 330.5l-.8-5.4c-.7-4.3-1.2-8.7-2.3-12.8-1.3-5.5-4-10.4-6.3-15.5-.5-1-1-3-2.5-2.5-1.1.4-.2 2.2 0 3.3 1.8 6.4 2.8 13 3.7 19.5.7 5.6 3 10.2 6.6 14.4.3.4.7 1 1.3.7.6-.3.3-1 .3-1.7Zm-218.3-51c-.2-1.2.3-2.4-1-2.6-1-.2-1.4.8-1.7 1.6L119 282c-1.5 6-2.3 12-3.8 18-1.4 5.6-2.5 11.4-4 17.1a61 61 0 0 0-.9 4.4c-.2 1.2.2 2.1 1.5 2.4 1.2.2 2.4 0 2.8-1.3.4-1 .6-2 .7-3 1.4-7.8 2.7-15.6 4.5-23.4 1.3-5.6 1.4-11.4 3-16.7Zm194.6-9.4a315.5 315.5 0 0 1 4 29c.7 5.7 2.5 10.6 5.8 15 .5.6.7 1.9 1.7 1.4s.2-1.6 0-2.4c-.4-2.7-1.1-5.3-1.5-8a266.8 266.8 0 0 0-8.6-37c-.1-.4-.4-.7-.8-.6-.5 0-.6.5-.6.8v1.8Zm9.1 103.2c2.2-.2 3.9-1.5 5.7-2.5 2.5-1.2 2.8-2 1.1-4.3a19 19 0 0 1-2.9-6.1c-.4-1.7-1.4-3-2.3-4.5-.6-1-1.4-1.5-2.5-1.8l-3.6-.9c-1.9-.4-2.4.1-2.1 2 .7 5.7 3 11 4.3 16.5.3 1.2 1.1 1.7 2.3 1.6ZM96.7 258.7c0 1.3.5 3 1 4.6 1.1 4.4 2.3 8.7 2.6 13.3 0 1 .2 2 .8 3 1 1.4 2.3 2.2 4 2 1.8 0 2.4-1.3 2.8-2.7.2-1 .6-1.8 1-2.7.5-1.6.4-3.1-.4-4.6a50.6 50.6 0 0 1-4.3-9.9 7.8 7.8 0 0 0-4.7-5.3c-2.6-1-3-.9-2.8 2.3Zm38.8-45.5c0-.7.3-1.4-.5-1.7-.7-.3-1.3.1-1.8.6-.6.6-1 1.4-1.2 2.2-.8 6.8-3.6 13.2-3.5 20 0 .9-.3 1.7-.5 2.6-.9 4.5-2 9-2.7 13.6-.8 5.9-2 11.7-2.9 17.6 0 .6-.5 1.4.3 1.8.7.3 1.2-.3 1.7-.8.7-.5 1.1-1.3 1.2-2.2l.3-2.8c.9-5.9 2.5-11.6 3.6-17.5 1.3-7 2.5-14 4-21.1.8-4 1.7-8.2 2-12.3Zm133.7-132c-5 0-5.2.4-3.8 5 1.2 4.2 3 8.1 4 12.4.3 1.3 1 2.5 2.2 3.2 2 1 4 1.7 5.8 2.9 1.1.6 1.8 0 1.6-1.3 0-.5-.3-1-.4-1.4-1-5.3-2.7-10.4-3.4-15.7-.5-3.8-2.2-5.3-6-5.2Zm-113.8 53.3c-.1.8.2 1.7 1.5 2 1.2.3 1.7-.6 2-1.5 1.1-2.1 1.4-4.5 2.1-6.8 3.3-10 5.2-20.4 8.7-30.5.7-2 0-2.8-2.2-3.3-1.9-.5-2.4-.3-2.8 2-1.8 8.7-4.7 17.1-6.5 25.8l-2.8 12.3ZM243 63.8c0 2 2.6 7.3 4.3 8.7 1 1 1.7.4 2.2-.5 2.9-5.8 5.8-11.5 9.3-16.9 1-1.3.6-2.7-.7-3.8a8.2 8.2 0 0 0-3-1.6c-1.3-.5-2.3-.3-3.3 1.1-2.3 3.4-4.6 7-7.5 10-.8.8-1.2 1.8-1.3 3Zm3.3 23.4c-1.8.5-3.9 1-6 1.7-2.2.7-2.5 1.4-1.6 3.6l2 5c1.1 2.7 2.6 5.2 4 7.8.7 1.6 2 2 3.5 1 1.7-1 3.4-2.4 5-3.6.7-.5 1-1.3.7-2a47.4 47.4 0 0 0-5-12.1c-.5-.9-1.2-1.5-2.6-1.4ZM214.7 91A8 8 0 0 0 210 92c-.7.5-1.4 1-2.2 1.3-3 1.5-3.5 2.4-2 5.4 1 2 1.7 4 2.5 6l1.8 4.5c.8 1.6 1.6 1.7 2.7.2L221 98c1-1.4 1-2.9-.2-4.1a8.8 8.8 0 0 0-6.1-3Zm-157.4 125c-.6-5.2-.8-10.5-1.3-15.8-.4-5-1.6-9.9-2.5-14.8-.2-1-.5-2-1-3-1.9-3.4-3.5-7-5-10.7-.1-.3-.2-.9-.6-.8-.4 0-.3.6-.3.9-.1 4.3 1.2 8.6.3 13-.1.6.3 1.4.5 2.1 1.1 4.2 2.6 8.4 3.2 12.7.9 5.8 3.2 11.2 4.6 16.9.2.8.4 2 1.4 1.9 1.3-.2.5-1.6.7-2.4Zm259.3 17.6c.5-4-1.2-7.3-1.5-10.8-.4-5.5-3.5-10.1-4.8-15.3-.2-.5-.4-1.3-1.1-1-.7.1-.4.9-.4 1.4.1 5.1.9 10.2 1.5 15.2.5 4.2 1.4 8.5 1.6 12.6.4 7.7 2.8 14.9 5.2 22 0 .4.4.9.6.9.6 0 .5-.7.5-1.1-.5-4.2-.5-8.3-.6-12.5-.2-4-.7-7.9-1-11.4Zm-264 .8c-.8-4.2-.9-8.4-1.4-12.6-.6-6-1.3-12-3.3-17.5-1.8-5.2-3.1-10.5-5.4-15.5-.4-1-.7-3-1.6-2.7-1.4.4-.5 2-.4 3.2.5 8.2 2.9 16.1 3.7 24.3.8 7 4.3 12.9 6.2 19.4.2.6.7 1.2 1 1.7.3.4.5 1 1 1 .5-.2.2-.9.2-1.3Zm264.1 142.2c3.2-.1 5.1-1.8 4.3-4.1-2-5.9-3-12-4.4-18-.7-2.7-2.1-4.5-5-5.2-1-.2-2.3-1.4-3.4-.3-1 1-.5 2.5-.3 3.8 0 .5.3 1 .4 1.4l2.3 8.5 3.2 11.5c.4 1.5 1.2 2.5 3 2.4Zm-187.3-37.4c-.1-2.1-1.3-3.5-2.6-4.7-1.2-1-2-.6-2.4.6l-1.6 4.6c-3.3 6.8-5.8 14-8.6 21-.9 2-.5 3.6.9 5.2 2 2 3.6 1.8 4.5-1 2.2-6.5 4.6-13 7.8-19.1 1-2.1 1.4-4.5 2-6.6Zm8.7 14.2a15 15 0 0 0-3.7-8c-2-2.2-3.2-2-4.3.8-1.4 3.5-2.4 7.1-4 10.6-1.5 3.5-2.3 7.3-4 10.8-.2.7-.4 1.3.2 1.8.7.6 1.4.3 2.2 0 4.5-1.9 8.2-5 10.8-9.2 1.2-2 2.6-4.2 2.8-6.8Zm-3.5-149.7c0 .6-.4 1.4.5 1.7.6.2 1-.3 1.5-.7a8.3 8.3 0 0 0 2-4.2c3-16 5.8-32 10-47.8.5-1.7 1-3.5.7-5.3 0-.7-.5-1.4-1.3-.8-1.4 1.3-3 2.4-3 4.6 0 2-.6 4-1.1 5.8-.7 2.8-1.6 5.5-2.1 8.3-1.4 7.6-2.8 15.2-4.5 22.8-1.1 5.2-2.4 10.3-2.7 15.6Zm198 84.5-.3-1.6c-1.4-5-1.6-10.2-2.5-15.3a144 144 0 0 0-8-30.7c-.2-.4-.2-1.2-.7-1.1-.8 0-.4.8-.4 1.3l.1 2.3c.8 7.4 1.3 14.9 2 22.3a57 57 0 0 0 7.8 23.5c.3.5.7 1.3 1.5 1 .6-.3.4-1 .5-1.7ZM105 355.3c0 1.4.5 2.2 2.3 3.6 2.2 1.8 3 1.8 4-.9 1.5-4.4 3.7-8.6 5.4-13 1.3-3.5 3.3-6.6 4.4-10.2 1.5-4.7 1.6-4.8-3.2-6.2l-.5-.2c-1.2-.5-1.8 0-2.2 1-.5 1.8-.8 3.6-1.6 5.2-3 6-4.8 12.4-7.9 18.2-.4.8-.7 1.6-.7 2.5Zm62.1-99.7c-.1-3.2.2-5.5-1-7.6-.3-.5-.5-1.1-1.2-1-.7 0-.7.8-.8 1.3-1 5-2.2 9.8-3 14.7-2.1 10.8-4.4 21.5-6.8 32.2-.3 1.8-.7 3.5-.6 5.3 0 .6.1 1.3.7 1.4.8.2 1-.4 1.2-1l.5-1.3c2.5-8.2 5.4-16.3 7.6-24.6 1.7-6.7 2.2-13.6 3.4-19.4Zm27-166.8c-1 0-1.6.8-2 1.6L185 102c-.6 1-1 2-.9 3.2.5 3.8 2.1 7 4 10.2.8 1.2 1.6.9 2.2-.2l.7-1.6 8.2-16.8c1.4-3-1.6-8-5-8Zm130.5 233.6c.1 2.8 1.6 6.3 1.8 8 1 5.3 1.8 10.6 2.7 16 .9 5.8 1 5.8 6.6 7.7 3 1 3.3.7 3-2.3-.5-4.8-2.2-9.2-3.2-13.8a39.6 39.6 0 0 0-7.2-16.8c-.6-.7-1.3-3-2.7-2-.9.7-1.1 1.8-1 3.2Zm-117.2-247c.7 3 1.6 6.2 2.2 9.3.4 2 1.3 2.7 3.3 2.7 2.8 0 5.7.4 8 2.3.6.5 1.4.8 2.1.3 1-.6.8-1.5.5-2.3-.7-2.9-1-5.8-1.6-8.7-.9-3.7-1.7-7.4-3-11-.4-1.1-1-2.3-2.4-1-2.5 2.3-5.5 4-8 6.1-.8.6-1.3 1.3-1.1 2.4ZM97.6 276.9l-1-4.6-3.8-18.6a5.6 5.6 0 0 0-2.7-3.9c-1.6-1-3.4-2-4.5-3.8-.3-.6-1-1.6-2-1-.8.4-.5 1.4-.5 2.3v.5l2.1 8.6c1.2 5 2.3 10.1 2.9 15.3.6 5.6 3 6.2 7.9 7.2 1.2.3 1.8-.4 1.6-2Zm156.7 106.1c.1-1 .1-1.7-.2-2.2a44 44 0 0 0-6-8c-1-1-2-.7-2.5.8-.6 1.3-1 2.7-1.4 4l-5 13c-.8 2.4-.5 3.7 1 4.5l6.4 3c1.6 1 3 .4 3.4-1.3.7-3.2 2.1-6 3.1-9.1.5-1.7 1-3.3 1.2-4.7Zm-75.4 1.7c0-1-.5-2.1-1-3.3-1-2.1-2-4.3-2.8-6.5-1.6-4.3-2.9-8.8-5-13-.3-.5-.5-1.2-1.3-1.3-.8 0-1 .7-1.3 1.3-1.3 2.8-2.4 5.8-3.9 8.5s-1 5 .8 7.3c.8 1 1.8 2 2.4 3.2 1.6 3.2 4.4 5.6 6 8.9.3.8 1 1.3 2 .9 1.7-.6 4.1-4 4.1-6ZM84.2 269l-.5-3.6c-1.8-7.8-3.6-15.5-4.5-23.4-.4-3.3-1.7-6.2-3.8-8.7-1.5-2-3-3.9-4.1-6-.2-.5-.4-1.1-1-1-.5.1-.3.8-.3 1.2.4 3.9.5 7.7 1.5 11.5.7 2.9 1.3 5.7 1.6 8.6a90 90 0 0 0 2.6 13.4c1.1 4.4 4.6 6.8 7.5 9.8.6.6 1.2.4 1.2-.7l-.2-1Zm124-224.3-7 1.1c-1.3.2-1.9 1-1.6 2.4 0 .7.3 1.3.4 2 1.4 5.4 3.7 10.7 5 16.2.7 3 2.2 3.5 4.7 1.6 2-1.4 4-3 5.8-4.5 1.8-1.5 2-2.3 1-4.5l-5.2-12.2c-.6-1.4-1.4-2.2-3-2Zm34.5 64.5c0-1-.5-1.8-.9-2.7l-4.5-9.8c-2.2-5-2.2-5-7.2-2.7l-.6.2c-2 1-2.9 2.6-2.5 4.8 1.1 6.8 3.2 13.3 4.8 19.9.5 2.4 1.3 2.5 3.3.9 2.5-2.2 4.1-5.2 6.6-7.4.8-.8 1-2 1-3.2ZM220.8 297c-.5-3.2-1.2-6.4-1.6-9.6-.8-6-1.4-12.2-2.7-18.2a12 12 0 0 0-.8-2.4c-.5-.9-1-.8-1.4 0-.6 1.3-.8 2.7-1.4 4-3 6.3-5.2 12.7-1.3 19.5.3.5.4 1 .5 1.6 2 6.7 5 13 7.3 19.7.2.8.5 1.9 1.5 1.8 1.2-.2 1.2-1.3 1.3-2.3.2-4.8-.5-9.5-1.4-14.1Zm-62.7 76-.6-2c-2.4-6.1-5-12.2-7-18.6L148 345c-.2-.7-.4-1.4-1.2-1.5-.8 0-1 .7-1.2 1.4-1 2.5-1.9 5.1-2.7 7.7a11 11 0 0 0 .5 7.8c2 5 4 9.8 5.8 14.8.6 1.6 1.4 3.1 2.2 4.6 1 1.8 2 1.8 3.1 0l3.1-4.7c.4-.6.6-1.2.6-2.1Zm-13.5-170.8c1.6 0 2.4-.9 2.5-2.4.3-6.2 2.2-12.1 3.3-18.1 2.5-12.7 4.4-25.6 7-38.2.5-1.8-.2-3-1.5-3-1.6-.2-2.3.9-2.4 2.2-.1 1.6-.3 3.2-.7 4.8l-5 19.8c-.4 1.8-1 3.7-.9 5.6.2 2.3-.2 4.5-1 6.7-2.2 6.2-2.4 13-4 19.4-.6 2.3.3 3.2 2.7 3.2Zm76.9 178c-.1-1.4-.6-2.6-1.4-3.7-2-2.6-3.3-5.5-4.9-8.3a31 31 0 0 0-1.6-2.7c-.4-.5-.8-1.1-1.6-1-.7.2-.8 1-1 1.6l-5 17.2c-.5 1.7-.4 3.3.5 5 1.2 2.2 2.4 4.4 4.3 6.2 2.1 2 3 1.9 4.5-.7 2-3.3 3.7-6.8 5.3-10.3a9 9 0 0 0 .9-3.4Zm78.5-210-.5-6.2c-1-8.7-.9-17.4-2.8-26-1.4-6.2-3.5-12-8.3-16.4-.4-.5-.8-1.2-1.6-.9-.8.4-.6 1.1-.4 1.7 1 3.9 1.3 7.9 1.9 11.8 1 6.2 2.3 12.3 3.6 18.4.7 3.6.7 7.5 2.4 11 1.2 2.4 2.7 4.6 3.5 7.1.3.8.8 2 1.9 1.8.7-.2.2-1.5.3-2.3ZM201 387c0-.8-.2-1.5-.6-2.2-2.9-4.8-5-9.9-7.7-14.8-.6-1.1-1-2.8-2.5-2.7-1.6 0-1.8 1.8-2.3 3-1.7 4-2.3 8.3-4.5 12.2-1 1.8-.2 3.7 1.3 5.1 2 1.9 3.7 4 5.5 6.1.7.8 1.4 1.6 2.2 2.1 1.3 1 2.8 1 3.8-.3 1.6-2.2 3-4.4 4.4-6.6.4-.6.5-1.3.5-2Zm82.5-1.8-.4-3-4.6-22c0-.3 0-.7-.2-1-.6-1.3-1.6-1.7-2.5-.8-2.4 2.5-5.5 4.3-7.4 7.4a6 6 0 0 0-.5 5c1.4 5 3.5 9.6 4 14.8.4 2.4 2.3 3.6 4.8 3.3 2-.2 3.8-1 5.7-1.7.9-.3 1.2-1 1.1-2ZM182 205.2c.5-5.4-2.5-10.6-3.7-15.8-.3-1.2-.1-3.3-1.6-3.2-1.2.1-1.3 2.2-1.5 3.5-1.4 8.4-3.7 16.6-5 25-.8 6-1.5 12.1-2.7 18.1-.6 3.1.2 5.6 1.4 8.2.2.4.4 1 .9 1 .5-.1.5-.8.6-1.2.4-1.5.9-2.9 1.2-4.4 1.3-5.9 3-11.6 4.8-17.4.8-2.4 1.5-4.4 2.9-6.5 1.4-2.1 2.4-4.7 2.7-7.3Zm117 142-2.5.1c-2.3.3-2.8.8-2.6 3.1.2 1.6.4 3.2.8 4.8l5.5 22.8c.5 2.2 1.5 2.9 3.6 2.3 1.7-.4 3.3-1 4.9-1.6 2.4-1 2.7-1.6 2-4.2-1.2-3.6-2.3-7.2-3.2-10.8-1.1-4.4-1.9-9-2.8-13.3-.7-3-1.2-3.4-4.3-3.3H299Zm-164.8-70.8c.1-1.6-.6-2.4-1.9-2.6-1.7-.3-3.3-1.8-5-.4-.4.3-.5 1-.6 1.6l-.7 4.5c-2 13.5-5.3 26.7-7.7 40.1-.8 4 .5 4.4 3.1 6 1.7.9 2.6.5 2.8-1.4.5-5.3 1.8-10.4 3-15.6 1.8-8.2 3-16.6 5.4-24.7.7-2.5 1-5.1 1.6-7.5Zm163.2 103.2-.2-1c-2.2-8-4-16-5.5-24-.2-1.3-.6-2.5-1-3.6-.4-1.2-1.3-1.8-2.4-1-1.7 1.2-3.6 1.8-5.3 2.7-1.4.7-1.9 1.7-1.7 3.2 1.1 9.2 3.7 18 4.9 27.1.2 1.3 1 2.2 2.4 1.7 2.5-.8 5-1.5 7.5-2.7.9-.5 1.4-1.2 1.3-2.4Zm-154.6-93.8c.4-3-1.6-5.2-3.7-7.3-1.4-1.4-2.1-1.2-2.6.8-1.5 7.3-3.4 14.5-4.9 21.8-1.6 8.2-3.1 16.4-5 24.5-.6 2.6.6 4.4 2.2 6 1.2 1.2 2 1 2.6-.8 1.1-3.8 2.3-7.6 3.2-11.5 2-9.1 4.2-18.2 6.9-27.1.6-2 1.4-4 1.3-6.4Zm-4-17.5c-.2 4 1.2 6 3 8 1.3 1.2 2 1 2.7-.8.5-1.7.9-3.5 1-5.3.5-13.2 3.4-26.2 5-39.4.4-4.1 1.5-8.1 2.3-12.2.6-2.7.3-5.3-1.6-7.5-1.2-1.5-2.5-1.2-3 .7-.2.5-.2 1.1-.2 1.7-.9 5.7-1.3 11.5-2.3 17.1-1.7 8.7-3.2 17.5-5 26.2-.8 4.2-1.3 8.4-1.8 11.5Zm40.4-162.5c.3-3.4-2.1-5.3-4.3-7.2-.7-.7-1.6-.3-2 .6-.4.7-.6 1.4-.8 2.1-1.8 7.2-4 14.2-6 21.3-1.3 4.1-2.4 8.3-3.8 12.5a6.5 6.5 0 0 0 1 6.4l2.4 2.8c1.8 1.8 2.6 1.7 3.2-.8.9-3.5 2.2-6.8 3.2-10.3 1.9-6.8 3.4-13.7 5.8-20.4.7-2.3 1.1-4.6 1.3-7Zm142.8 212c.2-1.5 0-3.6-.8-5.7-1.6-4.7-5.2-7.6-9-10.2-1-.5-1.6-.3-1.6.8 0 .8.1 1.7.3 2.5l2 11c1.4 9.3 3 18.7 4.2 28.2.4 2.8 1.7 4 4.2 4.5l3.6.7c1.5.4 2-.3 1.6-1.7l-.6-3c-1.7-8.8-3.2-17.5-3.9-27ZM150 202.1c.1.7.1 2 .5 3 .4 1.4 1.5 2.6 3 2.6 1.3 0 1.2-1.7 1.6-2.7v-.3l5.4-24c1.6-7.8 3.6-15.5 5.2-23.3 1-4.8-.5-8.3-3.8-11.5-1.1-1.1-1.5-.6-1.7.6l-1.3 5.9c-1.4 5.8-2.4 11.8-3.1 17.8-.8 6.2-2.2 12.3-3.4 18.4-.8 4.4-2.2 8.6-2.4 13.5Zm94 166.2-.6-2.1a60.2 60.2 0 0 0-8.7-14.2c-.5-.6-1-.5-1.3.1l-.5 1.3c-2.6 8-5 16.1-6.7 24.3-.3 1.3-.2 2.5.6 3.5 2 2.4 3.8 5 6 7.2 2.3 2.3 3.6 2 4.5-1 1.8-6 3.9-11.9 6.3-17.6l.4-1.5Zm-6-304c-.1-.9-.1-1.8-.4-2.6-1.3-3.3-2.8-6.6-4-10-.6-1.8-1.8-2-3.2-.5-2.5 3-5 6-7.3 9-1.7 2.2-1.8 4.7-1.2 7.3 1.6 7 3.6 13.7 4.7 20.8.3 2.1 2 2.6 3.7 1 1.1-1 1.6-2.5 2-4 1.2-5.2 2.7-10.4 4.3-15.5.6-1.8 1-3.7 1.4-5.5Zm70.7 174-.3-1.8c-.8-6.2-1.4-12.4-2-18.6-1-8.1-.7-16.4-2.9-24.4a89.8 89.8 0 0 0-6.1-16.4c-.4-.8-.8-2-1.7-1.7-1.1.3-.7 1.6-.6 2.5l.5 5.3c.4 6.2.8 12.5 1.6 18.6.8 7 2 14 2.3 20.9.2 6.7 3.3 11.8 7.4 16.6.4.4 1 .8 1.5.5.4-.3.3-.9.3-1.6ZM289 154.8l-.2-1.2c-.7-3-1.5-5.9-1.8-8.9-.9-9.2-3.1-18.2-4.2-27.4-.2-1.5-.7-3-1-4.4a5.9 5.9 0 0 0-3-3.7c-1.8-.9-3.7-1.5-5.4-2.6-1.1-.8-1.7 0-1.7 1.2l.2 1.7c.3 8.5 3.9 16.5 4.6 25 .3 3.6 1.4 7.2 1.5 11 .1 2 .8 4.1 2.5 5.5 2.2 1.7 4.6 3.3 7 4.8.9.7 1.6.6 1.5-1Zm-143.6 53.9c0-1.6-.4-2.7-1.8-3.1-1.5-.5-3.1.2-4 1.6-.6 1.2-.7 2.5-.9 3.8-.4 3.2-.5 6.4-1.3 9.5-2.1 8.2-3 16.6-4.8 24.8-1.5 7-2.2 14.4-4 21.4-.4 1.5 0 2.5 1.7 3 4.3 1.2 5.1.8 5.8-3.7l.2-1.1c.9-4.5 1-9 2.1-13.4 1.2-5 1.9-10 2.7-15 1.6-8.9 2.3-17.9 4.1-26.6l.2-1.2Zm4 92.5c0-3.9-1.9-6.8-3.2-10-.4-1-1.3-1-1.8.1-.6 1.5-1.2 3-1.6 4.6-2.9 12.8-6 25.6-9.2 38.3-.4 1.4-.5 2.8.1 4.2 1.1 2.5 3 4.6 4.5 6.8 1 1.4 2.2 1.1 2.5-.7.4-2.8 1.6-5.4 2.1-8.2l4.6-23.1c.8-4.1 1.4-8.2 2-12Zm97.6-187.6 1.4 8.4c1.6 8.4 4 16.8 4.7 25.4.2 2 .7 4 1.2 6 .4 2 1.5 2.4 3 1.2l2.9-2.4a5.6 5.6 0 0 0 2.2-5.5l-1.4-9.5c-1-6.8-2.4-13.6-3-20.5-.3-3.1-.8-6.2-1.7-9.2-.6-1.9-1.3-2.1-2.9-1-1 .9-2.1 1.6-3.3 2.1-2.2 1-3.2 2.6-3.1 5Zm45.8 181.5c0-2.2-.2-3-.8-3.4a10 10 0 0 0-5 0c-1.2 1-1 2.3-.8 3.5 1 7 1.7 14 2.5 21 .5 4.6 1.7 9 2 13.6.1 3.7 1 7.5 1.2 11.3.1 2.8.7 3.2 3.5 3l4-.5c2.8-.3 3.3-.9 3-3.6-.6-5.3-2.3-10.3-3.3-15.5-1.2-6.1-3-12.1-4.2-18.3-.8-3.7-2.2-7.2-2.1-11ZM187 125c0-5.4-2.6-8.9-4.5-12.6-.4-.8-1.3-.7-1.5.2-.6 2.9-2.2 5.4-2.7 8.3-.6 3.7-1.8 7.1-2.8 10.7l-4.9 17.2c-.6 2.3-.8 4.7.4 6.9 1.2 2.2 2 4.5 2.8 6.8l1.3 2.8c.2.5.6 1 1.3 1 .9 0 1-.8 1-1.4 1-3.9 1.8-7.8 2.6-11.6 1.4-6.2 2.6-12.4 4.8-18.4 1.3-3.4 1.6-7.1 2.2-9.9Zm77.1-21.4h-.8c-3.9 0-4.4.5-4 4.2.4 2.8 1.3 5.4 1.5 8.1.7 10 3.3 19.8 4.3 29.8.2 2 1.2 3 3.3 3 1.7 0 3.4 0 5.1.3 1.5.2 2.2-.4 2-2l-.9-6-3.8-21.8c-.7-4.4-1.5-8.7-2.1-13.1-.3-1.9-1.3-2.7-3.1-2.5H264Zm-92.9 247.8c0 2.3 0 4.3.7 6.3 2.2 6.7 4.9 13.2 7.4 19.7.3.7.6 1.8 1.6 1.7.9 0 1-1.2 1.3-2 1.3-3.8 2.4-7.7 4-11.5a14 14 0 0 0-.2-11.5c-1.9-4.5-4-9-5.3-13.7-.8-2.9-2.3-5.4-3.4-8-.3-.6-.5-1.3-1.2-1.2-.6.2-.7.9-.8 1.4l-.4 1.4c-1.3 3.4-1.6 7.1-2.6 10.7-.7 2.3-1.4 4.5-1 6.7Zm125.5-56 .4 2c1 5 2.3 10 3 15 1.3 9.2 4 18 5 27.3.3 3 2.3 4.4 4.9 5.3l1.9.5c2.1.6 2.5.3 2.2-2l-2.4-15.1c-1.1-7-2.6-14-3.3-21-.2-2.7-.6-5.3-1.1-7.9-.4-2.1-1.3-4-3.6-4.7-1.6-.4-3-1-4.6-1.5-1.7-.7-2.4 0-2.4 2ZM213 118.6c.2 1.2.2 2.5.5 3.7 2.3 7.6 3.9 15.4 6.3 23 .2.5.2 1.4 1 1.4s1-.9 1.2-1.4c2.2-5 4.5-10 6.6-15.1 1.1-2.9 1.4-5.9.6-9-1-3.9-2.4-7.7-3-11.7a80 80 0 0 0-1.5-6.7c-.2-1 0-2.3-1.4-2.5-1-.2-1.4 1-2 1.8L217 109c-1.8 3-3.9 5.9-3.9 9.6Zm50 244.8c.4-3.6-1-8-1.5-11-.9-6.2-2.2-12.2-3-18.3-.4-3.7-1.3-7.3-2-10.9-.2-.6-.4-1.3-1.2-1.3-.7 0-1 .5-1.2 1-.8 2.2-2.3 4-3.1 6.1-1.2 2.9-2.9 5.8-2.4 9l1.3 10.3c.7 4.9 2 9.6 2.2 14.6 0 3.1 1 6.3 1.7 9.4.6 2.4 2 2.6 3.6.7l4.4-5.9c.8-1 1.1-2.3 1.3-3.7ZM209 116c0-1.7-.3-2.9-1-4-.5-1-1-2-1.3-3-.7-3.2-2.6-5.8-3.5-8.7-.2-.6-.5-1.3-1.4-1.3-.8 0-1 .7-1.3 1.3-2.8 6.8-6.7 13.2-9 20.2-1 3-1 5.8.3 8.6 1.9 4 3 8.1 4.3 12.3l1 2.9c.2.5.4 1.2 1.1 1.1.7 0 .9-.7 1-1.2l1.9-6 7.5-20.2.5-2Zm63.3-75.2c0-1.8-.1-3.3-.3-4.8-.7-6.2-2.2-12.3-3.3-18.4l-1.3-8.1c0-.5-.2-1.2-.9-1.3-.5 0-.7.5-.9 1-1 2.5-2.5 4.8-3.5 7.4-2.6 7-4.5 14.2-6.6 21.3-.6 1.8-.6 3.7.3 5.3 2.2 4.6 6.3 7.2 10.5 9.5 1.1.7 1.7 0 2.2-1 .7-1.4 1.2-3 2.1-4.2a8.6 8.6 0 0 0 1.7-6.7Zm46.4 259-.2-1.2-2.7-20c-1-6.4-1-13-2.5-19.4-1.4-6.1-2.6-12.2-7.8-16.6-1-.8-1.4-2.7-3-2-1.3.8-.5 2.5-.3 3.8l3.7 25.5 2.6 19.7c.6 5.4 4.4 8.3 8.4 11 1.2.9 1.8.5 1.8-.9Zm-152 52.6c.1-2.7-.4-5.4-1.6-8-.5-1-.8-2-1.1-3.1-2.5-7.2-4.5-14.5-7.2-21.5l-.8-1.9c-.5-.9-1.2-.9-1.8 0-.3.4-.5 1-.7 1.5l-4 12.7a12 12 0 0 0 0 7.2c2.6 8.5 6 16.7 9 25.2.2.7.4 1.4.8 2 .8 1.5 1.3 1.5 2 0 1.3-2.3 2.3-4.8 3.6-7 1.3-2.2 2-4.5 1.7-7Zm47 3c0 1.9.7 3.6 1.4 5.4 1.6 3.9 4 7.2 6 11 .4.8.6 2.3 1.8 2.2 1.4 0 1.3-1.6 1.5-2.6 1.9-7 3.5-14 5.6-20.8 1-3.3.8-6.4-.6-9.4L223 328l-1.7-3.3c-.2-.5-.5-1.1-1.2-1-.6 0-.7.7-.9 1.2l-.2 1.4-4.9 26.5-.3 2.5Zm-46.4-78.8.6 3.7a4775 4775 0 0 0 6.4 29c.2 1 .2 2.5 1.4 2.5s1.2-1.5 1.4-2.5l4.9-21c.5-2.3.4-4.4 0-6.7-.4-2.4-1.8-4.4-2.3-6.7-1.3-7.3-4.2-14.1-6.3-21.2-.2-.7-.3-1.7-1.3-1.6-.7.1-.7 1-.9 1.6-1.8 5.7-2.4 11.7-3.4 17.6-.3 1.6-.3 3.3-.5 5.3Zm42.7 81.9c0-1.5-.4-2.9-1-4.1-2.9-5.5-4.6-11.4-7-17.1-.7-1.5-1.4-3-2.2-4.3-.7-1.1-1.6-1-2.1.1-.5 1-.8 2-1 3-1.4 6-2.5 12-4.2 18-1 4-.8 7.7 1.1 11.2 2.6 4.8 5 9.5 7.4 14.4.3.6.5 1.5 1.2 1.5.9 0 1-1 1.3-1.6 2-5.8 4.2-11.5 5.9-17.5.3-1.1.4-2.4.6-3.6Zm76-130.7c-.1-1.7-.1-3.4-.4-5.1-.4-2.2-1.9-2.4-4-2.8l-1.3-.2c-2.7-.2-3.5.6-3.2 3.3l2.4 21.2 3.3 24.4c.7 5.3 1.5 10.5 2 15.8 0 1.6.5 3 2.4 3.4 3.4.8 5.2-.7 4.8-4.4l-2.6-22.8a18933.8 18933.8 0 0 1-3.5-32.8Zm10.3-5.2c-1-5.6-.9-11.3-1.6-16.9-1.2-9.4-2.5-18.9-2.7-28.5 0-3.4-.3-6.8-.6-10.1-.2-2.3-.8-4.5-2.8-5.7-1.9-1-3.7-2.3-5.6-3.4-.8-.4-1.6-1.1-2.6-.3-.7.6-.3 1.5-.2 2.4a276 276 0 0 1 3.4 23.2c.8 7.7 1.9 15.5 3 23.3.5 3.3.4 7.4 1.6 10.6 1.2 2.8 3.6 4.8 6 6.6.4.4 1 .7 1.6.3.6-.3.5-.9.5-1.5Zm2.1 17.2v-2c.8-5.6-2.4-8.7-6.6-11.3-1.8-1-2.5-.7-2.5 1.3 0 3-.4 6 .3 8.8 1.9 6.8 1.5 13.9 2.6 20.8 1.5 9.3 2.1 18.8 2.8 28.2a3 3 0 0 0 1.7 2.7c1.7 1 3.5 1.4 5.3 2 2.7.8 3.7 0 3.3-2.7-1.6-11-3.4-21.8-4.8-32.8-.6-5-2.8-9.9-2-15Zm-124.3 83.5-.5-4.5c-.5-4.1-1.8-8.1-2.7-12.2-1.7-6.8-2.8-13.7-5.4-20.2-.2-.5-.3-1.3-1-1.2-.4 0-.5.6-.7 1-2 6-4 12.1-5.7 18.2-.8 3-.6 6 .1 9 1.3 5.5 3.4 10.8 4.9 16.3 1.1 4.4 2.8 8.6 4.2 13 .2.6.3 1.7 1.3 1.6.7-.1.7-1 .8-1.7l3.7-13.7c.6-1.8 1-3.7 1-5.6ZM147 280.7c0 3.4 1.3 7.9 3.3 11 .3.4.5 1.1 1.2 1 .5-.2.5-1 .7-1.5l5.3-24.6c1.7-7.9 3-15.8 5.2-23.6 1-3.3.8-6.4-.3-9.7-1.3-3.5-3.3-6.6-5-9.8-.4-.6-.8-1.2-1.6-1-1 .1-1 1-1 1.7-1.3 7.6-2 15.2-3.2 22.7-1.7 10.3-2.9 20.6-4.3 31l-.3 2.8ZM195.5 154c0-2-.2-4-.9-5.9a76.6 76.6 0 0 1-2.8-10c-.3-1.7-1-3.3-1.6-5-.2-.4-.5-1-1.1-1-.7 0-1 .6-1 1.1-.6 1.8-1 3.7-1.5 5.5l-5 21.6c-.9 3.8-1.3 7.8-2.8 11.6v1.4c.5 7.6 2.2 15 4.5 22.2 0 .4.2 1 .7 1 .6 0 .6-.7.8-1L188 184c2.5-8.6 4.6-17.2 6.9-25.8.4-1.4.7-2.7.6-4.2ZM157 212c0 2-.2 4 .8 5.5 2 2.9 3.2 6.2 4.7 9.3.4.6.6 1.6 1.5 1.6 1-.1.8-1.2.9-1.9l5.2-30.7c1-6 2.5-12 4.6-17.8.8-2 .7-4 .1-6-.8-3-2.3-5.7-3.7-8.3-.6-1.1-.7-3.2-2-3-1.3.2-1.2 2.2-1.7 3.4-2.3 6.7-2.7 13.9-4.8 20.7-2.1 7.2-3.2 14.7-4.9 22.1a19 19 0 0 0-.7 5.1Zm132 129.4c-.1-6.2-1.2-12.4-2.1-18.5-1.1-8-2.6-16-3.4-24.2 0-1.4-.4-2.8-.7-4.2-.3-1.6-1.4-2-3-1.6-1.8.6-3.6 1-5.4 1.7-2.2.8-2.7 1.5-2.3 3.8 1 5.5 1.5 11 2.4 16.6 1.6 8.7 3.2 17.4 4 26.3l.8 6.2c.3 1.4 1.2 2.3 2.6 1.8 2.2-.7 4.2-1.8 6-3 .8-.5 1-1.4 1-2.3v-2.6Zm-115-100c0 1.5 0 3 .6 4.4 2.8 7.9 4.3 16.1 7 24l1.5 4.3c.2.4.4 1 .9 1 .5-.1.6-.7.7-1.2l.4-1c2-8.6 4.1-17.2 7.1-25.5.6-1.6.5-3.1-.6-4.5-1.4-2-2-4.2-2.6-6.5a47.4 47.4 0 0 0-6-15.6c-.6-.9-1-2.5-2.1-2.4-1.4.1-1.6 1.8-1.9 2.9l-4.7 17-.3 3Zm92.9-85.8c0 3.2.8 7 1.4 10.7.9 6.1 2.4 12.2 3.3 18.4l3.7 26.4c.6 4.1 1 4.6 5 5.1 3.6.5 4.4-.3 4-4-.9-6-1.8-12-2.4-18-.7-6.4-1.3-13-2.4-19.4-.8-5-1.6-10-2-15.2-.7-6.5-1-6.9-7.7-7.4-2.9-.3-3.1 0-3 3.4ZM200 321.3c0 2 .4 3.8 1 5.6 2.4 7.3 5.5 14.3 8.5 21.3.2.6.4 1.4 1.2 1.5 1 0 1-1 1.2-1.7l2.2-12.3c.9-4.4.8-8.9 2.2-13.2 1-3.2 1-6.3-.1-9.4l-7.7-21.1-.5-1.3c-.3-.5-.4-1.2-1.1-1.1-.5 0-.6.7-.7 1.1l-2 8.3c-1.8 6.5-1.7 13.4-4 19.8-.2.7-.1 1.7-.2 2.5Zm-4 3c.1-2.9-.7-5.7-2-8.6a65.7 65.7 0 0 1-3.4-8.7c-1.4-4.6-3.4-9-5.3-13.4-.2-.4-.4-1-1-1-.5 0-.6.6-.7 1l-.4 1.4c-1 5.6-2.6 11-4 16.5-1.6 6.7-2.2 13.2 1.3 19.6.4.8.5 1.8.9 2.7l6 16.2c.3.7.5 1.9 1.5 1.8 1 0 1-1.3 1-2 1.3-6 3-11.8 5-17.5.8-2.5 1.4-5.1 1-8Zm76.7-111c-.5-2.6-1.2-5.6-1.6-8.6L269 189l-3.2-20.5c-.7-4-1-8-1.5-12-.2-1.8-.9-2-2.3-1.4a10 10 0 0 0-6 11.4l1 7.3c.7 3.6.2 7.2.8 10.7 1.3 7.5 1.5 15.1 2.7 22.6.6 3.6.7 7.3 1.2 11 .5 3.8 1.5 4.3 4.6 2 1.3-.8 2.4-1.8 3.9-2.4 2.1-.7 2.6-1.7 2.6-4.5Zm4.4 137.7c-.7-3.7-1-7.3-1.7-11l-6.2-36.9c-.1-.6-.1-1.5-.8-1.7-.9-.3-1.3.5-1.8 1.1-2.2 3.2-4.5 6.3-6.6 9.6-.7 1-1.5 2.4-1.6 3.6-.2 1.7.6 3.9.9 5.5L261 332l2.4 14 1.1 7.2c.3 2 1 4.2 1 6.3 0 1.7 1.1 2 2.3 1 2.5-2.4 5.2-4.4 7.9-6.6 1-.7 1.4-1.7 1.4-3Zm-79.8-107c0 1.9 0 3.9.7 5.8l6.8 20.2c.4 1.2.7 2.5 1.3 3.7.5 1.2 1.4 1.2 2.1.1l1-2 3.1-8c1.8-4.4 3-9 2.1-13.8a620.8 620.8 0 0 0-7.6-36.3c-.3-1.1 0-3-1.4-3-1 0-1.1 2-1.4 3l-6.3 25.7a19 19 0 0 0-.4 4.5Zm2.2-87.5c0 2.9.6 6.1 1.7 9.3.7 2 1.1 4 1.5 6 .8 5 1.9 9.8 2.9 14.7.1.6.1 1.5 1 1.5.8 0 .9-.9 1-1.5 2.6-8.6 6-17 9-25.4 1.2-3.9 1.4-7.8.5-11.8-1.6-7.3-4-14.3-6.1-21.5-.3-1-.3-2.5-1.2-2.5-.9 0-1 1.6-1.4 2.5-3.2 7-5 14.5-8 21.5-.8 2.1-1 4.4-.9 7.2Zm34-25.5.6 3c.9 5.1 2.2 10.2 2.7 15.3.7 7.9 2.8 15.5 4 23.2 0 .6.1 1.4.9 1.6 1 .3 1.3-.5 1.7-1.1 1.9-2.9 4-5.6 6.2-8.2a10 10 0 0 0 2.3-9c-1.2-6.6-2.6-13.3-3.5-20-.8-6.3-2.6-12.4-4-18.6-.4-1.8-1-2-2.4-.5a67.6 67.6 0 0 0-6.4 7.5c-1.4 2-1.8 4.1-2 6.8Zm-29 149.4c0-1.8-.4-3.6-.8-5.3-.7-2.7-1.9-5.2-2.8-7.7-1.8-4.6-3.3-9.3-5-14-.2-.6-.4-1.5-1.4-1.5-.7 0-.9.9-1.1 1.5l-2.3 7.3c-1.6 4.7-2 9.6-3.5 14.3a24.5 24.5 0 0 0 .2 15.8c2.4 7.3 5.5 14.4 8 21.6l.9 1.5c.7 1 1.4.8 1.8-.3.2-.4.2-1 .3-1.4l3-15.9c1-5.3 2.4-10.5 2.7-15.9Zm21.2 34.3 1.6 12.4c1 6.8 4.5 12.6 7.5 18.5 1.2 2.3 2.8 2.1 4-.1 1.1-2 2.3-4.1 3.6-6 1.7-2.5 2.2-5.3 1.6-8.2-.7-3.6-1.5-7.2-2.1-10.9-1.8-10.9-4-21.7-6.7-32.4-.2-.6 0-1.6-1-1.5-.5 0-.6.8-.8 1.3-2.6 5.7-3.8 11.9-6.1 17.7-1.2 2.9-1.2 6-1.6 9.2Zm13-136.6c-.5-2.7-.6-6.4-1.5-10-1.9-7.9-3-15.9-4.4-23.9l-1.4-8.6c-.1-.5-.2-1-.8-1-.4 0-.6.3-.8.6l-.5 1c-2.3 5-4.2 10-6.1 15-1.7 4.3-2 8.6-1.3 13 1 5.4 1.8 10.9 2.5 16.3.8 7.1 1.9 14.2 2.4 21.4 0 .6-.2 1.5.7 1.6.7 0 1-.7 1-1.2 2-6.1 5.5-11.5 8.5-17 1-2 1.9-4 1.7-7.2Zm-4.8 93c.1-1.3-.7-3.4-1-5.5-1.6-11.5-3.1-23-5.1-34.3-.3-1.7-.7-3.3-1.2-5 0-.2-.2-.5-.4-.6-.5-.2-.6.3-.7.6l-1 2c-1.4 5.2-3.7 10.2-4 15.7 0 1-.3 2-.6 3a44 44 0 0 0-.7 19.1c.7 5.7 2.1 11.4 2.7 17.1l1 10.5.9 6.2c0 .4.3 1 .8 1 .3-.1.6-.5.8-.8.3-.4.4-.9.6-1.3 2.5-4.9 4.1-10.1 5.7-15.4 1.2-3.7 2-7.5 2.2-12.3Zm24.7-51.8c.4-4.4-1.3-9-1.7-13.8-.6-7.6-2.3-15-2.4-22.6 0-4.5-.6-8.9-1.2-13.3 0-.6-.2-1.3-.4-2-.3-1-1-1-1.7-.3-.4.3-.9.8-1.1 1.3-1.7 3.1-4 6-6 9-1.2 2-1.8 4.2-1.8 6.7 0 2.9.8 5.6 1.1 8.4.6 4.3.7 8.5 1.5 12.7 1.2 6.7 2.2 13.5 2.7 20.3.3 4.3 1.7 8.5 1.4 13-.1.5 0 1.1.7 1.3.8.3 1.2-.3 1.6-.8l.7-1.2c2-3.5 3.7-7.1 6-10.4.7-1.2 1-2.5.9-3.8l-.3-4.5Zm-34-7.1c.6-4.4-.7-8.6-1.2-12.8-1-8.7-2-17.4-3.4-26.1l-.9-5.6c0-.2-.3-.6-.5-.6l-.6.4-.5 1c-1.8 6.3-5.1 12.2-6.2 18.8-.2 1.2-.8 2.3-1.3 3.4-.7 1.6-1.2 3.2-1.5 4.9-1.1 5.2-.2 10.4 1 15.4l3 15c.8 5 2 9.8 3.3 14.7.1.5 0 1.3.8 1.2.5 0 .5-.7.6-1.2 1.3-5.8 3-11.5 5.2-17 1.4-3.8 2.5-7.6 2.2-11.5Zm13 67.6c1 6.1 2 13 3.5 19.7.9 4 1.6 8.2 2.2 12.3a650 650 0 0 0 2.3 14.5c.1.9.1 2 1.1 2.1 1.2.3 1.6-.8 2-1.6 1.8-3.6 3.7-7.2 5.3-11 .7-1.6 1.1-3.4.7-5.2-2.6-11.5-2-23.4-3.7-35-.6-4.8-.7-9.6-1.6-14.4l-1-5c-.2-.5-.5-1.1-1.1-1.2-.7 0-1 .6-1.1 1.1-1.4 3.6-3.3 6.8-4.9 10.3-1.8 4-3.5 8.1-3.8 13.4Zm30.6 12.4c.1-2.7-.9-5.2-1.3-7.8-1.1-7.2-1.2-14.6-2.2-21.8-1-6.4-2.5-12.8-3-19.3-.1-2.7-.7-5.4-1.1-8.1-.2-.8-.3-1.7-1.1-2-1-.2-1.3.8-1.6 1.4-1.4 2.1-3 4.2-4.1 6.5a18.2 18.2 0 0 0-2.9 10.5c.7 6.4 1.6 12.8 2.4 19.1 1 7.5 2.1 15 2.3 22.6 0 4.1.8 8.1 1.3 12.1.1.7.2 1.4 1 1.7.8.2 1-.6 1.5-1l7.5-9.7c1-1.2 1.4-2.6 1.3-4.2Zm-64.2-94c-.4-2.3-.3-6.3-1.2-10.2-1.7-7.2-3.1-14.5-4.7-21.7-.2-.8-.2-2-1-2-1.3-.2-1.3 1.2-1.5 2-1 3.1-2 6.2-2.6 9.3-1.4 7.4-3.8 14.5-5.5 21.7a40.2 40.2 0 0 0-.8 18.6c1.2 5.3 2.6 10.6 4.3 15.9.6 1.7 1.4 3.3 2.2 4.9.1.4.4 1 1 .7.3 0 .4-.6.4-1 0-3.2 1.3-6.2 2-9.4 1-5.7 3-11.1 5-16.5 1.4-3.5 2.4-7 2.4-12.3Zm77.7 87.8-.5-4c-.8-7-1.2-14-2.5-21-1.6-9.2-2.3-18.4-3.7-27.6-.5-3.4-.6-7-1-10.4-.3-1.8-1-2.1-2.6-1.4-1.5.6-2.9 1.4-4.3 2.2-3.9 2-4.5 3.3-4 7.7l3.2 24.2c1 7 2.4 14.1 2.7 21.3.2 4.3 1.5 8.4 2 12.6.1 1.5 1.2 2.2 2.6 1.8 2.2-.6 4.5-1 6.4-2.4 1-.7 1.9-1.6 1.7-3Zm-34.6-40.3c0-.6 0-1.3-.2-2-1-6-2-12-2.5-18.2-1-10.8-2.3-21.6-4.2-32.3-.1-1.1 0-2.8-1-3-1.3-.4-1.7 1.4-2.2 2.4-3.8 6.7-6 14-8.2 21.4a9.6 9.6 0 0 0-.2 4.2l5.8 37.8c.5 3.2 1 6.3 1.7 9.5 0 .6.2 1.4 1 1.5.9 0 1-.8 1.2-1.4l8.1-17.1c.4-.9.7-1.8.7-2.8Zm-4.4 188c1.4.2 3.8-.9 6.2-2.1 9-5 18.3-9.5 27.7-13.8 12.8-6 25.3-12.6 38-18.5l37.4-17.9c14.7-7 29.2-14.5 44-21.3 7.8-3.7 15.5-7.4 23.4-11 5.5-2.6 11.1-5.1 16.5-8.1.3-.1.7-.3.7-.5 0-.4-.4-.5-.8-.6-3.3-1-6.4-2.4-9.5-3.7-2.6-1-5.4-2-8-2.8-9.2-2.7-18.4-5.6-27.3-8.9-2.6-1-5.3-1.7-8-2.3-1.3-.4-2.4 0-2.5 1.3-.4 3.6-2.9 6.2-4 9.4-.6 2.2-2 4-3.5 5.8-2 2.4-3.7 5-5 7.9-.8 2.1-2 4-3.5 5.8-2 2.4-4 4.9-6.3 7.2a44 44 0 0 1-12.8 10.2c-6.1 3-12.1 6.1-18.2 9.3-2.8 1.4-5.7 2.9-8.4 4.5-3 1.7-5.9 3.8-9.3 4.8-4.8 1.4-9.8 2.3-14.7 3.5-2.9.7-5.8 1.6-8.8 2-7.1 1.2-13.7 4-20.6 6.2-7.3 2.5-14.9 5-22.3 0-.9-.6-2-.8-2.8-1.3-2.7-1.7-5.2-1.6-7.4.8-2.8 2.9-6.2 3.6-10 3.2a76 76 0 0 1-5-.7c-3.6-.7-7.3-.8-11-.6-6.8.3-13.6.6-20-2.6-1.1-.6-2.3-1-3.5-1-5-.4-9.8-1.4-14.8-1.4-2.5 0-4.8-.8-6.9-2.2-2.3-1.6-4.8-3-7.2-4.5-2-1.4-4-1.5-6 .3-.9.8-2 1.4-3.3 1-5.7-1.3-11-3.8-15.5-7.3a54 54 0 0 0-14.4-8.3c-6.3-2.4-12-5.6-18.1-8.2-.6-.2-1-.5-1.4-1-2.8-3.3-5.8-6.5-8.1-10.2-2.3-3.4-5.3-6.1-7.5-9.6-3-5-7.3-9.2-9.3-14.8l-.8-1.8c-.5-1.3-1.4-1.8-2.7-1.3-2.2.8-4.5 1.4-6.5 2.8-3.1 2.1-6.5 4-10 5.2-6.7 2.3-12.7 6-19 9.1-6.2 3.3-12.8 6-19 9.2-1 .5-2.5.6-2.5 2 0 1.3 1.3 1.5 2.2 2 .3 0 .6.1.8.3 8 3.7 16.7 5 24.7 8.3 6.1 2.6 12.6 4.2 18.9 6.4 11 4 22 7.4 33.2 10.8 11.6 3.5 23 7.4 34.6 11.2 10.5 3.4 20.8 7.3 31.4 10.5 12 3.7 23.9 8 35.8 12 13.1 4.2 26.1 8.6 39.2 12.7 3.3 1 6.5 2.5 11.5 2.6ZM.5 188.5c-.2-18.2 0-36.4-.3-54.6-.2-19 .1-38.2.2-57.3 0-9 0-17.8-.2-26.7-.3-9.6-.2-19.2-.2-28.7C0 19.9-.3 18 1.5 18c1.7 0 1.7 2 1.7 3.2 2 61 .7 122.2.8 183.3v1.8c0 20.8.3 41.5.6 62.2.3 27 .2 54-.5 81v2.2c.3 2.4 1.1 3 3.4 2.1l1.3-.5c18.5-10 37.5-19 56.4-28.2 2-1 2.2-1.7 1.6-4-1.2-4.1-2.7-8.2-4.4-12.2-5-12.2-7.6-25-10.7-37.8-3.5-15-8-30-12.6-44.5-2.7-8.4-3.1-17.1-4-25.8-.6-6.7-1.4-13.5-2.4-20.2C29 157 21.9 133.7 18 110c-1.2-7.5-1.6-15.1-4.3-22.3-.3-.9-.4-1.8-.6-2.8-.1-.8-.1-1.8.9-2.1 1-.3 1.6.4 2 1.2 1.3 2.3 2.6 4.7 3.2 7.2.8 3.3 2.1 6.3 3.8 9.2 6 10.2 10.1 22.9 13.5 34.3 2.1 7.1 5.4 13.9 7.8 21 4.8 14.2 11.9 27.5 17 41.6 6.9 18.4 16.3 38 32.2 50.5 5 4 10.2 7.9 16.7 9.3 3.4.7 3.8.4 4.4-2.9 1.9-10.5 5.6-20.6 8-31 2.6-11.4 4.6-22.8 7.3-34 7-28.5 11.4-57.1 20-85.2 3.2-10.6 5.2-22 11-31.7a64.5 64.5 0 0 1 49-30.8c12.6-1 25.3.9 37.9 1.4 2.5.1 3-.3 4-2.7 3.6-10 5.2-20.3 10-29.8.8-1.4 1.2-3 1.7-4.5.5-1.9 1.1-3.7 2.4-5.1 1.2-1.4 2.4-1.1 2.9.6.3 1.1.3 2.3.5 3.4l5 27c.8 4.7 1.5 9.4 2 14 .4 4.7.8 9.5 1.8 14 1.3 5.4 5.3 10.5 7.9 15.3 3 5.7 5.8 11.6 8.1 17.7 3.6 9.7 5.6 20.2 8.7 30.1 2.5 8.2 4.2 16.5 6.4 24.7 6.2 24.2 11.4 48.8 18.5 72.7 2.6 8.8 5 17.8 6.7 27 1 5.6 2.5 11.2 4.4 16.7 1.1 3.3 3.7 5.4 6.5 7.3 1.5 1 2.6 2.4 3.8 3.6 4.7 4.7 9.7 8.9 16.8 9 7.2.3 13.8-1 18.9-6.7 4.8-5.3 8-12.3 10.1-19.1 3.1-9.9 6-20.4 8.8-30.6 8.6-31.5 17.8-63 28.2-94 .7-2 1.2-4 1.7-6l.8-2.2c.2-.5.7-.9 1.4-.8.7.2 1 .9.8 1.6-.3 1.6-.6 3.3-1.1 5-8.8 27.7-14.9 56-22.9 84-1.3 4.7-2.2 9.6-3.5 14.3-2.4 8.7-4.6 17.4-6.6 26.1-1.5 6.5-3.7 12.8-5 19.3-2.7 12.2-6.9 24-10.8 35.8-.6 1.7-1.1 3.5-2 5-1 1.8-.3 2.4 1.2 3l7.7 2.6 32.8 11.3 15 5.3c1 .3 2.5.5 2.6 1.9.1 1.4-1.2 2-2.2 2.6-24.5 14.3-51.2 25-76.7 37.3-27.7 13.3-55.2 26.8-83 40.1-11.9 5.8-24.1 13.6-36.7 17.5-2.7.9-5.2 1-7.9 0-2.8-.8-5.7-1.7-8.5-2.7l-9.9-3.3c-16.6-6.3-33.7-10.8-50.4-16.6-32.5-11.4-65.2-23-98.3-32.7-17.2-5-34.2-11-51.3-16.5-1.9-.6-3.7-1.4-5.5-2.2-2.6-1-5-2-8-2-3.4-.1-4.8-1.5-4.9-5.2A459 459 0 0 1 .5 342V188.5Z" fill="#5CDEB3" mask="url(#b)"/></g></svg>