<svg width="267" height="27" viewBox="0 0 267 27" xmlns="http://www.w3.org/2000/svg"><g fill="#FFF" fill-rule="nonzero"><path d="M38.52 9.56c.93 0 1.6-.62 1.6-1.56 0-.91-.67-1.53-1.6-1.53-.95 0-1.6.62-1.6 1.53 0 .94.65 1.56 1.6 1.56Zm-1.86 15.82c1.96 0 3.16-1.17 3.16-3.1V11.04h-2.6v11c0 .8-.45 1.29-1.19 1.29-.29 0-.66-.06-.97-.18l-.33 1.9c.56.22 1.24.34 1.93.34Zm8.67-4.09c2.97 0 4.86-2.06 4.86-5.3 0-3.23-1.89-5.27-4.86-5.27-2.95 0-4.84 2.04-4.84 5.27 0 3.24 1.89 5.3 4.84 5.3Zm0-2.21c-1.38 0-2.26-1.17-2.26-3.1 0-1.9.88-3.04 2.26-3.04s2.25 1.15 2.25 3.05c0 1.92-.87 3.09-2.25 3.09Zm8.03 1.88v-5.94c0-1.3.76-2.12 1.93-2.12.87 0 1.41.58 1.41 1.57v6.5h2.59V13.9c0-1.96-1.1-3.13-2.92-3.13-1.38 0-2.48.68-3.09 1.85h-.02l-.33-1.6h-2.17v9.93h2.6Zm14.74.26c.8 0 1.67-.28 2.25-.86l-.62-1.46c-.25.28-.52.41-.76.41-.3 0-.48-.23-.48-.64v-4.12c0-2.35-1.6-3.83-4.18-3.83-2.55 0-4.26 1.46-4.33 3.46l2.43.45c.05-1.1.77-1.98 1.9-1.98.95 0 1.63.54 1.63 1.5 0 .5-.3.77-.74.81l-1.53.2c-2.64.29-4 1.45-4 3.24 0 1.7 1.28 2.8 3.14 2.8 1.4 0 2.51-.68 3.11-1.81h.02l.06.27c.18.9.95 1.56 2.1 1.56Zm-4.3-1.93c-.89 0-1.53-.44-1.53-1.18s.6-1.32 2.02-1.5l1.61-.2v.55c0 1.4-.9 2.33-2.1 2.33Zm9.86 1.99c1.5 0 2.67-.76 3.13-2.03l-1.05-1.5c-.27.94-.81 1.39-1.53 1.39-.78 0-1.25-.59-1.25-1.58v-4.52h3.33v-2h-3.33V7.78l-2.6.58v2.66h-1.69v2h1.69l.02 5c0 1.98 1.19 3.25 3.28 3.25Zm5.98-.32v-5.94c0-1.3.75-2.12 1.92-2.12.88 0 1.42.58 1.42 1.57v6.5h2.58V13.9c0-1.98-1.07-3.13-2.85-3.13-1.36 0-2.45.66-3.05 1.85h-.02V6.56h-2.6v14.4h2.6Zm14.73.26c.8 0 1.68-.28 2.26-.86L96 18.9c-.26.28-.53.41-.76.41-.31 0-.49-.23-.49-.64v-4.12c0-2.35-1.6-3.83-4.18-3.83-2.54 0-4.25 1.46-4.33 3.46l2.43.45c.06-1.1.78-1.98 1.9-1.98.96 0 1.64.54 1.64 1.5 0 .5-.31.77-.74.81l-1.54.2c-2.64.29-4 1.45-4 3.24 0 1.7 1.28 2.8 3.15 2.8 1.4 0 2.5-.68 3.1-1.81h.03l.06.27c.17.9.95 1.56 2.1 1.56Zm-4.3-1.93c-.88 0-1.53-.44-1.53-1.18s.6-1.32 2.03-1.5l1.6-.2v.55c0 1.4-.89 2.33-2.1 2.33Zm9.29 1.67v-5.94c0-1.3.75-2.12 1.92-2.12.87 0 1.42.58 1.42 1.57v6.5h2.58V13.9c0-1.96-1.1-3.13-2.91-3.13-1.38 0-2.49.68-3.1 1.85h-.01l-.33-1.6h-2.18v9.93h2.6Zm39.63.32c2.45 0 4.2-1.25 4.2-3.2 0-1.41-.91-2.3-2.92-2.85l-1.32-.37c-1.1-.33-1.59-.68-1.59-1.26.02-.6.56-1.09 1.36-1.09.9 0 1.52.55 1.57 1.58l2.32-.34c-.18-1.94-1.81-3-3.81-3-2.18 0-3.71 1.18-3.71 3.06 0 1.44.77 2.32 2.64 2.82l1.3.35c1.2.33 1.73.7 1.75 1.32 0 .7-.74 1.17-1.73 1.17-1.19 0-2.04-.72-2.1-1.93l-2.31.33c.1 2.22 1.96 3.4 4.35 3.4Zm9.77.01c2.03 0 3.75-1.06 4.3-2.77l-1.96-.76a2.4 2.4 0 0 1-2.34 1.6c-1.45 0-2.43-1-2.54-2.61h6.55c.06-.22.07-.59.07-.95 0-3.1-1.76-5.08-4.5-5.08-2.86 0-4.73 2.04-4.73 5.21 0 3.25 2.04 5.36 5.15 5.36Zm1.5-6.14h-4.04c.13-1.53.87-2.48 2.1-2.48 1.14 0 1.84.91 1.94 2.48Zm7.48 10.23c3.26 0 5.32-1.9 5.32-5.08v-9.27h-2.3l-.3 1.66h-.02a3.27 3.27 0 0 0-3.01-1.93c-2.31 0-3.83 2.04-3.83 5.23 0 3.09 1.52 5.07 3.85 5.07 1.24 0 2.4-.74 2.99-1.86h.02v1.08c-.02 1.81-1.17 2.92-3 2.92a4.28 4.28 0 0 1-3.3-1.63l-1.14 1.82c.93 1.2 2.76 1.99 4.72 1.99Zm.64-6.46c-1.3 0-2.18-1.16-2.18-2.97 0-1.83.86-3 2.18-3 1.32 0 2.18 1.2 2.18 3 0 1.79-.86 2.97-2.18 2.97Zm10.7 2.37c2.03 0 3.76-1.06 4.3-2.77l-1.96-.76a2.4 2.4 0 0 1-2.33 1.6c-1.46 0-2.43-1-2.55-2.61h6.55c.06-.22.08-.59.08-.95 0-3.1-1.77-5.08-4.51-5.08-2.86 0-4.72 2.04-4.72 5.21 0 3.25 2.04 5.36 5.15 5.36Zm1.5-6.14h-4.04c.14-1.53.87-2.48 2.1-2.48 1.14 0 1.84.91 1.94 2.48Zm6.96 5.81v-7.92h3.22v-2h-3.22V9.88c0-.88.48-1.44 1.28-1.44.68 0 1.28.49 1.51 1.24l1.1-1.53c-.47-1.13-1.62-1.87-3.1-1.87-2.08 0-3.4 1.25-3.4 3.23v1.51h-1.79v2h1.8v7.93h2.6Zm5.7-11.4c.94 0 1.6-.62 1.6-1.56 0-.91-.66-1.53-1.6-1.53-.95 0-1.59.62-1.59 1.53 0 .94.64 1.56 1.6 1.56Zm-1.86 15.82c1.96 0 3.17-1.17 3.17-3.1V11.04h-2.6v11c0 .8-.45 1.29-1.2 1.29-.28 0-.65-.06-.96-.18l-.33 1.9c.56.22 1.24.34 1.92.34Zm8.98-4.09c2.97 0 4.85-2.06 4.85-5.3 0-3.23-1.88-5.27-4.85-5.27-2.96 0-4.84 2.04-4.84 5.27 0 3.24 1.88 5.3 4.84 5.3Zm0-2.21c-1.38 0-2.26-1.17-2.26-3.1 0-1.9.88-3.04 2.26-3.04s2.25 1.15 2.25 3.05c0 1.92-.87 3.09-2.25 3.09Zm8.33 1.88V15.5c0-1.7.58-2.74 1.54-2.74.75 0 1.22.68 1.28 2.02l2.2-.6c-.08-2.17-1.1-3.42-2.69-3.42-1.1 0-2.04.74-2.47 1.96h-.02l-.33-1.69h-2.11v9.93h2.6Zm9.19.28c1.36 0 2.47-.68 3.03-1.95h.02l.3 1.67h2.23V6.56h-2.6v6.1h-.03a3.13 3.13 0 0 0-2.95-1.9c-2.37 0-3.9 2.04-3.9 5.25 0 3.2 1.55 5.23 3.9 5.23Zm.9-2.26c-1.33 0-2.2-1.16-2.2-2.97 0-1.8.87-2.97 2.2-2.97 1.31 0 2.19 1.16 2.19 2.97 0 1.8-.88 2.97-2.2 2.97Zm7.34 2.2c.93 0 1.6-.64 1.6-1.56 0-.9-.67-1.53-1.6-1.53-.92 0-1.58.64-1.58 1.53 0 .92.66 1.56 1.58 1.56Zm6.45.1c2.44 0 4.2-1.25 4.2-3.2 0-1.41-.92-2.3-2.92-2.85l-1.32-.37c-1.11-.33-1.6-.68-1.6-1.26.02-.6.57-1.09 1.36-1.09.9 0 1.52.55 1.58 1.58l2.31-.34c-.18-1.94-1.8-3-3.8-3-2.19 0-3.72 1.18-3.72 3.06 0 1.44.78 2.32 2.64 2.82l1.3.35c1.2.33 1.73.7 1.75 1.32 0 .7-.74 1.17-1.73 1.17-1.18 0-2.04-.72-2.1-1.93l-2.3.33c.09 2.22 1.95 3.4 4.35 3.4Zm7.55 3.77v-5.7h.02a3.17 3.17 0 0 0 2.97 1.89c2.36 0 3.9-2.02 3.9-5.23 0-3.2-1.54-5.25-3.91-5.25-1.35 0-2.47.7-3.04 1.96h-.02l-.29-1.69h-2.23v14.02h2.6Zm2.08-6.07c-1.32 0-2.18-1.16-2.18-2.97 0-1.8.86-2.97 2.18-2.97 1.34 0 2.2 1.14 2.2 2.97 0 1.8-.86 2.97-2.2 2.97Zm13.64 2.24c.8 0 1.67-.28 2.25-.86l-.62-1.46c-.25.28-.52.41-.76.41-.3 0-.48-.23-.48-.64v-4.12c0-2.35-1.6-3.83-4.18-3.83-2.54 0-4.25 1.46-4.33 3.46l2.43.45c.05-1.1.77-1.98 1.9-1.98.95 0 1.63.54 1.63 1.5 0 .5-.3.77-.74.81l-1.53.2c-2.64.29-4 1.45-4 3.24 0 1.7 1.28 2.8 3.14 2.8 1.4 0 2.51-.68 3.11-1.81h.02l.06.27c.18.9.95 1.56 2.1 1.56Zm-4.3-1.93c-.89 0-1.53-.44-1.53-1.18s.6-1.32 2.02-1.5l1.61-.2v.55c0 1.4-.89 2.33-2.1 2.33Zm10.75 2c2.49 0 4.26-1.6 4.59-4.15l-2.43-.4c-.18 1.5-1 2.42-2.1 2.42-1.32 0-2.2-1.19-2.2-3.15s.76-3.15 1.94-3.15c.88 0 1.58.74 1.8 2.1l2.38-.54c-.37-2.28-1.96-3.7-4.21-3.7-2.72 0-4.5 2.04-4.51 5.29 0 3.22 1.84 5.28 4.74 5.28Zm10.18 0c2.02 0 3.75-1.06 4.3-2.77l-1.97-.76a2.4 2.4 0 0 1-2.33 1.6c-1.46 0-2.43-1-2.55-2.61h6.55c.06-.22.08-.59.08-.95 0-3.1-1.77-5.08-4.5-5.08-2.86 0-4.73 2.04-4.73 5.21 0 3.25 2.04 5.36 5.15 5.36Zm1.5-6.14h-4.05c.14-1.53.88-2.48 2.1-2.48 1.15 0 1.85.91 1.95 2.48ZM120.12 26.96c2.22 0 4.18-.5 5.88-1.48l-.58-.99c-.71.43-1.52.76-2.43.99-.91.23-1.85.35-2.81.35-2.13 0-4-.44-5.61-1.32a9.29 9.29 0 0 1-3.76-3.73 11.35 11.35 0 0 1-1.33-5.6c0-2.2.44-4.13 1.33-5.8a9.4 9.4 0 0 1 3.77-3.85c1.62-.9 3.5-1.36 5.65-1.36 2.05 0 3.86.43 5.44 1.3a9.02 9.02 0 0 1 3.68 3.75c.88 1.64 1.32 3.59 1.32 5.85 0 1.24-.12 2.23-.35 2.99a3.6 3.6 0 0 1-.87 1.6c-.35.33-.68.48-1.01.48-.66 0-.99-.44-.99-1.33v-6.23a5.4 5.4 0 0 0-1.94-4.4c-1.3-1.07-3.03-1.6-5.22-1.6-1.39 0-2.63.22-3.7.68A6.36 6.36 0 0 0 114 9.14c-.64.8-1 1.72-1.07 2.74l4.29.67c.08-.77.41-1.43 1-1.96.59-.53 1.32-.8 2.19-.8.75 0 1.39.2 1.91.6.52.4.78.9.78 1.52 0 .31-.1.56-.32.74-.2.18-.49.3-.84.33l-2.87.35c-2.18.25-3.83.8-4.95 1.65a3.89 3.89 0 0 0-1.68 3.22c0 1.28.49 2.3 1.47 3.08a6.02 6.02 0 0 0 3.83 1.15c1.24 0 2.33-.26 3.28-.8a5.08 5.08 0 0 0 2.11-2.18h.03l.09.43c.25.87.68 1.52 1.29 1.93.6.42 1.43.62 2.48.62 1.45 0 2.6-.6 3.48-1.8.87-1.21 1.3-3.08 1.3-5.59 0-2.47-.49-4.61-1.46-6.42a9.97 9.97 0 0 0-4.1-4.13 12.56 12.56 0 0 0-6.06-1.42c-2.32 0-4.38.5-6.16 1.5-1.8.99-3.18 2.4-4.18 4.23-1 1.82-1.5 3.94-1.5 6.36 0 2.36.5 4.42 1.49 6.2a10.34 10.34 0 0 0 4.14 4.13c1.78.98 3.83 1.47 6.15 1.47Zm-.7-7.71c-.73 0-1.34-.16-1.82-.48-.49-.32-.73-.73-.73-1.23 0-1.1 1.1-1.78 3.3-2.03l2.85-.32v.6c0 1.01-.34 1.84-1.02 2.48-.67.65-1.53.98-2.58.98ZM.28 11.26v9a3.15 3.15 0 0 0 3.15 3.16h15.75a3.15 3.15 0 0 0 3.15-3.15v-9.01l-9.38 5.77a3.15 3.15 0 0 1-3.3 0L.27 11.26Z"/><path d="M22.33 9.4v-.16a3.15 3.15 0 0 0-3.15-3.15H3.43A3.15 3.15 0 0 0 .27 9.24v.17l10.2 6.28c.51.3 1.15.3 1.66 0l10.2-6.28Z"/></g></svg>