<svg xmlns="http://www.w3.org/2000/svg" width="121" height="31"><path fill="currentColor" d="m44.58 7.03-.35 3.4h-3.3l-.3.29c.6.76.88 1.69.88 2.77 0 3.14-2.37 4.64-6.42 5.17l-.3.03-3.07.35c.17.72.75 1.17 1.94 1.35l.23.03 3.42.4c4.03.44 6.1 2 6.1 4.62 0 3.36-3 5.3-8.06 5.3-4.77 0-7.81-1.63-8.16-4.35l-.02-.19-.15-1.9 4.27.59v1.6c0 1.84 1.57 2.78 4.23 2.78 2.57 0 4.06-.88 4.06-2.45 0-1.36-1.16-2.14-3.36-2.45l-.26-.04-3.33-.44c-3.33-.42-4.58-2.02-4.64-5.18v-.25l3.85-.3v-.29c-2.34-.52-3.8-2.27-3.8-4.38 0-3.13 2.66-5.26 6.7-5.26 2.3 0 3.88.5 5.08 1.52a2.8 2.8 0 0 1 2.56-2.56l.16-.01 2.04-.15Zm29.27 2.31c-.03.33-.08.65-.16.97l-2.87 12a10.63 10.63 0 0 1-10.34 8.16c-.37 0-.73-.03-1.08-.09l1.2-5a5.54 5.54 0 0 0 5.25-4.18l.01-.08L68.7 9.34h5.16ZM83 8.24c4.91 0 8 3 8 7.82s-3.12 7.66-8 7.66c-4.94 0-8.03-2.87-8.03-7.66 0-4.85 3.12-7.83 8.03-7.83ZM117.8.77v20.6l.59.59h1.9v1.46h-6.32v-2.05h-.29c-.85 1.46-2.54 2.34-4.62 2.34-4.03 0-6.92-3.16-6.92-7.66s2.92-7.83 6.98-7.83c1.73 0 3.33.64 4.27 1.73h.3v-6.4h-4.13V2.1c3.1 0 6.23-.5 8.24-1.32ZM50.4 8.23c4.38 0 7.1 2.63 7.1 6.72l-.88.88h-9.76c-.02.2-.02.44-.02.64 0 3.19 1.72 5.35 4.5 5.35 2.57 0 4.52-1.93 5.1-4.91l1.35.23c-.79 4.18-3.12 6.58-7.57 6.58-4.79 0-7.77-3.01-7.77-7.57 0-4.9 3.01-7.92 7.95-7.92Zm-29.67 0c4.3 0 6.99 2.52 7.1 6.47v.25l-.87.88H17.2c-.03.2-.03.44-.03.64 0 3.19 1.72 5.35 4.5 5.35 2.5 0 4.4-1.81 5.05-4.64l.06-.27 1.35.23c-.8 4.18-3.13 6.58-7.57 6.58-3.63 0-6.23-1.73-7.27-4.55l.01.14v.2c0 2.69-2.33 4.2-6.01 4.2-.73 0-1.35-.06-1.96-.15l-.3-.05-.17-.03c-.92-.14-1.87-.32-3.2-.34h-.8l-.58-5.85 1.2-.15c.87 3.42 2.68 5.03 5.34 5.03 1.4 0 2.45-.53 2.45-1.64 0-.88-.65-1.56-1.99-2.17l-.23-.1-3.33-1.38C1.5 15.95.57 14.68.57 12.64c0-2.65 1.95-4.4 5.14-4.4 1.84 0 3.01.5 4.94.57h.9l.59 5.15-1.17.12c-.94-2.96-2.3-4.39-4.3-4.39-1.34 0-2.36.65-2.36 1.96 0 .88.62 1.5 1.9 2.09l.23.1 3.1 1.29c1.77.76 2.85 1.56 3.38 2.6a9.3 9.3 0 0 1-.13-1.58c0-4.9 3-7.92 7.94-7.92Zm82.56 0-.58 3.98h-3.68c-1.6 0-2.46 1.08-2.46 2.86v6.31l.59.59h4.67v1.46H90.12v-1.46h1.75l.58-.59V10.57h-2.33V9.1c1.98 0 4.32-.15 6.16-.88v3.5h.3c.64-2.1 2.04-3.2 4.38-3.35l2.33-.15ZM83.01 9.78c-2.37 0-3.62 2.08-3.62 6.28 0 4.18 1.25 6.11 3.62 6.11s3.6-1.93 3.6-6.1c0-4.21-1.23-6.29-3.6-6.29Zm27.36.3c-2.54 0-3.83 2.1-3.83 5.98 0 3.89 1.23 5.76 3.71 5.76 2.08 0 3.42-1.55 3.42-4.53v-2.98c0-2.8-1.34-4.24-3.3-4.24ZM71.93.5c.37 0 .73.03 1.08.09l-1.2 5a5.54 5.54 0 0 0-5.24 4.18l-.02.07-2.82 11.79h-5.17c.03-.33.08-.65.16-.97l2.87-12A10.63 10.63 0 0 1 71.93.5Zm-37.2 9.2c-1.63 0-2.36 1.28-2.36 3.65 0 2.45.73 3.8 2.36 3.8 1.7 0 2.46-1.35 2.46-3.8 0-2.37-.76-3.66-2.46-3.66Zm-14.11.02c-1.82 0-3.07 1.55-3.36 4.65h5.58l.58-.59c0-2.68-1.1-4.06-2.8-4.06Zm29.66 0c-1.8 0-3.06 1.55-3.36 4.65h5.58l.59-.59c0-2.68-1.11-4.06-2.8-4.06Z"/></svg>
