<?xml version="1.0" encoding="UTF-8" standalone="no"?>
<!DOCTYPE svg PUBLIC "-//W3C//DTD SVG 1.1//EN" "http://www.w3.org/Graphics/SVG/1.1/DTD/svg11.dtd">
<svg xmlns="http://www.w3.org/2000/svg" xmlns:xlink="http://www.w3.org/1999/xlink" width="128" height="128">
  <defs>
    <radialGradient xlink:href="#a" id="d" cx="60.764378" cy="104.22466" r="63.17857" fx="60.764378" fy="104.22466" gradientTransform="matrix(.85745 -.78796 .89944 .97876 -84.596269 34.939755)" gradientUnits="userSpaceOnUse"/>
    <radialGradient id="f" cx="145" cy="29" r="230" gradientTransform="matrix(.6607 -.56005 .69393 .81864 -39.045089 37.984063)" gradientUnits="userSpaceOnUse">
      <stop offset="0" stop-color="#fff"/>
      <stop offset=".2" stop-color="#fff"/>
      <stop offset=".51" stop-color="#8be456"/>
      <stop offset=".74" stop-color="#8be456"/>
      <stop offset="1" stop-color="#8be456"/>
    </radialGradient>
    <radialGradient xlink:href="#b" id="e" cx="48.356026" cy="122.04626" r="63.17857" fx="48.356026" fy="122.04626" gradientTransform="matrix(.97495 -.22245 .19785 .86716 -18.612993 12.209071)" gradientUnits="userSpaceOnUse"/>
    <radialGradient xlink:href="#c" id="g" cx="57.965954" cy="109.5996" r="63.17857" fx="57.965954" fy="109.5996" gradientTransform="matrix(.77328 -.70601 .71174 .77956 -64.080277 49.199946)" gradientUnits="userSpaceOnUse"/>
    <linearGradient id="c">
      <stop offset="0" stop-color="#fff"/>
      <stop offset=".53316939" stop-color="#b3d187"/>
      <stop offset="1" stop-color="#28f400"/>
    </linearGradient>
    <linearGradient id="b">
      <stop offset="0" stop-color="#4df60b"/>
      <stop offset="1" stop-color="green"/>
    </linearGradient>
    <linearGradient id="a">
      <stop offset="0" stop-color="#f9ffd1"/>
      <stop offset=".25998953" stop-color="#84e246"/>
      <stop offset="1" stop-color="green"/>
    </linearGradient>
  </defs>
  <path fill="url(#d)" d="M24.642857 32.642859 1.4285714 54.07143 51.071429 97.285716 126.78571 31.57143l-22.5-20-52.142853 47.142858z"/>
  <path fill="url(#e)" d="M1.4285714 54.428573 51.071429 97.64286l75.714281-65.714287.08351 8.631074-75.08351 68.154643L1.77525 63.026751z" color="#000" overflow="visible" style="marker:none"/>
  <path fill="url(#f)" d="m24.285714 39.785715 27.5 25.000001 52.142856-46.428569 15.71429 14.64285s-14.28571 12.857149-28.928573 25.714289c-14.642854 12.85714-54.642859 15-80.7142871-5.71429C20.357143 43.714286 24.285714 39.785715 24.285714 39.785715z" color="#000" overflow="visible" style="marker:none"/>
  <path fill="url(#g)" d="M1.4285714 54.07143 51.071429 97.285716 126.78571 31.57143l-75.714286 69.64286z" color="#000" overflow="visible" style="marker:none"/>
</svg>