<?xml version="1.0" encoding="UTF-8" standalone="no"?><!DOCTYPE svg PUBLIC "-//W3C//DTD SVG 20010904//EN"
"http://www.w3.org/TR/2001/REC-SVG-20010904/DTD/svg10.dtd"><svg xmlns="http://www.w3.org/2000/svg" xmlns:xml="http://www.w3.org/XML/1998/namespace" xml:space="preserve" width="64" height="64" overflow="visible" viewBox="0 0 256 256"><defs><linearGradient id="a" x1="127.9536" x2="127.9536" y1="47.3267" y2="212.9885" gradientUnits="userSpaceOnUse"><stop offset="0" stop-color="#090"/><stop offset="1" stop-color="#334966"/></linearGradient><linearGradient id="b" x1="127.9536" x2="127.9536" y1="77.2075" y2="307.6057" gradientUnits="userSpaceOnUse"><stop offset="0" stop-color="#3c3"/><stop offset="1" stop-color="#366"/></linearGradient><linearGradient id="c" x1="127.9536" x2="127.9536" y1="77.3672" y2="307.3626" gradientUnits="userSpaceOnUse"><stop offset=".0056" stop-color="#cf6"/><stop offset="1" stop-color="#090"/></linearGradient><radialGradient id="d" cx="54.2729" cy="89.3477" r="120.8132" fx="54.2729" fy="89.3477" gradientUnits="userSpaceOnUse"><stop offset="0" stop-color="#fff"/><stop offset="1" stop-color="#92ff00"/></radialGradient></defs><path fill="none" d="M0 0h256v256H0z" font-size="12"/><path d="M221.848 47.811S91.29 137.282 89.27 138.666c-1.689-1.683-41.779-41.595-41.779-41.595-2.978-2.968-6.891-4.068-10.467-2.943-3.89 1.232-6.403 4.005-7.08 7.809l-.42 2.363c-.135.765-.122 1.532.037 2.285l.589 2.802.408 1.247 46.254 101.694c1.449 3.183 4.375 5.427 7.83 6.001 3.441.579 6.936-.598 9.349-3.144L235.225 65.893c2.066-2.169 3.252-5.263 3.252-8.481l-.129-1.236-.572-2.723c-.697-3.33-2.852-5.804-6.227-7.157-2.154-.865-5.586-1.305-9.701 1.515z" font-size="12" opacity=".2"/><path d="M218.848 47.811S88.29 137.282 86.27 138.666c-1.689-1.683-41.779-41.595-41.779-41.595-2.978-2.968-6.891-4.068-10.467-2.943-3.89 1.232-6.403 4.005-7.08 7.809l-.42 2.363c-.135.765-.122 1.532.037 2.285l.589 2.802.408 1.247 46.254 101.694c1.449 3.183 4.375 5.427 7.83 6.001 3.441.579 6.936-.598 9.349-3.144L232.225 65.893c2.066-2.169 3.252-5.263 3.252-8.481l-.129-1.236-.572-2.723c-.697-3.33-2.852-5.804-6.227-7.157-2.154-.865-5.586-1.305-9.701 1.515z" font-size="12" opacity=".2"/><path d="M217.848 45.811S87.29 135.282 85.27 136.666c-1.689-1.683-41.779-41.595-41.779-41.595-2.978-2.968-6.891-4.068-10.467-2.943-3.89 1.232-6.403 4.005-7.08 7.809l-.42 2.363c-.135.765-.122 1.532.037 2.285l.589 2.802.408 1.247 46.254 101.694c1.449 3.183 4.375 5.427 7.83 6.001 3.441.579 6.936-.598 9.349-3.144L231.225 63.893c2.066-2.169 3.252-5.263 3.252-8.481l-.129-1.236-.572-2.723c-.697-3.33-2.852-5.804-6.227-7.157-2.154-.865-5.586-1.305-9.701 1.515z" font-size="12" opacity=".2"/><path fill="url(#a)" d="M215.848 43.811S85.29 133.282 83.27 134.666c-1.689-1.683-41.779-41.595-41.779-41.595-2.978-2.968-6.891-4.068-10.467-2.943-3.89 1.232-6.403 4.005-7.08 7.809l-.42 2.363c-.135.765-.122 1.532.037 2.285l.589 2.802.408 1.247 46.254 101.694c1.449 3.183 4.375 5.427 7.83 6.001 3.441.579 6.936-.598 9.349-3.144L229.225 61.893c2.066-2.169 3.252-5.263 3.252-8.481l-.129-1.236-.572-2.723c-.697-3.33-2.852-5.804-6.227-7.157-2.154-.865-5.586-1.305-9.701 1.515z" font-size="12"/><path fill="url(#b)" d="M219.239 48.761S83.785 141.585 82.56 142.426c-5.106-5.083-45.302-45.103-45.302-45.103-1.187-1.182-2.833-1.976-4.431-1.472-1.597.505-2.684 1.485-2.977 3.135l-.42 2.364.589 2.802c.007.016 46.252 101.691 46.252 101.691.621 1.363 1.876 2.321 3.354 2.567 1.477.247 2.978-.265 4.008-1.353L224.865 57.77c1.021-1.072 1.611-2.665 1.611-4.358l-.572-2.728c-.309-1.471-1.192-2.26-2.588-2.82-1.394-.559-2.839.049-4.077.897z" font-size="12"/><path fill="url(#c)" d="M84.485 146.561c-1.425.977-3.344.803-4.567-.416 0 0-44.921-44.724-45.833-45.632-.091.252-.154.533-.154.838 0 .328.06.662.192.955 0 0 46.096 101.347 46.241 101.664.877-.93 141.232-149.292 141.232-149.292.232-.243.381-.741.381-1.266 0-.322-.074-.645-.2-.935-1.026.7-137.292 94.084-137.292 94.084z" font-size="12"/><path fill="url(#d)" d="M86.517 149.525c-.001 0-.001.004-.001.004-2.848 1.947-6.69 1.596-9.133-.838 0 0-20.052-19.966-33.287-33.141 10.589 23.282 30.678 67.45 37.327 82.069 6.078-6.424 93.826-99.178 119.981-126.826-31.378 21.504-114.887 78.732-114.887 78.732z" font-size="12"/></svg>