<svg xmlns="http://www.w3.org/2000/svg" viewBox="-4.6 30.4 239.2 125.2"><g fill="none" fill-rule="evenodd"><path fill="#2E3B3E" d="m207 118.82-.7 1.38a289.93 289.93 0 0 0-6.55-7.21c-1.44-1.53.28-2.4 1.33-1.18 2 2.3 3.98 4.63 5.93 7Zm10.8 14.04-.36.84-1.25-1.6.05-.16.28-.75.02-.06 1.27 1.73Zm12.43 18.61a299.8 299.8 0 0 0-7-10.07l.18-.5c2.34 3.45 4.6 6.98 6.82 10.57Z"/><path fill="#00CDB6" fill-rule="nonzero" d="m212.23 112.63-7.84 15.27.35.35c2.52 2.6 5 5.29 7.42 8.05l.37.44 5.09-13.78-.54-1.1c-1.5-2.97-3.02-5.9-4.6-8.76l-.25-.47ZM220.31 129.07l-4.32 9.85.96 1.15c1.26 1.51 2.5 3.06 3.74 4.62l.36.47 2.96-8.19-.76-1.68c-.9-1.95-1.8-3.89-2.73-5.8l-.21-.42Z"/><path fill="#2E3B3E" d="m113.27 48.31-.31.47a420.17 420.17 0 0 0-14.89-8.05l-1.64-.84 1.67.8c5.1 2.43 10.16 4.97 15.17 7.62Zm28.55 16.54-.74 1.37-2.92-1.96.67-1.28 3 1.87Zm27.23 22.03c-2.3-1.86-4.63-3.69-6.97-5.49l.37-1.03.29-.84.15-.41c2.6 1.88 5.19 3.8 7.75 5.74.83.63.48 3.7-1.6 2.03Z"/><path fill="#00CDB6" fill-rule="nonzero" d="m150.27 54.1-12.62 23.32.39.2a466.3 466.3 0 0 1 16.79 9.57l2.28 1.37 8.19-23.27-1.23-.96-1.6-1.24-1.65-1.25-1.69-1.27-1.16-.87-1.8-1.33-1.26-.92-1.96-1.43-2.68-1.93ZM124.15 35.19l-18.72 27.74.54.22a476.98 476.98 0 0 1 24.17 10.8l.9.44 13.69-26.5-1.02-.66a472.1 472.1 0 0 0-18.56-11.46l-1-.58Z"/><g fill="#2E3B3E"><path d="M210.33 102.06c.56 5.3-.52 9.4-3.37 11.05-5.74 3.32-16.5-4.57-24.03-17.6-7.53-13.05-8.98-26.3-3.24-29.62l.06-.04c-3.22 4.7-1.44 15.5 4.7 26.11 7.04 12.2 17.16 19.55 22.6 16.41 1.89-1.09 2.97-3.3 3.27-6.24Z"/><path d="M210.65 78.49a18.34 18.34 0 0 1-7.82 25.64 18.34 18.34 0 0 0-18.3-31.69 18.34 18.34 0 0 1 26.12 6.04ZM206 111.3l.96 1.81c-17.45 10.08-37.7 4.68-43.99-6.2a21.9 21.9 0 0 1-2.76-11.03 22.76 22.76 0 0 0 2.12 7.27c4.95 10.06 20.48 16.95 38.48 6.57 2.17 1.31 3.88 1.78 5.19 1.58Z"/><path d="M198.77 112.08c-1.5 1.08-2.66 1.5-3.64 1.46l.33 1.52-10.57 1.4-8.9-.76-.18-.2-.32-.36-1.62-1.85c3.65 1.52 10.95 1.57 13.9.6a3.29 3.29 0 0 0 1.94-4.77v-.01l-.01-.02a3.34 3.34 0 0 0-.13-.2l.13.2c-8.56-13.49-10.94-20.04-12.26-26.14l-.1-.48-.1-.49-.14-.73-.1-.48-.13-.73-.1-.5-.08-.49-.09-.5-.23-1.26c.7-.53 1.03-.03.97 1.47v.2l2.54 7.73 6.99 12.11c7.54 7.43 11.5 11.85 11.9 13.28Z"/></g><path fill="#2E3B3E" d="m193.45 72.74.05.36.04.35.05.33.02.16.05.3c.65 4.38 1.33 4.96 4.3 5.62l.22.04.33.07.23.05-.34.07-.22.05-.1.02-.22.05c-2.88.65-3.56 1.27-4.2 5.59l-.05.3-.07.5-.04.34-.05.36-.02-.18-.05-.36c-.7-5.25-1.27-5.87-4.43-6.57l-.22-.05-.1-.02-.35-.07-.12-.03.24-.05.22-.04.22-.05.21-.05c3.08-.69 3.63-1.36 4.33-6.55l.05-.35.02-.19Z"/><path d="M7.8 112.9V99.7h12.32v13.2h7.62V81.32h-7.62v11.96H7.8V81.32H.18v31.58h7.63Zm33.9.62c.78 0 1.51-.1 2.21-.3.7-.22 1.34-.48 1.92-.81a6.6 6.6 0 0 0 2.56-2.59h.1v3.08h7.04V90.69h-7.31v12c0 1.28-.34 2.39-1 3.34a3.35 3.35 0 0 1-2.93 1.43c-.68 0-1.23-.13-1.65-.38-.42-.25-.75-.6-1-1.05a4.46 4.46 0 0 1-.52-1.51c-.09-.57-.13-1.16-.13-1.79V90.7h-7.36v13.74c0 1.13.14 2.23.42 3.32a8.18 8.18 0 0 0 1.39 2.9 7.3 7.3 0 0 0 2.5 2.07c1.02.54 2.28.8 3.76.8Zm33.72 0a9.84 9.84 0 0 0 7.78-3.59c.91-1.08 1.6-2.34 2.08-3.76a14.01 14.01 0 0 0-.02-8.9 11.57 11.57 0 0 0-2.1-3.73 9.87 9.87 0 0 0-7.65-3.48c-1.64 0-3.02.32-4.15.94a9.2 9.2 0 0 0-2.63 2.05h-.09V79.18h-7.31v33.72h6.73V110h.1c.7 1.13 1.72 2 3.05 2.61 1.32.61 2.72.91 4.21.91Zm-1.74-6.06a4.92 4.92 0 0 1-3.9-1.79 5.92 5.92 0 0 1-1.45-3.92 6 6 0 0 1 1.45-3.92 4.92 4.92 0 0 1 3.9-1.78 5.02 5.02 0 0 1 4.93 3.56 6.72 6.72 0 0 1 0 4.21 5.07 5.07 0 0 1-2.65 3.14c-.66.34-1.42.5-2.28.5Zm31.13 6.06a9.84 9.84 0 0 0 7.79-3.59c.9-1.08 1.6-2.34 2.07-3.76a14.01 14.01 0 0 0-.02-8.9 11.57 11.57 0 0 0-2.1-3.73 9.87 9.87 0 0 0-7.65-3.48c-1.63 0-3.02.32-4.15.94a9.2 9.2 0 0 0-2.63 2.05h-.09V79.18h-7.31v33.72h6.73V110h.1c.7 1.13 1.72 2 3.05 2.61 1.32.61 2.73.91 4.21.91Zm-1.74-6.06a4.92 4.92 0 0 1-3.9-1.79 5.92 5.92 0 0 1-1.45-3.92 6 6 0 0 1 1.45-3.92 4.92 4.92 0 0 1 3.9-1.78A5.02 5.02 0 0 1 108 99.6a6.72 6.72 0 0 1 0 4.21 5.07 5.07 0 0 1-2.65 3.14c-.66.34-1.41.5-2.28.5Zm24.44 5.44V79.18h-7.4v33.72h7.4Zm16.9.71c2.27 0 4.25-.4 5.96-1.22a10.29 10.29 0 0 0 4.13-3.5l-5.09-3.22a5.82 5.82 0 0 1-1.96 1.68c-.8.43-1.78.64-2.94.64a5.83 5.83 0 0 1-3.55-1.18c-.49-.37-.9-.8-1.2-1.31-.32-.5-.5-1.07-.56-1.7h16.1c.03-.27.04-.55.04-.85v-.89c0-1.9-.27-3.6-.82-5.08a11.02 11.02 0 0 0-2.3-3.8 9.8 9.8 0 0 0-3.52-2.38 11.97 11.97 0 0 0-4.5-.82c-1.7 0-3.28.28-4.73.84a11.33 11.33 0 0 0-3.8 2.39 11.14 11.14 0 0 0-2.54 3.75 12.5 12.5 0 0 0-.93 4.92c0 1.88.32 3.54.96 5a10.53 10.53 0 0 0 2.63 3.68c1.11 1 2.41 1.75 3.9 2.27 1.49.52 3.06.78 4.73.78Zm4.2-14.36h-9.41c.03-.56.18-1.1.45-1.63.26-.52.62-.97 1.07-1.36.44-.38.96-.69 1.56-.91.6-.22 1.25-.33 1.96-.33 1.46 0 2.55.41 3.28 1.24.73.84 1.09 1.83 1.09 3Z" fill="#2E3B3E" fill-rule="nonzero"/></g></svg>