<svg xmlns="http://www.w3.org/2000/svg" role="img" viewBox="-4.60 30.40 239.20 125.20"><g id="Final" fill="none" fill-rule="evenodd" stroke="none" stroke-width="1"><g id="Group-2" transform="translate(91.775)"><g id="Rotated" transform="rotate(60 36.818 63.78)"><g id="Wings" transform="translate(0 15.24)"><path id="R" fill="#2E3B3E" d="M123.689969,8.15084604 L124.533355,9.45842432 C121.339455,10.0947156 118.164378,10.7830257 115.008876,11.5227347 C112.972019,12.0002125 113.077041,10.0834753 114.654526,9.77433433 C117.650087,9.18729216 120.662107,8.64595951 123.689969,8.15084604 Z M141.252152,5.81877541 L141.792663,6.55454761 C141.119665,6.64724213 140.447413,6.74220258 139.775914,6.8394235 C139.741059,6.79747085 139.705265,6.75438827 139.669459,6.7112908 L139.161233,6.09957508 C139.146244,6.08153428 139.131258,6.06349609 139.116274,6.04546097 C139.82714,5.96739704 140.539255,5.89182714 141.252152,5.81877541 Z M163.577747,4.36821458 C159.479844,4.62860883 155.405875,4.97142124 151.357239,5.39549889 C151.239853,5.25666354 151.122868,5.11790116 151.00696,4.9804151 C155.172712,4.69056526 159.363453,4.48613762 163.577747,4.36821458 Z"/><path id="Panel-R-1" fill="#00CDB6" fill-rule="nonzero" d="M120.94259,0.535958541 L130.245329,14.9547307 L130.723033,14.8320638 C134.241487,13.9454707 137.803038,13.1462788 141.406656,12.4348847 L141.967666,12.3260433 L132.585701,1.03366912 L131.36582,0.956065967 C128.042732,0.757367569 124.744495,0.620690007 121.471686,0.54591277 L120.94259,0.535958541 Z"/><path id="Panel-R-2" fill="#00CDB6" fill-rule="nonzero" d="M139.220364,1.75654598 L145.592871,10.4249389 L147.060724,10.1643407 C149.007229,9.82819226 150.966292,9.52015906 152.937702,9.24031314 L153.522784,9.15981982 L147.913148,2.50504768 L146.077649,2.32101333 C143.937964,2.1150572 141.808294,1.93727948 139.688835,1.78764788 L139.220364,1.75654598 Z"/><path id="L" fill="#2E3B3E" d="M15.7607432,54.0731095 L16.0077877,54.5799186 C11.1399055,57.4421032 6.33488101,60.3994718 1.59549541,63.4493783 L0.0463366269,64.4510663 L1.57043522,63.3998844 C6.23356985,60.1984508 10.9645383,57.08866 15.7607432,54.0731095 Z M44.3633175,37.620785 L45.1770772,38.9436342 C44.1228386,39.4562392 43.0710518,39.9731278 42.0217415,40.4942767 C41.7624229,40.0911209 41.5012487,39.6840408 41.2393619,39.2758499 C42.2781147,38.7190037 43.3194244,38.1677644 44.3633175,37.620785 Z M77.0484348,25.0542986 C74.2900452,26.1220424 71.5455477,27.2181591 68.8153291,28.3422807 C68.5798852,28.0687129 68.3418494,27.7911332 68.1025571,27.5120881 L67.5251139,26.8387163 C67.4302911,26.728141 67.3353514,26.6174293 67.2403332,26.5066261 C70.1712394,25.1905756 73.1209782,23.9073524 76.0880785,22.6572202 C77.0484348,22.2525921 79.5242291,24.0959445 77.0484348,25.0542986 Z"/><path id="Panel-L-1" fill="#00CDB6" fill-rule="nonzero" d="M39.2680461,24.9230212 L53.1554203,47.5140058 L53.5302895,47.2827848 C59.0208339,43.9165836 64.581561,40.663812 70.2093421,37.5265887 L72.5393607,36.2363351 L56.478893,17.505688 L55.0368679,18.0895897 L53.1591139,18.861395 L51.2541737,19.6583658 L49.3052674,20.4874028 L47.9732844,21.0613168 L45.9138121,21.9591335 L44.4925813,22.5852905 L42.2759316,23.5710565 L39.2680461,24.9230212 Z"/><path id="Panel-L-2" fill="#00CDB6" fill-rule="nonzero" d="M9.83592381,38.0896242 L24.4998895,68.1686956 L24.9604921,67.8145632 C31.9615433,62.4419237 39.1098669,57.2646679 46.3978353,52.288884 L47.2290252,51.723413 L31.1257251,26.6235525 L30.0410914,27.1728053 C23.560263,30.4730529 17.1592208,33.9212817 10.8423443,37.5146433 L9.83592381,38.0896242 Z"/></g><g id="House" fill="#2E3B3E" transform="translate(64.126)"><path id="Edge" d="M46.7076048,12.1333401 C51.5855808,14.3024049 54.5980643,17.2863014 54.5980643,20.58 C54.5980643,27.2101784 42.391108,32.585 27.3330643,32.585 C12.2750206,32.585 0.0680642856,27.2101784 0.0680642856,20.58 C0.0680642856,20.5570098 0.0682110576,20.5340347 0.0685042114,20.5110748 C2.52311999,25.6502391 12.76334,29.505 25.0230643,29.505 C39.1146097,29.505 50.5380643,24.412239 50.5380643,18.13 C50.5380643,15.9477485 49.1596552,13.9090253 46.7698194,12.1774368 Z"/><path id="Lens" d="M26.4580643,0.0660375133 C36.5844327,0.0660375133 44.7934762,8.27508105 44.7934762,18.4014494 C44.7934762,18.8266088 44.7790055,19.2483883 44.7505299,19.6663224 C44.1013307,10.12978 36.1596116,2.59505985 26.4580643,2.59505985 C16.756517,2.59505985 8.81479787,10.12978 8.16553077,19.6665963 C8.13712302,19.2483883 8.12265236,18.8266088 8.12265236,18.4014494 C8.12265236,8.27508105 16.3316959,0.0660375133 26.4580643,0.0660375133 Z"/><path id="Body" d="M52.5500891,20.5056561 L54.5980643,20.58 C54.5980643,40.7304339 39.7951032,55.5685251 27.2290321,55.5685251 C23.6367529,55.5685251 19.8616696,54.5139742 16.3018689,52.445807 C18.7648294,53.4928715 21.2704841,54.0918803 23.66,54.25 C34.8471757,54.9902809 48.58,44.9850109 48.58,24.2094274 C50.8052404,22.9869468 52.0715698,21.7378229 52.5500891,20.5056561 Z"/><path id="Filler" d="M49.6073714,27.1539649 C49.7960012,28.9864002 49.5736018,30.2037742 49.0521172,31.0402232 L50.5380643,31.5154141 L46.4573355,41.3669137 L41.3530061,48.6984034 L41.0968109,48.7492787 L40.6171263,48.8445344 C39.0145435,49.1627753 38.2132522,49.3218957 38.2132522,49.3218957 C41.3450048,46.924261 45.0412336,40.6202086 45.6778685,37.5967033 C45.7403298,37.3442579 45.7734762,37.0794477 45.7734762,36.8068957 C45.7734762,34.999838 44.3164003,33.5330987 42.513034,33.5174633 L42.5059433,33.512105 L42.4839176,33.5173371 L42.4839176,33.5173371 C42.4062894,33.5173371 42.3292892,33.520026 42.253005,33.5253158 L42.4839176,33.5173371 C26.5221964,34.1880373 19.6594902,32.9633775 13.7205609,31.0615887 L13.2472623,30.9080241 L12.7769749,30.7517091 C12.542429,30.6728871 12.3086636,30.5930856 12.0751553,30.5123826 L11.6083267,30.3497978 C11.3749289,30.2679275 11.1414394,30.1852077 10.9073352,30.1017164 L10.4381518,29.9337281 C10.2813808,29.8774045 10.1241815,29.8207611 9.96639883,29.763821 L9.49114599,29.5921337 C9.09338532,29.4483576 8.69101007,29.3028716 8.28159795,29.1560365 C8.17987277,28.2817731 8.76669264,28.2468026 10.0420576,29.0511249 L10.2050643,29.1560365 L18.1747448,30.8206289 L32.1592117,30.8206289 C42.3617485,28.0027972 48.1778018,26.7805759 49.6073714,27.1539649 Z"/></g></g><path id="Path" fill="#2E3B3E" d="M101.675611,72.7426 L101.722754,73.10274 L101.768912,73.4458839 L101.814732,73.7760109 C101.82235,73.8299635 101.829961,73.8833859 101.837569,73.9362841 L101.883202,74.2474318 C102.537519,78.6184494 103.219328,79.2024561 106.191149,79.8586155 L106.402229,79.9045597 L106.733156,79.974552 L106.964745,80.0226 L106.620911,80.0941708 L106.402229,80.1406403 C106.36642,80.1483334 106.330928,80.1560046 106.295749,80.1636599 L106.088406,80.2094506 C103.203476,80.8568375 102.52991,81.4775763 101.883202,85.7977682 L101.837569,86.1089159 C101.814745,86.2676105 101.791892,86.4310226 101.768912,86.5993161 L101.722754,86.94246 L101.675611,87.3026 L101.651726,87.1190043 L101.604399,86.7622784 C100.898214,81.5148864 100.339433,80.89 97.1737434,80.189606 L96.9588051,80.1427497 C96.9223283,80.1349045 96.8855221,80.127037 96.8483828,80.1191409 L96.5050307,80.0471285 L96.3864761,80.0226 L96.6215182,79.973831 L96.8483828,79.9260591 L97.0672511,79.8789748 L97.2783046,79.832269 C100.351868,79.140743 100.90606,78.4720092 101.604399,73.2829216 L101.651726,72.9261957 C101.659661,72.8655829 101.667621,72.8043864 101.675611,72.7426 Z"/></g><g id="Group" fill="#2E3B3E" fill-rule="nonzero" transform="translate(.125 79.1)"><path id="Hubble" d="M7.6824,33.8 L7.6824,20.5984 L19.992,20.5984 L19.992,33.8 L27.6186,33.8 L27.6186,2.2232 L19.992,2.2232 L19.992,14.176 L7.6824,14.176 L7.6824,2.2232 L0.0558,2.2232 L0.0558,33.8 L7.6824,33.8 Z M41.5784,34.4244 C42.3514667,34.4244 43.0873667,34.3203333 43.7861,34.1122 C44.4848333,33.9040667 45.1241,33.6364667 45.7039,33.3094 C46.2837,32.9823333 46.7891667,32.5958 47.2203,32.1498 C47.6514333,31.7038 48.0008,31.2280667 48.2684,30.7226 L48.2684,30.7226 L48.3576,30.7226 L48.3576,33.8 L55.4044,33.8 L55.4044,11.5892 L48.09,11.5892 L48.09,23.5866 C48.09,24.8651333 47.7555,25.9801333 47.0865,26.9316 C46.4175,27.8830667 45.4437333,28.3588 44.1652,28.3588 C43.4813333,28.3588 42.9312667,28.2324333 42.515,27.9797 C42.0987333,27.7269667 41.7642333,27.3776 41.5115,26.9316 C41.2587667,26.4856 41.0878,25.9801333 40.9986,25.4152 C40.9094,24.8502667 40.8648,24.2556 40.8648,23.6312 L40.8648,23.6312 L40.8648,11.5892 L33.5058,11.5892 L33.5058,25.326 C33.5058,26.4558667 33.6470333,27.5634333 33.9295,28.6487 C34.2119667,29.7339667 34.6728333,30.7003 35.3121,31.5477 C35.9513667,32.3951 36.7839,33.0864 37.8097,33.6216 C38.8355,34.1568 40.0917333,34.4244 41.5784,34.4244 Z M75.296,34.4244 C76.9610667,34.4244 78.4477333,34.0973333 79.756,33.4432 C81.0642667,32.7890667 82.1718333,31.9193667 83.0787,30.8341 C83.9855667,29.7488333 84.6768667,28.4926 85.1526,27.0654 C85.6283333,25.6382 85.8662,24.1515333 85.8662,22.6054 C85.8662,21.0592667 85.6209,19.5800333 85.1303,18.1677 C84.6397,16.7553667 83.9409667,15.514 83.0341,14.4436 C82.1272333,13.3732 81.0271,12.5258 79.7337,11.9014 C78.4403,11.277 76.9908,10.9648 75.3852,10.9648 C73.7498667,10.9648 72.3672667,11.277 71.2374,11.9014 C70.1075333,12.5258 69.2304,13.2096667 68.606,13.953 L68.606,13.953 L68.5168,13.953 L68.5168,0.0824 L61.2024,0.0824 L61.2024,33.8 L67.937,33.8 L67.937,30.901 L68.0262,30.901 C68.7398,32.0308667 69.7581667,32.9005667 71.0813,33.5101 C72.4044333,34.1196333 73.8093333,34.4244 75.296,34.4244 Z M73.5566,28.3588 C72.7240667,28.3588 71.9807333,28.1952667 71.3266,27.8682 C70.6724667,27.5411333 70.1149667,27.11 69.6541,26.5748 C69.1932333,26.0396 68.8364333,25.4300667 68.5837,24.7462 C68.3309667,24.0623333 68.2046,23.3636 68.2046,22.65 C68.2046,21.9364 68.3309667,21.2376667 68.5837,20.5538 C68.8364333,19.8699333 69.1932333,19.2604 69.6541,18.7252 C70.1149667,18.19 70.6724667,17.7588667 71.3266,17.4318 C71.9807333,17.1047333 72.7240667,16.9412 73.5566,16.9412 C74.4188667,16.9412 75.1770667,17.1047333 75.8312,17.4318 C76.4853333,17.7588667 77.0354,18.1825667 77.4814,18.7029 C77.9274,19.2232333 78.2619,19.8253333 78.4849,20.5092 C78.7079,21.1930667 78.8194,21.8918 78.8194,22.6054 C78.8194,23.319 78.7079,24.0251667 78.4849,24.7239 C78.2619,25.4226333 77.9274,26.0396 77.4814,26.5748 C77.0354,27.11 76.4853333,27.5411333 75.8312,27.8682 C75.1770667,28.1952667 74.4188667,28.3588 73.5566,28.3588 Z M104.6874,34.4244 C106.352467,34.4244 107.839133,34.0973333 109.1474,33.4432 C110.455667,32.7890667 111.563233,31.9193667 112.4701,30.8341 C113.376967,29.7488333 114.068267,28.4926 114.544,27.0654 C115.019733,25.6382 115.2576,24.1515333 115.2576,22.6054 C115.2576,21.0592667 115.0123,19.5800333 114.5217,18.1677 C114.0311,16.7553667 113.332367,15.514 112.4255,14.4436 C111.518633,13.3732 110.4185,12.5258 109.1251,11.9014 C107.8317,11.277 106.3822,10.9648 104.7766,10.9648 C103.141267,10.9648 101.758667,11.277 100.6288,11.9014 C99.4989333,12.5258 98.6218,13.2096667 97.9974,13.953 L97.9974,13.953 L97.9082,13.953 L97.9082,0.0824 L90.5938,0.0824 L90.5938,33.8 L97.3284,33.8 L97.3284,30.901 L97.4176,30.901 C98.1312,32.0308667 99.1495667,32.9005667 100.4727,33.5101 C101.795833,34.1196333 103.200733,34.4244 104.6874,34.4244 Z M102.948,28.3588 C102.115467,28.3588 101.372133,28.1952667 100.718,27.8682 C100.063867,27.5411333 99.5063667,27.11 99.0455,26.5748 C98.5846333,26.0396 98.2278333,25.4300667 97.9751,24.7462 C97.7223667,24.0623333 97.596,23.3636 97.596,22.65 C97.596,21.9364 97.7223667,21.2376667 97.9751,20.5538 C98.2278333,19.8699333 98.5846333,19.2604 99.0455,18.7252 C99.5063667,18.19 100.063867,17.7588667 100.718,17.4318 C101.372133,17.1047333 102.115467,16.9412 102.948,16.9412 C103.810267,16.9412 104.568467,17.1047333 105.2226,17.4318 C105.876733,17.7588667 106.4268,18.1825667 106.8728,18.7029 C107.3188,19.2232333 107.6533,19.8253333 107.8763,20.5092 C108.0993,21.1930667 108.2108,21.8918 108.2108,22.6054 C108.2108,23.319 108.0993,24.0251667 107.8763,24.7239 C107.6533,25.4226333 107.3188,26.0396 106.8728,26.5748 C106.4268,27.11 105.876733,27.5411333 105.2226,27.8682 C104.568467,28.1952667 103.810267,28.3588 102.948,28.3588 Z M127.3888,33.8 L127.3888,0.0824 L119.9852,0.0824 L119.9852,33.8 L127.3888,33.8 Z M144.2922,34.5136 C146.551933,34.5136 148.536633,34.1047667 150.2463,33.2871 C151.955967,32.4694333 153.331133,31.3024 154.3718,29.786 L154.3718,29.786 L149.2874,26.5748 C148.781933,27.2586667 148.1278,27.8161667 147.325,28.2473 C146.5222,28.6784333 145.541,28.894 144.3814,28.894 C143.727267,28.894 143.095433,28.7899333 142.4859,28.5818 C141.876367,28.3736667 141.3263,28.0837667 140.8357,27.7121 C140.3451,27.3404333 139.9437,26.9018667 139.6315,26.3964 C139.3193,25.8909333 139.133467,25.326 139.074,24.7016 L139.074,24.7016 L155.1746,24.7016 C155.204333,24.434 155.2192,24.1515333 155.2192,23.8542 L155.2192,23.8542 L155.2192,22.9622 C155.2192,21.0592667 154.944167,19.3644667 154.3941,17.8778 C153.844033,16.3911333 153.0784,15.1274667 152.0972,14.0868 C151.116,13.0461333 149.941533,12.2507667 148.5738,11.7007 C147.206067,11.1506333 145.704533,10.8756 144.0692,10.8756 C142.3744,10.8756 140.798533,11.1580667 139.3416,11.723 C137.884667,12.2879333 136.621,13.0833 135.5506,14.1091 C134.4802,15.1349 133.6328,16.3837 133.0084,17.8555 C132.384,19.3273 132.0718,20.9700667 132.0718,22.7838 C132.0718,24.657 132.391433,26.3220667 133.0307,27.779 C133.669967,29.2359333 134.5471,30.4624333 135.6621,31.4585 C136.7771,32.4545667 138.077933,33.2127667 139.5646,33.7331 C141.051267,34.2534333 142.627133,34.5136 144.2922,34.5136 Z M148.4846,20.1524 L139.074,20.1524 C139.103733,19.5874667 139.2524,19.0448333 139.52,18.5245 C139.7876,18.0041667 140.1444,17.5507333 140.5904,17.1642 C141.0364,16.7776667 141.556733,16.4729 142.1514,16.2499 C142.746067,16.0269 143.4002,15.9154 144.1138,15.9154 C145.570733,15.9154 146.663433,16.3316667 147.3919,17.1642 C148.120367,17.9967333 148.4846,18.9928 148.4846,20.1524 L148.4846,20.1524 Z"/></g></g></svg>