<svg width="341" height="341" viewBox="0 0 341 341" xmlns="http://www.w3.org/2000/svg" xmlns:xlink="http://www.w3.org/1999/xlink"><defs><radialGradient cx="20.58%" cy="20.12%" fx="20.58%" fy="20.12%" r="100.09%" gradientTransform="scale(1 .85252) rotate(39.35 .16 .22)" id="b"><stop stop-color="#FFF" offset="0%"/><stop stop-color="#9DFFE4" offset="29.4%"/><stop stop-color="#008AFF" offset="71.5%"/><stop stop-color="#5452FB" offset="90.94%"/><stop stop-color="#2F63FF" offset="100%"/></radialGradient><radialGradient cx="81.53%" cy="-35.25%" fx="81.53%" fy="-35.25%" r="142.27%" gradientTransform="scale(-.77076 -1) rotate(-61.52 .47 1.57)" id="d"><stop stop-color="#2B3920" offset="0%"/><stop stop-color="#2E411E" offset="59.96%"/><stop stop-color="#0D7A6C" offset="70.18%"/><stop stop-color="#49FFA2" offset="100%"/></radialGradient><radialGradient cx="30.25%" cy="25.49%" fx="30.25%" fy="25.49%" r="88.11%" gradientTransform="rotate(39.87 .41 .3) scale(1 1.31875)" id="f"><stop stop-color="#FFDCB8" offset="0%"/><stop stop-color="#D059FF" offset="28.21%"/><stop stop-color="#CC1AFF" offset="45.62%"/><stop stop-color="#FF62C5" offset="76.36%"/><stop stop-color="#FFD7E4" offset="100%"/></radialGradient><filter x="-17.5%" y="-24.1%" width="135.1%" height="148.2%" filterUnits="objectBoundingBox" id="g"><feGaussianBlur stdDeviation="9" in="SourceGraphic"/></filter><filter x="-22.9%" y="-53.8%" width="145.9%" height="207.7%" filterUnits="objectBoundingBox" id="h"><feGaussianBlur stdDeviation="7" in="SourceGraphic"/></filter><path d="M98.45 262.78a144.86 144.86 0 0 0 113.53 63.92 65.46 65.46 0 0 1-113.55-63.89l.02-.03ZM225.6 36.91l-1.73-.01c75.91 0 137.7 60.47 139.82 135.87l.04 1.95v-.32l-.02-.67c-1.73 72.28-60.86 130.35-133.55 130.35-52.19 0-97.38-29.92-119.37-73.54 11.03 3.57 22.8 5.5 35.02 5.5 62.66 0 113.46-50.8 113.46-113.46 0-34.02-14.98-64.55-38.7-85.34 2.1-.15 4.23-.25 6.36-.3l-.78-.02h-.55Z" id="a"/><path d="M98.45 262.78a144.86 144.86 0 0 0 113.53 63.92 65.46 65.46 0 0 1-113.55-63.89l.02-.03Z" id="c"/><circle id="e" cx="116.01" cy="115.01" r="96.01"/></defs><g fill="none" fill-rule="evenodd"><g transform="rotate(8 236.17 -16.51)"><use fill="#1BB1FE" xlink:href="#a"/><use fill="url(#b)" xlink:href="#a"/></g><g transform="rotate(8 236.17 -16.51)"><use fill="#00BC81" xlink:href="#c"/><use fill="url(#d)" xlink:href="#c"/></g><g transform="rotate(8 236.17 -16.51)"><use fill="#BD1FFF" xlink:href="#e"/><use fill="url(#f)" xlink:href="#e"/></g><path d="M95.76 145.51c42.52 0 77-16.76 77-47.69 0-30.92-34.48-64.3-77-64.3-42.53 0-77 33.38-77 64.3 0 30.93 34.47 47.7 77 47.7Z" fill="#FFF" opacity=".42" filter="url(#g)" transform="rotate(-26 44.5 108.23)"/><path d="M124.18 335.13c23.46 2 41.65 16.98 47.1 4.75 5.45-12.24-34.45-34.25-54.26-34.25-19.81 0-36.81 10.93-36.81 25.33 0 14.41 20.5 2.18 43.97 4.17Z" fill="#FFF" opacity=".37" filter="url(#h)" transform="rotate(-133 98.7 325.91)"/></g></svg>