<svg width="624.1" height="910.4" viewBox="0 0 624.1 910.4" xmlns="http://www.w3.org/2000/svg"><path d="M643 6538h220c96 0 154-16 199-69 69-83 75-250 75-587v-588c0-337-6-504-75-586-45-54-103-70-199-70H643ZM301 4348h622c241 0 388 55 477 171 132 158 136 412 136 803v533c0 390-4 645-136 802-89 116-236 171-477 171H301c-18 0-30-6-38-14s-14-20-14-38V4400c0-18 6-30 14-38s20-14 38-14M3778 4317c244 0 401 65 498 178 114 132 142 289 142 526v1755c0 18-6 30-14 38s-20 14-38 14h-291c-18 0-30-6-38-14s-14-20-14-38V5022c0-183-14-292-73-357-41-44-98-66-178-66-72 0-127 20-169 66-56 62-73 167-73 357v1754c0 18-6 30-14 38-9 8-20 14-39 14h-290c-19 0-30-6-38-14s-14-20-14-38V5021c0-255 35-415 136-526 106-116 265-178 507-178M1748 6514h373V4400c0-18 5-30 14-38 8-8 19-14 38-14h318c18 0 30 6 38 14s14 20 14 38v2114h373c18 0 30 6 38 14s14 20 14 38v210c0 18-6 30-14 38s-20 14-38 14H1748c-19 0-30-6-38-14-9-8-14-20-14-38v-210c0-18 5-30 14-38 8-8 19-14 38-14M3685 2585l996 523-996 523c-1291-502-1399-502-2689 0L0 3108l996-523c1290 501 1398 501 2689 0M996 2338 0 1815l996-523c1290 502 1398 502 2689 0l996 523-996 523c-1291-502-1399-502-2689 0M996 1046 0 523 996 0c1290 502 1398 502 2689 0l996 523-996 523c-1291-502-1399-502-2689 0" style="fill:#100f0d;fill-opacity:1;fill-rule:nonzero;stroke:none" transform="matrix(.13333 0 0 -.13333 0 910)"/></svg>