<?xml version="1.0" encoding="UTF-8"?>
<svg width="48px" height="48px" viewBox="0 0 48 48" version="1.1" xmlns="http://www.w3.org/2000/svg" xmlns:xlink="http://www.w3.org/1999/xlink">
    <title>favicon</title>
    <g id="favicon" stroke="none" stroke-width="1" fill="none" fill-rule="evenodd">
        <path d="M36,14 C35.9548559,14.522853 35.8714928,15.0420399 35.7504103,15.5532812 L31.1748594,34.8724396 C29.3516158,42.5706451 22.5423328,48 14.7107903,48 C14.1282757,48 13.5568031,47.9522157 13,47.8603136 L14.9093257,39.7992168 C18.8640038,39.7100972 22.2819902,36.9649573 23.2570947,33.0836902 L23.2863618,32.9637544 L27.7779279,14 L36,14 Z M33.2892097,0 C33.8717243,0 34.4431969,0.0477843315 35,0.139686427 L33.0906743,8.20078318 C29.1359962,8.28990281 25.7180098,11.0350427 24.7429053,14.9163098 L24.7136382,15.0362456 L20.2220721,34 L12,34 C12.0451441,33.477147 12.1285072,32.9579601 12.2495897,32.4467188 L16.8251406,13.1275604 C18.6483842,5.42935488 25.4576672,0 33.2892097,0 Z" id="fj" fill="#8757FF"></path>
    </g>
</svg>