<?xml version="1.0" encoding="UTF-8"?>
<svg width="851px" height="243px" viewBox="0 0 851 243" version="1.1" xmlns="http://www.w3.org/2000/svg" xmlns:xlink="http://www.w3.org/1999/xlink">
    <title>logo</title>
    <g id="logo" stroke="none" stroke-width="1" fill="none" fill-rule="evenodd">
        <path d="M574.425,177.45 C606.99,177.45 627.855,158.535 627.855,126.36 C627.855,94.185 607.185,74.1 574.425,74.1 C541.665,74.1 520.8,93.99 520.8,126.36 C520.8,158.34 541.47,177.45 574.425,177.45 Z M574.425,167.115 C558.63,167.115 550.245,154.245 550.245,126.36 C550.245,98.28 558.63,84.435 574.425,84.435 C590.22,84.435 598.41,98.28 598.41,126.36 C598.41,154.245 590.22,167.115 574.425,167.115 Z M700.035357,175.5 L700.035357,165.75 L668.835357,165.75 L664.935357,161.85 L664.935357,119.73 C664.935357,107.835 670.590357,100.62 681.315357,100.62 L705.885357,100.62 L709.785357,74.1 L694.185357,75.075 C678.585357,76.05 669.225357,83.46 664.935357,97.5 L662.985357,97.5 L662.985357,74.1 C650.700357,78.975 635.100357,79.95 621.840357,79.95 L621.840357,89.7 L637.440357,89.7 L637.440357,161.85 L633.540357,165.75 L621.840357,165.75 L621.840357,175.5 L700.035357,175.5 Z M748.230713,177.45 C762.075713,177.45 773.385713,171.6 779.040713,161.85 L780.990713,161.85 L780.990713,175.5 L823.110713,175.5 L823.110713,165.75 L810.435713,165.75 L806.535713,161.85 L806.535713,24.375 C793.080713,29.835 772.215713,33.15 751.545713,33.15 L751.545713,42.9 L779.040713,42.9 L779.040713,85.605 L777.090713,85.605 C770.850713,78.39 760.125713,74.1 748.620713,74.1 C721.515713,74.1 702.015713,96.33 702.015713,126.36 C702.015713,156.39 721.320713,177.45 748.230713,177.45 Z M756.225713,164.775 C739.650713,164.775 731.460713,152.295 731.460713,126.36 C731.460713,100.425 740.040713,86.385 757.005713,86.385 C770.070713,86.385 779.040713,95.94 779.040713,114.66 L779.040713,134.55 C779.040713,154.44 770.070713,164.775 756.225713,164.775 Z" id="ord" fill="#000000" fill-rule="nonzero"></path>
        <path d="M513.283944,81.4980288 C513.094716,83.6663401 512.745288,85.8194474 512.237753,87.9396041 L493.058672,168.057622 C485.416284,199.982666 456.874193,222.498613 424.047154,222.498613 C421.60546,222.498613 419.21005,222.300448 416.87613,221.919323 L424.879344,188.489342 C441.455947,188.119756 455.782929,176.735452 459.870221,160.639543 L459.992898,160.14216 L478.819944,81.4980288 L513.283944,81.4980288 Z M502.493106,22.5 C504.934799,22.5 507.330209,22.6981653 509.66413,23.0792902 L501.660916,56.5092712 C485.084313,56.8788571 470.75733,68.2631609 466.670039,84.3590705 L466.547362,84.8564534 L447.720315,163.500584 L413.256315,163.500584 C413.445543,161.332273 413.794972,159.179166 414.302506,157.059009 L433.481587,76.9409908 C441.123975,45.0159474 469.666066,22.5 502.493106,22.5 Z" id="fj" fill="#000000"></path>
        <path d="M74.075,177.45 C98.645,177.45 114.245,167.31 114.245,149.37 C114.245,136.11 106.835,127.725 89.09,120.12 L68.42,111.54 C58.865,107.445 54.185,103.155 54.185,96.915 C54.185,88.14 61.01,83.85 69.98,83.85 C83.24,83.85 92.405,93.405 98.645,113.1 L106.445,112.32 L102.545,78 L99.62,78 C84.8,78 76.805,74.1 63.545,74.1 C42.29,74.1 29.225,85.8 29.225,103.545 C29.225,117.195 35.465,125.58 50.285,131.82 L72.515,140.985 C82.46,145.275 87.335,149.955 87.335,156.195 C87.335,163.605 80.315,167.115 70.955,167.115 C53.21,167.115 41.12,156.39 35.27,133.575 L27.275,134.55 L31.175,173.55 L34.1,173.55 C44.266,173.55 51.1759333,174.802333 57.8458361,175.887689 L59.021,176.0772 C63.7166,176.826 68.381,177.45 74.075,177.45 Z M162.635357,177.45 C192.275357,177.45 207.875357,161.46 213.140357,133.575 L204.170357,132.015 C200.270357,151.905 187.205357,164.775 170.045357,164.775 C151.520357,164.775 140.015357,150.345 140.015357,129.09 C140.015357,127.725 140.015357,126.165 140.210357,124.8 L205.340357,124.8 L211.190357,118.95 C211.190357,91.65 193.055357,74.1 163.805357,74.1 C130.850357,74.1 110.765357,94.185 110.765357,126.945 C110.765357,157.365 130.655357,177.45 162.635357,177.45 Z M177.845357,115.05 L140.600357,115.05 C142.550357,94.38 150.935357,84.045 163.025357,84.045 C174.335357,84.045 181.745357,93.21 181.745357,111.15 L177.845357,115.05 Z M261.335713,224.25 C295.070713,224.25 315.155713,211.38 315.155713,188.955 C315.155713,171.405 301.310713,161.07 274.400713,158.145 L251.585713,155.415 C242.615713,154.44 238.325713,151.32 237.155713,146.25 L257.630713,143.91 C285.905713,140.595 302.480713,130.65 302.480713,109.2 C302.480713,101.985 300.530713,95.745 296.630713,90.675 L298.580713,88.725 L320.615713,88.725 L322.955713,66.105 L309.305713,67.08 C300.725713,67.665 292.730713,72.93 291.170713,84.24 C283.175713,77.415 272.645713,74.1 257.240713,74.1 C230.330713,74.1 212.585713,88.335 212.585713,109.2 C212.585713,123.24 222.335713,134.94 237.935713,138.45 L237.935713,140.4 L212.195713,142.35 C212.195713,164.58 220.385713,175.695 243.200713,178.62 L265.430713,181.545 C281.225713,183.495 289.610713,188.76 289.610713,198.12 C289.610713,208.65 279.665713,214.5 262.505713,214.5 C244.760713,214.5 234.230713,208.26 234.230713,195.975 L234.230713,185.25 L205.760713,181.35 L206.735713,194.025 C208.295713,212.94 228.770713,224.25 261.335713,224.25 Z M257.240713,133.575 C246.320713,133.575 241.445713,124.605 241.445713,108.225 C241.445713,92.43 246.320713,83.85 257.240713,83.85 C268.550713,83.85 273.620713,92.43 273.620713,108.225 C273.620713,124.605 268.550713,133.575 257.240713,133.575 Z M360.62107,177.45 C390.26107,177.45 405.86107,161.46 411.12607,133.575 L402.15607,132.015 C398.25607,151.905 385.19107,164.775 368.03107,164.775 C349.50607,164.775 338.00107,150.345 338.00107,129.09 C338.00107,127.725 338.00107,126.165 338.19607,124.8 L403.32607,124.8 L409.17607,118.95 C409.17607,91.65 391.04107,74.1 361.79107,74.1 C328.83607,74.1 308.75107,94.185 308.75107,126.945 C308.75107,157.365 328.64107,177.45 360.62107,177.45 Z M375.83107,115.05 L338.58607,115.05 C340.53607,94.38 348.92107,84.045 361.01107,84.045 C372.32107,84.045 379.73107,93.21 379.73107,111.15 L375.83107,115.05 Z" id="sege" fill="#000000" fill-rule="nonzero"></path>
    </g>
</svg>