<?xml version="1.0" encoding="UTF-8"?>
<svg width="225px" height="225px" viewBox="0 0 225 225" version="1.1" xmlns="http://www.w3.org/2000/svg" xmlns:xlink="http://www.w3.org/1999/xlink">
    <title>logo-small</title>
    <g id="logo-small" stroke="none" stroke-width="1" fill="none" fill-rule="evenodd">
        <path d="M149,83 C148.864568,84.5685591 148.614478,86.1261196 148.251231,87.6598437 L134.524578,145.617319 C129.054847,168.711935 108.626998,185 85.1323708,185 C83.3848271,185 81.6704092,184.856647 80,184.580941 L85.7279772,160.39765 C97.5920115,160.130292 107.845971,151.894872 110.771284,140.251071 L110.859085,139.891263 L124.333784,83 L149,83 Z M138.867629,41 C140.615173,41 142.329591,41.143353 144,41.4190593 L138.272023,65.6023495 C126.407989,65.8697084 116.154029,74.1051281 113.228716,85.7489294 L113.140915,86.1087367 L99.6662163,143 L75,143 C75.1354323,141.431441 75.3855217,139.87388 75.748769,138.340156 L89.4754218,80.3826812 C94.9451525,57.2880646 115.373002,41 138.867629,41 Z" id="fj" fill="#000000"></path>
    </g>
</svg>