<?xml version="1.0" encoding="UTF-8"?>
<svg width="799px" height="209px" viewBox="0 0 799 209" version="1.1" xmlns="http://www.w3.org/2000/svg" xmlns:xlink="http://www.w3.org/1999/xlink">
    <title>Logo</title>
    <defs>
        <polygon id="path-1" points="107.952937 0.000693371694 88.3233375 82.0006934 70.6010589 141.207175 47.4727108 172.000693 0.649310771 172.000693 30.6093691 0.000693371694"></polygon>
        <polygon id="path-3" points="107.952937 0.000693371694 88.3233375 82.0006934 70.6010589 141.207175 47.4727108 172.000693 0.649310771 172.000693 30.6093691 0.000693371694"></polygon>
    </defs>
    <g id="Logo" stroke="none" stroke-width="1" fill="none" fill-rule="evenodd">
        <text id="sege" font-family="PPGrafier-Bold, PP Grafier" font-size="195" font-weight="bold" letter-spacing="-19.0796434" fill="#000000">
            <tspan x="-7.5" y="158.5">sege</tspan>
        </text>
        <text id="ord" font-family="PPGrafier-Bold, PP Grafier" font-size="195" font-weight="bold" letter-spacing="-19.0796434" fill="#000000">
            <tspan x="487" y="158.5">ord</tspan>
        </text>
        <g id="Rectangle" transform="translate(383.270130, -25.500693)">
            <mask id="mask-2" fill="white">
                <use xlink:href="#path-1"></use>
            </mask>
            <g id="Mask"></g>
            <path d="M93.2229759,48.0006934 C100.723048,48.0006934 107.513089,51.0406982 112.428112,55.9557211 C117.343135,60.8707441 120.38314,67.660785 120.38314,75.1608571 C120.38314,77.290525 120.132657,79.4128024 119.636854,81.4839529 L119.636854,81.4839529 L100.457773,161.601971 C97.552011,173.740398 90.6730436,184.090079 81.4001715,191.405153 C72.1272994,198.720226 60.4605226,203.000693 47.9791418,203.000693 C40.4790697,203.000693 33.6890288,199.960688 28.7740059,195.045666 C23.858983,190.130643 20.8189781,183.340602 20.8189781,175.84053 C20.8189781,173.710862 21.0694607,171.588584 21.5652638,169.517434 L21.5652638,169.517434 L40.7443449,89.3994155 C43.6501067,77.2609883 50.5290741,66.9113078 59.8019462,59.5962341 C69.0748183,52.2811603 80.7415951,48.0006934 93.2229759,48.0006934 Z" stroke="#000000" stroke-width="34" mask="url(#mask-2)"></path>
        </g>
        <g id="Rectangle" transform="translate(437.270130, 150.499307) rotate(-180.000000) translate(-437.270130, -150.499307) translate(383.270130, 64.499307)">
            <mask id="mask-4" fill="white">
                <use xlink:href="#path-3"></use>
            </mask>
            <g id="Mask"></g>
            <path d="M93.2229759,48.0006934 C100.723048,48.0006934 107.513089,51.0406982 112.428112,55.9557211 C117.343135,60.8707441 120.38314,67.660785 120.38314,75.1608571 C120.38314,77.290525 120.132657,79.4128024 119.636854,81.4839529 L119.636854,81.4839529 L100.457773,161.601971 C97.552011,173.740398 90.6730436,184.090079 81.4001715,191.405153 C72.1272994,198.720226 60.4605226,203.000693 47.9791418,203.000693 C40.4790697,203.000693 33.6890288,199.960688 28.7740059,195.045666 C23.858983,190.130643 20.8189781,183.340602 20.8189781,175.84053 C20.8189781,173.710862 21.0694607,171.588584 21.5652638,169.517434 L21.5652638,169.517434 L40.7443449,89.3994155 C43.6501067,77.2609883 50.5290741,66.9113078 59.8019462,59.5962341 C69.0748183,52.2811603 80.7415951,48.0006934 93.2229759,48.0006934 Z" stroke="#000000" stroke-width="34" mask="url(#mask-4)"></path>
        </g>
    </g>
</svg>