<?xml version="1.0" encoding="UTF-8"?>
<svg width="225px" height="225px" viewBox="0 0 225 225" version="1.1" xmlns="http://www.w3.org/2000/svg" xmlns:xlink="http://www.w3.org/1999/xlink">
    <title>logo-small</title>
    <g id="logo-small" stroke="none" stroke-width="1" fill="none" fill-rule="evenodd">
        <path d="M148,83 C147.864568,84.5685591 147.614478,86.1261196 147.251231,87.6598437 L133.524578,145.617319 C128.054847,168.711935 107.626998,185 84.1323708,185 C82.3848271,185 80.6704092,184.856647 79,184.580941 L84.7279772,160.39765 C96.5920115,160.130292 106.845971,151.894872 109.771284,140.251071 L109.859085,139.891263 L123.333784,83 L148,83 Z M139.867629,41 C141.615173,41 143.329591,41.143353 145,41.4190593 L139.272023,65.6023495 C127.407989,65.8697084 117.154029,74.1051281 114.228716,85.7489294 L114.140915,86.1087367 L100.666216,143 L76,143 C76.1354323,141.431441 76.3855217,139.87388 76.748769,138.340156 L90.4754218,80.3826812 C95.9451525,57.2880646 116.373002,41 139.867629,41 Z" id="fj" fill="#000000"></path>
    </g>
</svg>