<?xml version="1.0" encoding="UTF-8"?>
<svg width="864px" height="243px" viewBox="0 0 864 243" version="1.1" xmlns="http://www.w3.org/2000/svg" xmlns:xlink="http://www.w3.org/1999/xlink">
    <title>logo</title>
    <g id="logo" stroke="none" stroke-width="1" fill="none" fill-rule="evenodd">
        <path d="M332.955713,66.105 L330.615713,88.725 L308.580713,88.725 L306.630713,90.675 C310.530713,95.745 312.480713,101.985 312.480713,109.2 C312.480713,130.4355 296.235556,140.394949 268.475448,143.808556 L267.630713,143.91 L247.155713,146.25 C248.305883,151.234068 252.471186,154.333677 261.133637,155.363576 L261.585713,155.415 L284.400713,158.145 C311.310713,161.07 325.155713,171.405 325.155713,188.955 C325.155713,211.38 305.070713,224.25 271.335713,224.25 C239.096363,224.25 218.706422,213.165069 216.788181,194.590165 L216.735713,194.025 L215.760713,181.35 L244.230713,185.25 L244.230713,195.975 C244.230713,208.26 254.760713,214.5 272.505713,214.5 C289.665713,214.5 299.610713,208.65 299.610713,198.12 C299.610713,188.860645 291.405066,183.608699 275.937658,181.609054 L275.430713,181.545 L253.200713,178.62 C230.613863,175.72425 222.360976,164.801481 222.198177,143.013568 L222.195713,142.35 L247.935713,140.4 L247.935713,138.45 C232.335713,134.94 222.585713,123.24 222.585713,109.2 C222.585713,88.335 240.330713,74.1 267.240713,74.1 C282.645713,74.1 293.175713,77.415 301.170713,84.24 C302.711213,73.071375 310.526844,67.7975695 318.984249,67.1041339 L319.305713,67.08 L332.955713,66.105 Z M528.283944,81.4980288 C528.094716,83.6663401 527.745288,85.8194474 527.237753,87.9396041 L508.058672,168.057622 C500.416284,199.982666 471.874193,222.498613 439.047154,222.498613 C436.60546,222.498613 434.21005,222.300448 431.87613,221.919323 L439.879344,188.489342 C456.455947,188.119756 470.782929,176.735452 474.870221,160.639543 L474.992898,160.14216 L493.819944,81.4980288 L528.283944,81.4980288 Z M589.425,74.1 C622.185,74.1 642.855,94.185 642.855,126.36 C642.855,158.535 621.99,177.45 589.425,177.45 C556.47,177.45 535.8,158.34 535.8,126.36 C535.8,93.99 556.665,74.1 589.425,74.1 Z M821.535713,24.375 L821.535713,161.85 L825.435713,165.75 L838.110713,165.75 L838.110713,175.5 L795.990713,175.5 L795.990713,161.85 L794.040713,161.85 C788.385713,171.6 777.075713,177.45 763.230713,177.45 C736.320713,177.45 717.015713,156.39 717.015713,126.36 C717.015713,96.33 736.515713,74.1 763.620713,74.1 C775.125713,74.1 785.850713,78.39 792.090713,85.605 L792.090713,85.605 L794.040713,85.605 L794.040713,42.9 L766.545713,42.9 L766.545713,33.15 C787.215713,33.15 808.080713,29.835 821.535713,24.375 L821.535713,24.375 Z M371.79107,74.1 C401.04107,74.1 419.17607,91.65 419.17607,118.95 L419.17607,118.95 L413.32607,124.8 L348.19607,124.8 C348.00107,126.165 348.00107,127.725 348.00107,129.09 C348.00107,150.345 359.50607,164.775 378.03107,164.775 C395.19107,164.775 408.25607,151.905 412.15607,132.015 L412.15607,132.015 L421.12607,133.575 C415.86107,161.46 400.26107,177.45 370.62107,177.45 C338.64107,177.45 318.75107,157.365 318.75107,126.945 C318.75107,94.185 338.83607,74.1 371.79107,74.1 Z M173.805357,74.1 C202.762857,74.1 220.826545,91.300755 221.184923,118.133933 L221.190357,118.95 L215.340357,124.8 L150.210357,124.8 C150.015357,126.165 150.015357,127.725 150.015357,129.09 C150.015357,150.345 161.520357,164.775 180.045357,164.775 C197.033757,164.775 210.008647,152.161113 214.050612,132.609588 L214.170357,132.015 L223.140357,133.575 C217.875357,161.46 202.275357,177.45 172.635357,177.45 C148.418362,177.45 131.134186,165.932574 124.169867,147.13152 C124.220506,147.861387 124.245,148.607637 124.245,149.37 C124.245,167.31 108.645,177.45 84.075,177.45 C78.6806842,177.45 74.2104416,176.889956 69.7623059,176.194322 L69.021,176.0772 L67.8458361,175.887689 C61.3514571,174.830895 54.6295145,173.615797 44.8958692,173.552576 L44.1,173.55 L41.175,173.55 L37.275,134.55 L45.27,133.575 C51.12,156.39 63.21,167.115 80.955,167.115 C90.315,167.115 97.335,163.605 97.335,156.195 C97.335,150.055645 92.6159899,145.426374 82.9922537,141.19289 L82.515,140.985 L60.285,131.82 C45.465,125.58 39.225,117.195 39.225,103.545 C39.225,85.8 52.29,74.1 73.545,74.1 C86.5167391,74.1 94.4499031,77.8322779 108.66303,77.9945508 L109.62,78 L112.545,78 L116.445,112.32 L108.645,113.1 C102.405,93.405 93.24,83.85 79.98,83.85 C71.01,83.85 64.185,88.14 64.185,96.915 C64.185,103.052705 68.7128151,107.30382 77.9540115,111.338442 L78.42,111.54 L99.09,120.12 C110.871211,125.16909 118.096898,130.561994 121.623049,137.497093 C121.055519,134.142618 120.765357,130.619194 120.765357,126.945 C120.765357,94.185 140.850357,74.1 173.805357,74.1 Z M724.785357,74.1 L720.885357,100.62 L696.315357,100.62 C685.590357,100.62 679.935357,107.835 679.935357,119.73 L679.935357,119.73 L679.935357,161.85 L683.835357,165.75 L715.035357,165.75 L715.035357,175.5 L636.840357,175.5 L636.840357,165.75 L648.540357,165.75 L652.440357,161.85 L652.440357,89.7 L636.840357,89.7 L636.840357,79.95 C650.100357,79.95 665.700357,78.975 677.985357,74.1 L677.985357,74.1 L677.985357,97.5 L679.935357,97.5 C684.225357,83.46 693.585357,76.05 709.185357,75.075 L709.185357,75.075 L724.785357,74.1 Z M589.425,84.435 C573.63,84.435 565.245,98.28 565.245,126.36 C565.245,154.245 573.63,167.115 589.425,167.115 C605.22,167.115 613.41,154.245 613.41,126.36 C613.41,98.28 605.22,84.435 589.425,84.435 Z M772.005713,86.385 C755.040713,86.385 746.460713,100.425 746.460713,126.36 C746.460713,152.295 754.650713,164.775 771.225713,164.775 C785.070713,164.775 794.040713,154.44 794.040713,134.55 L794.040713,134.55 L794.040713,114.66 C794.040713,95.94 785.070713,86.385 772.005713,86.385 Z M515.493106,22.5 C517.934799,22.5 520.330209,22.6981653 522.66413,23.0792902 L514.660916,56.5092712 C498.084313,56.8788571 483.75733,68.2631609 479.670039,84.3590705 L479.547362,84.8564534 L460.720315,163.500584 L426.256315,163.500584 C426.445543,161.332273 426.794972,159.179166 427.302506,157.059009 L446.481587,76.9409908 C454.123975,45.0159474 482.666066,22.5 515.493106,22.5 Z M267.240713,83.85 C256.320713,83.85 251.445713,92.43 251.445713,108.225 C251.445713,124.605 256.320713,133.575 267.240713,133.575 C278.550713,133.575 283.620713,124.605 283.620713,108.225 C283.620713,92.43 278.550713,83.85 267.240713,83.85 Z M173.025357,84.045 C160.935357,84.045 152.550357,94.38 150.600357,115.05 L150.600357,115.05 L187.845357,115.05 L191.745357,111.15 C191.745357,93.21 184.335357,84.045 173.025357,84.045 Z M371.01107,84.045 C358.92107,84.045 350.53607,94.38 348.58607,115.05 L348.58607,115.05 L385.83107,115.05 L389.73107,111.15 C389.73107,93.21 382.32107,84.045 371.01107,84.045 Z" id="Combined-Shape" fill="#000000" fill-rule="nonzero"></path>
    </g>
</svg>