<?xml version="1.0" encoding="UTF-8"?>
<svg width="851px" height="243px" viewBox="0 0 851 243" version="1.1" xmlns="http://www.w3.org/2000/svg" xmlns:xlink="http://www.w3.org/1999/xlink">
    <title>logo</title>
    <g id="logo" stroke="none" stroke-width="1" fill="none" fill-rule="evenodd">
        <text id="ord" font-family="PPGrafier-Bold, PP Grafier" font-size="195" font-weight="bold" letter-spacing="-19.0796434" fill="#000000">
            <tspan x="513" y="175.5">ord</tspan>
        </text>
        <path d="M513.283944,81.4980288 C513.094716,83.6663401 512.745288,85.8194474 512.237753,87.9396041 L493.058672,168.057622 C485.416284,199.982666 456.874193,222.498613 424.047154,222.498613 C421.60546,222.498613 419.21005,222.300448 416.87613,221.919323 L424.879344,188.489342 C441.455947,188.119756 455.782929,176.735452 459.870221,160.639543 L459.992898,160.14216 L478.819944,81.4980288 L513.283944,81.4980288 Z M502.493106,22.5 C504.934799,22.5 507.330209,22.6981653 509.66413,23.0792902 L501.660916,56.5092712 C485.084313,56.8788571 470.75733,68.2631609 466.670039,84.3590705 L466.547362,84.8564534 L447.720315,163.500584 L413.256315,163.500584 C413.445543,161.332273 413.794972,159.179166 414.302506,157.059009 L433.481587,76.9409908 C441.123975,45.0159474 469.666066,22.5 502.493106,22.5 Z" id="fj" fill="#000000"></path>
        <text id="sege" font-family="PPGrafier-Bold, PP Grafier" font-size="195" font-weight="bold" letter-spacing="-19.0796434" fill="#000000">
            <tspan x="18.5" y="175.5">sege</tspan>
        </text>
    </g>
</svg>